%TF.GenerationSoftware,KiCad,Pcbnew,8.0.1-8.0.1-1~ubuntu22.04.1*%
%TF.CreationDate,2024-05-04T15:14:31+02:00*%
%TF.ProjectId,elec,656c6563-2e6b-4696-9361-645f70636258,v1*%
%TF.SameCoordinates,Original*%
%TF.FileFunction,Soldermask,Top*%
%TF.FilePolarity,Negative*%
%FSLAX46Y46*%
G04 Gerber Fmt 4.6, Leading zero omitted, Abs format (unit mm)*
G04 Created by KiCad (PCBNEW 8.0.1-8.0.1-1~ubuntu22.04.1) date 2024-05-04 15:14:31*
%MOMM*%
%LPD*%
G01*
G04 APERTURE LIST*
G04 Aperture macros list*
%AMRoundRect*
0 Rectangle with rounded corners*
0 $1 Rounding radius*
0 $2 $3 $4 $5 $6 $7 $8 $9 X,Y pos of 4 corners*
0 Add a 4 corners polygon primitive as box body*
4,1,4,$2,$3,$4,$5,$6,$7,$8,$9,$2,$3,0*
0 Add four circle primitives for the rounded corners*
1,1,$1+$1,$2,$3*
1,1,$1+$1,$4,$5*
1,1,$1+$1,$6,$7*
1,1,$1+$1,$8,$9*
0 Add four rect primitives between the rounded corners*
20,1,$1+$1,$2,$3,$4,$5,0*
20,1,$1+$1,$4,$5,$6,$7,0*
20,1,$1+$1,$6,$7,$8,$9,0*
20,1,$1+$1,$8,$9,$2,$3,0*%
G04 Aperture macros list end*
%ADD10R,1.500000X1.000000*%
%ADD11RoundRect,0.150000X-0.587500X-0.150000X0.587500X-0.150000X0.587500X0.150000X-0.587500X0.150000X0*%
%ADD12R,1.600000X1.600000*%
%ADD13O,1.600000X1.600000*%
%ADD14C,2.600000*%
%ADD15C,3.800000*%
%ADD16C,3.000000*%
%ADD17R,1.000000X1.500000*%
%ADD18RoundRect,0.150000X0.625000X-0.150000X0.625000X0.150000X-0.625000X0.150000X-0.625000X-0.150000X0*%
%ADD19RoundRect,0.250000X0.650000X-0.350000X0.650000X0.350000X-0.650000X0.350000X-0.650000X-0.350000X0*%
%ADD20RoundRect,0.150000X-0.625000X0.150000X-0.625000X-0.150000X0.625000X-0.150000X0.625000X0.150000X0*%
%ADD21RoundRect,0.250000X-0.650000X0.350000X-0.650000X-0.350000X0.650000X-0.350000X0.650000X0.350000X0*%
%ADD22RoundRect,0.250000X0.262500X0.450000X-0.262500X0.450000X-0.262500X-0.450000X0.262500X-0.450000X0*%
%ADD23RoundRect,0.250000X-0.450000X0.262500X-0.450000X-0.262500X0.450000X-0.262500X0.450000X0.262500X0*%
%ADD24R,0.900000X1.350000*%
%ADD25RoundRect,0.250000X-0.262500X-0.450000X0.262500X-0.450000X0.262500X0.450000X-0.262500X0.450000X0*%
%ADD26RoundRect,0.150000X0.587500X0.150000X-0.587500X0.150000X-0.587500X-0.150000X0.587500X-0.150000X0*%
%ADD27RoundRect,0.250000X0.450000X-0.262500X0.450000X0.262500X-0.450000X0.262500X-0.450000X-0.262500X0*%
%ADD28RoundRect,0.150000X0.150000X0.625000X-0.150000X0.625000X-0.150000X-0.625000X0.150000X-0.625000X0*%
%ADD29RoundRect,0.250000X0.350000X0.650000X-0.350000X0.650000X-0.350000X-0.650000X0.350000X-0.650000X0*%
%ADD30O,1.200000X2.000000*%
%ADD31RoundRect,0.250000X-0.650000X0.325000X-0.650000X-0.325000X0.650000X-0.325000X0.650000X0.325000X0*%
%ADD32C,1.600000*%
%ADD33RoundRect,0.140000X-0.170000X0.140000X-0.170000X-0.140000X0.170000X-0.140000X0.170000X0.140000X0*%
G04 APERTURE END LIST*
D10*
%TO.C,JP11*%
X92050000Y-90850000D03*
X92050000Y-89550000D03*
%TD*%
D11*
%TO.C,Q7*%
X136625000Y-46800000D03*
X136625000Y-48700000D03*
X138500000Y-47750000D03*
%TD*%
D12*
%TO.C,U1*%
X102750000Y-44100000D03*
D13*
X102750000Y-46640000D03*
X102750000Y-49180000D03*
X102750000Y-51720000D03*
X102750000Y-54260000D03*
X102750000Y-56800000D03*
X102750000Y-59340000D03*
X102750000Y-61880000D03*
X102750000Y-64420000D03*
X102750000Y-66960000D03*
X102750000Y-69500000D03*
X102750000Y-72040000D03*
X102750000Y-74580000D03*
X102750000Y-77120000D03*
X110370000Y-77120000D03*
X110370000Y-74580000D03*
X110370000Y-72040000D03*
X110370000Y-69500000D03*
X110370000Y-66960000D03*
X110370000Y-64420000D03*
X110370000Y-61880000D03*
X110370000Y-59340000D03*
X110370000Y-56800000D03*
X110370000Y-54260000D03*
X110370000Y-51720000D03*
X110370000Y-49180000D03*
X110370000Y-46640000D03*
X110370000Y-44100000D03*
%TD*%
D14*
%TO.C,REF\u002A\u002A*%
X23000000Y-102000000D03*
D15*
X23000000Y-102000000D03*
%TD*%
D11*
%TO.C,Q10*%
X136625000Y-83300000D03*
X136625000Y-85200000D03*
X138500000Y-84250000D03*
%TD*%
D16*
%TO.C,TP3*%
X75500000Y-25250000D03*
%TD*%
D17*
%TO.C,JP12*%
X99800000Y-71250000D03*
X98500000Y-71250000D03*
%TD*%
D18*
%TO.C,J4*%
X28525000Y-49950000D03*
X28525000Y-48950000D03*
X28525000Y-47950000D03*
X28525000Y-46950000D03*
D19*
X26000000Y-51250000D03*
X26000000Y-45650000D03*
%TD*%
D17*
%TO.C,JP34*%
X138550000Y-87500000D03*
X137250000Y-87500000D03*
%TD*%
%TO.C,JP9*%
X109200000Y-82500000D03*
X110500000Y-82500000D03*
%TD*%
D20*
%TO.C,J12*%
X145225000Y-83400000D03*
X145225000Y-84400000D03*
X145225000Y-85400000D03*
X145225000Y-86400000D03*
D21*
X147750000Y-82100000D03*
X147750000Y-87700000D03*
%TD*%
D11*
%TO.C,Q8*%
X136625000Y-59050000D03*
X136625000Y-60950000D03*
X138500000Y-60000000D03*
%TD*%
D22*
%TO.C,R5*%
X127412500Y-95750000D03*
X125587500Y-95750000D03*
%TD*%
D17*
%TO.C,JP14*%
X98600000Y-75000000D03*
X99900000Y-75000000D03*
%TD*%
%TO.C,JP20*%
X35330000Y-58000000D03*
X36630000Y-58000000D03*
%TD*%
%TO.C,JP8*%
X109200000Y-88000000D03*
X110500000Y-88000000D03*
%TD*%
D16*
%TO.C,TP1*%
X56750000Y-31250000D03*
%TD*%
D17*
%TO.C,JP22*%
X35392500Y-70100000D03*
X36692500Y-70100000D03*
%TD*%
%TO.C,JP15*%
X33150000Y-35750000D03*
X31850000Y-35750000D03*
%TD*%
%TO.C,JP10*%
X109200000Y-98750000D03*
X110500000Y-98750000D03*
%TD*%
%TO.C,JP25*%
X141012500Y-36600000D03*
X142312500Y-36600000D03*
%TD*%
D18*
%TO.C,J6*%
X28525000Y-74250000D03*
X28525000Y-73250000D03*
X28525000Y-72250000D03*
X28525000Y-71250000D03*
D19*
X26000000Y-75550000D03*
X26000000Y-69950000D03*
%TD*%
D23*
%TO.C,R27*%
X134250000Y-86337500D03*
X134250000Y-88162500D03*
%TD*%
D17*
%TO.C,JP32*%
X138500000Y-75500000D03*
X137200000Y-75500000D03*
%TD*%
D20*
%TO.C,J10*%
X145225000Y-59100000D03*
X145225000Y-60100000D03*
X145225000Y-61100000D03*
X145225000Y-62100000D03*
D21*
X147750000Y-57800000D03*
X147750000Y-63400000D03*
%TD*%
D24*
%TO.C,SW1*%
X62000000Y-76925000D03*
X62000000Y-71075000D03*
X59000000Y-76925000D03*
X59000000Y-71075000D03*
%TD*%
D25*
%TO.C,R7*%
X89775000Y-83250000D03*
X91600000Y-83250000D03*
%TD*%
D17*
%TO.C,JP16*%
X35250000Y-33500000D03*
X36550000Y-33500000D03*
%TD*%
D25*
%TO.C,R12*%
X31500000Y-45500000D03*
X33325000Y-45500000D03*
%TD*%
D26*
%TO.C,Q3*%
X37187500Y-62150000D03*
X37187500Y-60250000D03*
X35312500Y-61200000D03*
%TD*%
D17*
%TO.C,JP24*%
X35250000Y-82250000D03*
X36550000Y-82250000D03*
%TD*%
D26*
%TO.C,Q5*%
X37125000Y-86450000D03*
X37125000Y-84550000D03*
X35250000Y-85500000D03*
%TD*%
D22*
%TO.C,R3*%
X110750000Y-80000000D03*
X108925000Y-80000000D03*
%TD*%
D16*
%TO.C,TP5*%
X94500000Y-62750000D03*
%TD*%
D17*
%TO.C,JP26*%
X138500000Y-39000000D03*
X137200000Y-39000000D03*
%TD*%
%TO.C,JP33*%
X140750000Y-85500000D03*
X142050000Y-85500000D03*
%TD*%
D22*
%TO.C,R20*%
X142300000Y-39250000D03*
X140475000Y-39250000D03*
%TD*%
D18*
%TO.C,J3*%
X28525000Y-37800000D03*
X28525000Y-36800000D03*
X28525000Y-35800000D03*
X28525000Y-34800000D03*
D19*
X26000000Y-39100000D03*
X26000000Y-33500000D03*
%TD*%
D26*
%TO.C,Q1*%
X37125000Y-37700000D03*
X37125000Y-35800000D03*
X35250000Y-36750000D03*
%TD*%
D22*
%TO.C,R2*%
X110750000Y-85500000D03*
X108925000Y-85500000D03*
%TD*%
%TO.C,R26*%
X142300000Y-75700000D03*
X140475000Y-75700000D03*
%TD*%
D27*
%TO.C,R15*%
X39750000Y-71412500D03*
X39750000Y-69587500D03*
%TD*%
D22*
%TO.C,R22*%
X142300000Y-51400000D03*
X140475000Y-51400000D03*
%TD*%
D14*
%TO.C,REF\u002A\u002A*%
X23000000Y-22000000D03*
D15*
X23000000Y-22000000D03*
%TD*%
D17*
%TO.C,JP18*%
X35250000Y-45750000D03*
X36550000Y-45750000D03*
%TD*%
%TO.C,JP21*%
X33032500Y-72066250D03*
X31732500Y-72066250D03*
%TD*%
%TO.C,JP23*%
X33032500Y-84350000D03*
X31732500Y-84350000D03*
%TD*%
D14*
%TO.C,REF\u002A\u002A*%
X151000000Y-22000000D03*
D15*
X151000000Y-22000000D03*
%TD*%
D17*
%TO.C,JP17*%
X33032500Y-47850000D03*
X31732500Y-47850000D03*
%TD*%
D28*
%TO.C,J2*%
X96200000Y-96325000D03*
X95200000Y-96325000D03*
X94200000Y-96325000D03*
X93200000Y-96325000D03*
D29*
X97500000Y-98850000D03*
X91900000Y-98850000D03*
%TD*%
D18*
%TO.C,J7*%
X28525000Y-86400000D03*
X28525000Y-85400000D03*
X28525000Y-84400000D03*
X28525000Y-83400000D03*
D19*
X26000000Y-87700000D03*
X26000000Y-82100000D03*
%TD*%
D25*
%TO.C,R16*%
X31500000Y-69800000D03*
X33325000Y-69800000D03*
%TD*%
D30*
%TO.C,J1*%
X54000000Y-96000000D03*
X57500000Y-96000000D03*
%TD*%
D11*
%TO.C,Q9*%
X136875000Y-71050000D03*
X136875000Y-72950000D03*
X138750000Y-72000000D03*
%TD*%
D22*
%TO.C,R24*%
X142300000Y-63550000D03*
X140475000Y-63550000D03*
%TD*%
D20*
%TO.C,J9*%
X145225000Y-46950000D03*
X145225000Y-47950000D03*
X145225000Y-48950000D03*
X145225000Y-49950000D03*
D21*
X147750000Y-45650000D03*
X147750000Y-51250000D03*
%TD*%
D17*
%TO.C,JP19*%
X33032500Y-60100000D03*
X31732500Y-60100000D03*
%TD*%
%TO.C,JP28*%
X138500000Y-51000000D03*
X137200000Y-51000000D03*
%TD*%
D11*
%TO.C,Q6*%
X136950000Y-35050000D03*
X136950000Y-36950000D03*
X138825000Y-36000000D03*
%TD*%
D26*
%TO.C,Q4*%
X37250000Y-74250000D03*
X37250000Y-72350000D03*
X35375000Y-73300000D03*
%TD*%
D22*
%TO.C,R1*%
X110825000Y-91000000D03*
X109000000Y-91000000D03*
%TD*%
D31*
%TO.C,C2*%
X99000000Y-64250000D03*
X99000000Y-67200000D03*
%TD*%
D18*
%TO.C,J5*%
X28525000Y-62100000D03*
X28525000Y-61100000D03*
X28525000Y-60100000D03*
X28525000Y-59100000D03*
D19*
X26000000Y-63400000D03*
X26000000Y-57800000D03*
%TD*%
D20*
%TO.C,J11*%
X145225000Y-71250000D03*
X145225000Y-72250000D03*
X145225000Y-73250000D03*
X145225000Y-74250000D03*
D21*
X147750000Y-69950000D03*
X147750000Y-75550000D03*
%TD*%
D27*
%TO.C,R17*%
X39500000Y-83575000D03*
X39500000Y-81750000D03*
%TD*%
D14*
%TO.C,REF\u002A\u002A*%
X151000000Y-102000000D03*
D15*
X151000000Y-102000000D03*
%TD*%
D17*
%TO.C,JP31*%
X140850000Y-73250000D03*
X142150000Y-73250000D03*
%TD*%
D27*
%TO.C,R9*%
X39500000Y-34500000D03*
X39500000Y-32675000D03*
%TD*%
D17*
%TO.C,JP30*%
X138500000Y-63250000D03*
X137200000Y-63250000D03*
%TD*%
D23*
%TO.C,R19*%
X134250000Y-37587500D03*
X134250000Y-39412500D03*
%TD*%
%TO.C,R23*%
X134250000Y-62175000D03*
X134250000Y-64000000D03*
%TD*%
D25*
%TO.C,R4*%
X108925000Y-96250000D03*
X110750000Y-96250000D03*
%TD*%
%TO.C,R14*%
X31500000Y-57650000D03*
X33325000Y-57650000D03*
%TD*%
D23*
%TO.C,R25*%
X134250000Y-74175000D03*
X134250000Y-76000000D03*
%TD*%
D26*
%TO.C,Q2*%
X37125000Y-49950000D03*
X37125000Y-48050000D03*
X35250000Y-49000000D03*
%TD*%
D22*
%TO.C,R6*%
X127325000Y-98000000D03*
X125500000Y-98000000D03*
%TD*%
D16*
%TO.C,TP2*%
X54250000Y-40000000D03*
%TD*%
D23*
%TO.C,R21*%
X134000000Y-49675000D03*
X134000000Y-51500000D03*
%TD*%
D17*
%TO.C,JP7*%
X109200000Y-93500000D03*
X110500000Y-93500000D03*
%TD*%
D27*
%TO.C,R13*%
X39750000Y-59325000D03*
X39750000Y-57500000D03*
%TD*%
D22*
%TO.C,R28*%
X142300000Y-87850000D03*
X140475000Y-87850000D03*
%TD*%
%TO.C,R8*%
X97725000Y-83200000D03*
X95900000Y-83200000D03*
%TD*%
D17*
%TO.C,JP29*%
X140700000Y-61250000D03*
X142000000Y-61250000D03*
%TD*%
D12*
%TO.C,MCU1*%
X82620000Y-74490000D03*
D32*
X82620000Y-71950000D03*
X82620000Y-69410000D03*
X82620000Y-66870000D03*
X82620000Y-64330000D03*
X82620000Y-61790000D03*
X82620000Y-59250000D03*
X82620000Y-56710000D03*
X82620000Y-54170000D03*
X82620000Y-51630000D03*
X82620000Y-49090000D03*
X82620000Y-46550000D03*
X67380000Y-46550000D03*
X67380000Y-49090000D03*
X67380000Y-51630000D03*
X67380000Y-54170000D03*
X67380000Y-56710000D03*
X67380000Y-59250000D03*
X67380000Y-61790000D03*
X67380000Y-64330000D03*
X67380000Y-66870000D03*
X67380000Y-69410000D03*
X67380000Y-71950000D03*
X67380000Y-74490000D03*
%TD*%
D25*
%TO.C,R10*%
X31500000Y-33350000D03*
X33325000Y-33350000D03*
%TD*%
D33*
%TO.C,C1*%
X101000000Y-65790000D03*
X101000000Y-66750000D03*
%TD*%
D17*
%TO.C,JP27*%
X140700000Y-49000000D03*
X142000000Y-49000000D03*
%TD*%
D10*
%TO.C,JP13*%
X97400000Y-90750000D03*
X97400000Y-89450000D03*
%TD*%
D16*
%TO.C,TP4*%
X92000000Y-73500000D03*
%TD*%
D20*
%TO.C,J8*%
X145225000Y-34800000D03*
X145225000Y-35800000D03*
X145225000Y-36800000D03*
X145225000Y-37800000D03*
D21*
X147750000Y-33500000D03*
X147750000Y-39100000D03*
%TD*%
D25*
%TO.C,R18*%
X31500000Y-81950000D03*
X33325000Y-81950000D03*
%TD*%
D27*
%TO.C,R11*%
X39750000Y-47000000D03*
X39750000Y-45175000D03*
%TD*%
M02*
