%TF.GenerationSoftware,KiCad,Pcbnew,8.0.1-8.0.1-1~ubuntu22.04.1*%
%TF.CreationDate,2024-05-04T15:14:31+02:00*%
%TF.ProjectId,elec,656c6563-2e6b-4696-9361-645f70636258,v1*%
%TF.SameCoordinates,Original*%
%TF.FileFunction,Soldermask,Bot*%
%TF.FilePolarity,Negative*%
%FSLAX46Y46*%
G04 Gerber Fmt 4.6, Leading zero omitted, Abs format (unit mm)*
G04 Created by KiCad (PCBNEW 8.0.1-8.0.1-1~ubuntu22.04.1) date 2024-05-04 15:14:31*
%MOMM*%
%LPD*%
G01*
G04 APERTURE LIST*
%ADD10R,1.600000X1.600000*%
%ADD11O,1.600000X1.600000*%
%ADD12C,2.600000*%
%ADD13C,3.800000*%
%ADD14C,3.000000*%
%ADD15O,1.200000X2.000000*%
%ADD16C,1.600000*%
%ADD17R,1.500000X1.000000*%
G04 APERTURE END LIST*
D10*
%TO.C,U1*%
X102750000Y-44100000D03*
D11*
X102750000Y-46640000D03*
X102750000Y-49180000D03*
X102750000Y-51720000D03*
X102750000Y-54260000D03*
X102750000Y-56800000D03*
X102750000Y-59340000D03*
X102750000Y-61880000D03*
X102750000Y-64420000D03*
X102750000Y-66960000D03*
X102750000Y-69500000D03*
X102750000Y-72040000D03*
X102750000Y-74580000D03*
X102750000Y-77120000D03*
X110370000Y-77120000D03*
X110370000Y-74580000D03*
X110370000Y-72040000D03*
X110370000Y-69500000D03*
X110370000Y-66960000D03*
X110370000Y-64420000D03*
X110370000Y-61880000D03*
X110370000Y-59340000D03*
X110370000Y-56800000D03*
X110370000Y-54260000D03*
X110370000Y-51720000D03*
X110370000Y-49180000D03*
X110370000Y-46640000D03*
X110370000Y-44100000D03*
%TD*%
D12*
%TO.C,REF\u002A\u002A*%
X23000000Y-102000000D03*
D13*
X23000000Y-102000000D03*
%TD*%
D14*
%TO.C,TP3*%
X75500000Y-25250000D03*
%TD*%
%TO.C,TP1*%
X56750000Y-31250000D03*
%TD*%
%TO.C,TP5*%
X94500000Y-62750000D03*
%TD*%
D12*
%TO.C,REF\u002A\u002A*%
X23000000Y-22000000D03*
D13*
X23000000Y-22000000D03*
%TD*%
D12*
%TO.C,REF\u002A\u002A*%
X151000000Y-22000000D03*
D13*
X151000000Y-22000000D03*
%TD*%
D15*
%TO.C,J1*%
X54000000Y-96000000D03*
X57500000Y-96000000D03*
%TD*%
D12*
%TO.C,REF\u002A\u002A*%
X151000000Y-102000000D03*
D13*
X151000000Y-102000000D03*
%TD*%
D14*
%TO.C,TP2*%
X54250000Y-40000000D03*
%TD*%
D10*
%TO.C,MCU1*%
X82620000Y-74490000D03*
D16*
X82620000Y-71950000D03*
X82620000Y-69410000D03*
X82620000Y-66870000D03*
X82620000Y-64330000D03*
X82620000Y-61790000D03*
X82620000Y-59250000D03*
X82620000Y-56710000D03*
X82620000Y-54170000D03*
X82620000Y-51630000D03*
X82620000Y-49090000D03*
X82620000Y-46550000D03*
X67380000Y-46550000D03*
X67380000Y-49090000D03*
X67380000Y-51630000D03*
X67380000Y-54170000D03*
X67380000Y-56710000D03*
X67380000Y-59250000D03*
X67380000Y-61790000D03*
X67380000Y-64330000D03*
X67380000Y-66870000D03*
X67380000Y-69410000D03*
X67380000Y-71950000D03*
X67380000Y-74490000D03*
%TD*%
D14*
%TO.C,TP4*%
X92000000Y-73500000D03*
%TD*%
D17*
%TO.C,JP6*%
X125500000Y-52500000D03*
X125500000Y-51200000D03*
%TD*%
%TO.C,JP5*%
X129000000Y-62700000D03*
X129000000Y-64000000D03*
%TD*%
%TO.C,JP1*%
X114000000Y-58700000D03*
X114000000Y-60000000D03*
%TD*%
%TO.C,JP2*%
X119500000Y-54800000D03*
X119500000Y-53500000D03*
%TD*%
%TO.C,JP3*%
X114000000Y-48355000D03*
X114000000Y-49655000D03*
%TD*%
%TO.C,JP4*%
X130750000Y-44450000D03*
X130750000Y-45750000D03*
%TD*%
M02*
