%TF.GenerationSoftware,KiCad,Pcbnew,8.0.1-8.0.1-1~ubuntu22.04.1*%
%TF.CreationDate,2024-05-13T22:21:20+02:00*%
%TF.ProjectId,elec,656c6563-2e6b-4696-9361-645f70636258,v1*%
%TF.SameCoordinates,Original*%
%TF.FileFunction,Paste,Top*%
%TF.FilePolarity,Positive*%
%FSLAX46Y46*%
G04 Gerber Fmt 4.6, Leading zero omitted, Abs format (unit mm)*
G04 Created by KiCad (PCBNEW 8.0.1-8.0.1-1~ubuntu22.04.1) date 2024-05-13 22:21:20*
%MOMM*%
%LPD*%
G01*
G04 APERTURE LIST*
G04 Aperture macros list*
%AMRoundRect*
0 Rectangle with rounded corners*
0 $1 Rounding radius*
0 $2 $3 $4 $5 $6 $7 $8 $9 X,Y pos of 4 corners*
0 Add a 4 corners polygon primitive as box body*
4,1,4,$2,$3,$4,$5,$6,$7,$8,$9,$2,$3,0*
0 Add four circle primitives for the rounded corners*
1,1,$1+$1,$2,$3*
1,1,$1+$1,$4,$5*
1,1,$1+$1,$6,$7*
1,1,$1+$1,$8,$9*
0 Add four rect primitives between the rounded corners*
20,1,$1+$1,$2,$3,$4,$5,0*
20,1,$1+$1,$4,$5,$6,$7,0*
20,1,$1+$1,$6,$7,$8,$9,0*
20,1,$1+$1,$8,$9,$2,$3,0*%
G04 Aperture macros list end*
%ADD10RoundRect,0.150000X-0.587500X-0.150000X0.587500X-0.150000X0.587500X0.150000X-0.587500X0.150000X0*%
%ADD11RoundRect,0.150000X0.625000X-0.150000X0.625000X0.150000X-0.625000X0.150000X-0.625000X-0.150000X0*%
%ADD12RoundRect,0.250000X0.650000X-0.350000X0.650000X0.350000X-0.650000X0.350000X-0.650000X-0.350000X0*%
%ADD13RoundRect,0.150000X-0.625000X0.150000X-0.625000X-0.150000X0.625000X-0.150000X0.625000X0.150000X0*%
%ADD14RoundRect,0.250000X-0.650000X0.350000X-0.650000X-0.350000X0.650000X-0.350000X0.650000X0.350000X0*%
%ADD15RoundRect,0.250000X0.262500X0.450000X-0.262500X0.450000X-0.262500X-0.450000X0.262500X-0.450000X0*%
%ADD16RoundRect,0.250000X-0.450000X0.262500X-0.450000X-0.262500X0.450000X-0.262500X0.450000X0.262500X0*%
%ADD17R,0.900000X1.350000*%
%ADD18RoundRect,0.250000X-0.262500X-0.450000X0.262500X-0.450000X0.262500X0.450000X-0.262500X0.450000X0*%
%ADD19RoundRect,0.150000X0.587500X0.150000X-0.587500X0.150000X-0.587500X-0.150000X0.587500X-0.150000X0*%
%ADD20RoundRect,0.250000X0.450000X-0.262500X0.450000X0.262500X-0.450000X0.262500X-0.450000X-0.262500X0*%
%ADD21RoundRect,0.150000X0.150000X0.625000X-0.150000X0.625000X-0.150000X-0.625000X0.150000X-0.625000X0*%
%ADD22RoundRect,0.250000X0.350000X0.650000X-0.350000X0.650000X-0.350000X-0.650000X0.350000X-0.650000X0*%
%ADD23RoundRect,0.250000X-0.650000X0.325000X-0.650000X-0.325000X0.650000X-0.325000X0.650000X0.325000X0*%
%ADD24RoundRect,0.140000X-0.170000X0.140000X-0.170000X-0.140000X0.170000X-0.140000X0.170000X0.140000X0*%
G04 APERTURE END LIST*
D10*
%TO.C,Q7*%
X136625000Y-46800000D03*
X136625000Y-48700000D03*
X138500000Y-47750000D03*
%TD*%
%TO.C,Q10*%
X136625000Y-83300000D03*
X136625000Y-85200000D03*
X138500000Y-84250000D03*
%TD*%
D11*
%TO.C,J4*%
X28525000Y-49950000D03*
X28525000Y-48950000D03*
X28525000Y-47950000D03*
X28525000Y-46950000D03*
D12*
X26000000Y-51250000D03*
X26000000Y-45650000D03*
%TD*%
D13*
%TO.C,J12*%
X145225000Y-83400000D03*
X145225000Y-84400000D03*
X145225000Y-85400000D03*
X145225000Y-86400000D03*
D14*
X147750000Y-82100000D03*
X147750000Y-87700000D03*
%TD*%
D10*
%TO.C,Q8*%
X136625000Y-59050000D03*
X136625000Y-60950000D03*
X138500000Y-60000000D03*
%TD*%
D15*
%TO.C,R5*%
X127412500Y-95750000D03*
X125587500Y-95750000D03*
%TD*%
D11*
%TO.C,J6*%
X28525000Y-74250000D03*
X28525000Y-73250000D03*
X28525000Y-72250000D03*
X28525000Y-71250000D03*
D12*
X26000000Y-75550000D03*
X26000000Y-69950000D03*
%TD*%
D16*
%TO.C,R27*%
X134250000Y-86337500D03*
X134250000Y-88162500D03*
%TD*%
D13*
%TO.C,J10*%
X145225000Y-59100000D03*
X145225000Y-60100000D03*
X145225000Y-61100000D03*
X145225000Y-62100000D03*
D14*
X147750000Y-57800000D03*
X147750000Y-63400000D03*
%TD*%
D17*
%TO.C,SW1*%
X62000000Y-76925000D03*
X62000000Y-71075000D03*
X59000000Y-76925000D03*
X59000000Y-71075000D03*
%TD*%
D18*
%TO.C,R7*%
X89775000Y-83250000D03*
X91600000Y-83250000D03*
%TD*%
%TO.C,R12*%
X31500000Y-45500000D03*
X33325000Y-45500000D03*
%TD*%
D19*
%TO.C,Q3*%
X37187500Y-62150000D03*
X37187500Y-60250000D03*
X35312500Y-61200000D03*
%TD*%
%TO.C,Q5*%
X37125000Y-86450000D03*
X37125000Y-84550000D03*
X35250000Y-85500000D03*
%TD*%
D15*
%TO.C,R3*%
X110750000Y-80000000D03*
X108925000Y-80000000D03*
%TD*%
%TO.C,R20*%
X142300000Y-39250000D03*
X140475000Y-39250000D03*
%TD*%
D11*
%TO.C,J3*%
X28525000Y-37800000D03*
X28525000Y-36800000D03*
X28525000Y-35800000D03*
X28525000Y-34800000D03*
D12*
X26000000Y-39100000D03*
X26000000Y-33500000D03*
%TD*%
D19*
%TO.C,Q1*%
X37125000Y-37700000D03*
X37125000Y-35800000D03*
X35250000Y-36750000D03*
%TD*%
D15*
%TO.C,R2*%
X110750000Y-85500000D03*
X108925000Y-85500000D03*
%TD*%
%TO.C,R26*%
X142300000Y-75700000D03*
X140475000Y-75700000D03*
%TD*%
D20*
%TO.C,R15*%
X39750000Y-71412500D03*
X39750000Y-69587500D03*
%TD*%
D15*
%TO.C,R22*%
X142300000Y-51400000D03*
X140475000Y-51400000D03*
%TD*%
D21*
%TO.C,J2*%
X96200000Y-96325000D03*
X95200000Y-96325000D03*
X94200000Y-96325000D03*
X93200000Y-96325000D03*
D22*
X97500000Y-98850000D03*
X91900000Y-98850000D03*
%TD*%
D11*
%TO.C,J7*%
X28525000Y-86400000D03*
X28525000Y-85400000D03*
X28525000Y-84400000D03*
X28525000Y-83400000D03*
D12*
X26000000Y-87700000D03*
X26000000Y-82100000D03*
%TD*%
D18*
%TO.C,R16*%
X31500000Y-69800000D03*
X33325000Y-69800000D03*
%TD*%
D10*
%TO.C,Q9*%
X136875000Y-71050000D03*
X136875000Y-72950000D03*
X138750000Y-72000000D03*
%TD*%
D15*
%TO.C,R24*%
X142300000Y-63550000D03*
X140475000Y-63550000D03*
%TD*%
D13*
%TO.C,J9*%
X145225000Y-46950000D03*
X145225000Y-47950000D03*
X145225000Y-48950000D03*
X145225000Y-49950000D03*
D14*
X147750000Y-45650000D03*
X147750000Y-51250000D03*
%TD*%
D10*
%TO.C,Q6*%
X136950000Y-35050000D03*
X136950000Y-36950000D03*
X138825000Y-36000000D03*
%TD*%
D19*
%TO.C,Q4*%
X37250000Y-74250000D03*
X37250000Y-72350000D03*
X35375000Y-73300000D03*
%TD*%
D15*
%TO.C,R1*%
X110825000Y-91000000D03*
X109000000Y-91000000D03*
%TD*%
D23*
%TO.C,C2*%
X99000000Y-64250000D03*
X99000000Y-67200000D03*
%TD*%
D11*
%TO.C,J5*%
X28525000Y-62100000D03*
X28525000Y-61100000D03*
X28525000Y-60100000D03*
X28525000Y-59100000D03*
D12*
X26000000Y-63400000D03*
X26000000Y-57800000D03*
%TD*%
D13*
%TO.C,J11*%
X145225000Y-71250000D03*
X145225000Y-72250000D03*
X145225000Y-73250000D03*
X145225000Y-74250000D03*
D14*
X147750000Y-69950000D03*
X147750000Y-75550000D03*
%TD*%
D20*
%TO.C,R17*%
X39500000Y-83575000D03*
X39500000Y-81750000D03*
%TD*%
%TO.C,R9*%
X39500000Y-34500000D03*
X39500000Y-32675000D03*
%TD*%
D16*
%TO.C,R19*%
X134250000Y-37587500D03*
X134250000Y-39412500D03*
%TD*%
%TO.C,R23*%
X134250000Y-62175000D03*
X134250000Y-64000000D03*
%TD*%
D18*
%TO.C,R4*%
X108925000Y-96250000D03*
X110750000Y-96250000D03*
%TD*%
%TO.C,R14*%
X31500000Y-57650000D03*
X33325000Y-57650000D03*
%TD*%
D16*
%TO.C,R25*%
X134250000Y-74175000D03*
X134250000Y-76000000D03*
%TD*%
D19*
%TO.C,Q2*%
X37125000Y-49950000D03*
X37125000Y-48050000D03*
X35250000Y-49000000D03*
%TD*%
D15*
%TO.C,R6*%
X127325000Y-98000000D03*
X125500000Y-98000000D03*
%TD*%
D16*
%TO.C,R21*%
X134000000Y-49675000D03*
X134000000Y-51500000D03*
%TD*%
D20*
%TO.C,R13*%
X39750000Y-59325000D03*
X39750000Y-57500000D03*
%TD*%
D15*
%TO.C,R28*%
X142300000Y-87850000D03*
X140475000Y-87850000D03*
%TD*%
%TO.C,R8*%
X97725000Y-83200000D03*
X95900000Y-83200000D03*
%TD*%
D18*
%TO.C,R10*%
X31500000Y-33350000D03*
X33325000Y-33350000D03*
%TD*%
D24*
%TO.C,C1*%
X101000000Y-65790000D03*
X101000000Y-66750000D03*
%TD*%
D13*
%TO.C,J8*%
X145225000Y-34800000D03*
X145225000Y-35800000D03*
X145225000Y-36800000D03*
X145225000Y-37800000D03*
D14*
X147750000Y-33500000D03*
X147750000Y-39100000D03*
%TD*%
D18*
%TO.C,R18*%
X31500000Y-81950000D03*
X33325000Y-81950000D03*
%TD*%
D20*
%TO.C,R11*%
X39750000Y-47000000D03*
X39750000Y-45175000D03*
%TD*%
M02*
