M48
; DRILL file {KiCad 8.0.1-8.0.1-1~ubuntu22.04.1} date 2024-05-13T22:21:20+0200
; FORMAT={-:-/ absolute / inch / decimal}
; #@! TF.CreationDate,2024-05-13T22:21:20+02:00
; #@! TF.GenerationSoftware,Kicad,Pcbnew,8.0.1-8.0.1-1~ubuntu22.04.1
; #@! TF.FileFunction,Plated,1,2,PTH
FMAT,2
INCH
; #@! TA.AperFunction,Plated,PTH,ViaDrill
T1C0.0118
; #@! TA.AperFunction,Plated,PTH,ComponentDrill
T2C0.0315
; #@! TA.AperFunction,Plated,PTH,ComponentDrill
T3C0.0433
; #@! TA.AperFunction,Plated,PTH,ComponentDrill
T4C0.0591
; #@! TA.AperFunction,Plated,PTH,ComponentDrill
T5C0.0866
%
G90
G05
T1
X1.0236Y-1.2795
X1.0236Y-1.5748
X1.0236Y-1.7559
X1.0236Y-2.0571
X1.0236Y-2.2343
X1.0236Y-2.5394
X1.0236Y-2.7165
X1.0236Y-3.0118
X1.0236Y-3.189
X1.0236Y-3.4941
X1.1713Y-1.4961
X1.1713Y-2.4508
X1.1713Y-2.9232
X1.1713Y-3.4055
X1.1713Y-3.6122
X1.1732Y-1.9665
X1.2008Y-1.624
X1.2205Y-2.126
X1.2598Y-2.5984
X1.2598Y-3.0807
X1.2992Y-1.0335
X1.4272Y-3.7697
X1.4764Y-1.8012
X1.4764Y-3.2382
X1.4788Y-2.2795
X1.4813Y-2.7559
X1.4862Y-1.3189
X1.5059Y-1.4075
X1.5059Y-1.8898
X1.5059Y-3.3268
X1.5084Y-2.3681
X1.5108Y-2.8445
X1.5551Y-1.25
X1.5551Y-2.2274
X1.5551Y-3.1791
X1.565Y-1.7421
X1.565Y-2.7032
X1.6831Y-2.6181
X1.7421Y-2.1752
X1.8602Y-1.0335
X1.8602Y-1.2697
X1.939Y-1.7323
X1.9882Y-3.1102
X2.2736Y-2.8051
X2.2736Y-3.0217
X2.372Y-2.3819
X2.3819Y-1.8996
X2.3819Y-2.6378
X2.5197Y-1.0335
X2.5197Y-1.2697
X2.7657Y-3.1398
X2.9724Y-1.6535
X3.002Y-3.376
X3.002Y-3.8189
X3.3071Y-1.2795
X3.4646Y-3.8386
X3.5827Y-3.8878
X3.6614Y-3.75
X3.7008Y-1.0138
X3.7598Y-2.9035
X3.7598Y-3.002
X3.8386Y-1.5453
X3.8484Y-1.3681
X3.8484Y-1.4567
X3.878Y-3.8878
X3.9862Y-3.8583
X4.0157Y-3.4055
X4.0256Y-1.3681
X4.0256Y-1.4567
X4.0256Y-1.5453
X4.252Y-3.1496
X4.252Y-3.3661
X4.252Y-3.5827
X4.2618Y-3.8878
X4.4882Y-1.8364
X4.4882Y-2.0364
X4.4882Y-2.2343
X4.4882Y-2.4343
X4.5571Y-2.4803
X4.5669Y-2.0866
X4.6161Y-1.8898
X4.7047Y-2.0362
X4.7047Y-2.2362
X4.8327Y-2.874
X4.8917Y-3.4252
X4.9213Y-2.3622
X4.9409Y-1.937
X4.9409Y-2.1358
X4.9803Y-2.5197
X5.0787Y-2.1949
X5.0787Y-2.7559
X5.1476Y-1.7126
X5.1476Y-1.8362
X5.1476Y-1.9193
X5.1673Y-2.4705
X5.2815Y-2.0625
X5.2815Y-2.5546
X5.2854Y-1.5846
X5.2854Y-3.5039
X5.2913Y-3.0271
X5.3327Y-2.3976
X5.3346Y-1.9193
X5.3346Y-2.874
X5.3346Y-3.3563
X5.3346Y-3.9173
X5.3445Y-1.4567
X5.3622Y-2.4862
X5.3642Y-1.5354
X5.3642Y-2.0079
X5.3642Y-2.9724
X5.3642Y-3.4449
X5.4626Y-1.0335
X5.6004Y-1.6732
X5.6299Y-2.1457
X5.6398Y-3.6713
X5.6496Y-2.6673
X5.6496Y-3.1398
X5.6693Y-1.8465
X5.6693Y-3.2835
X5.6713Y-2.8051
X5.6732Y-1.3661
X5.6732Y-2.3268
X5.8169Y-1.2795
X5.8169Y-1.5846
X5.8169Y-1.752
X5.8169Y-2.0571
X5.8169Y-2.2343
X5.8169Y-2.5394
X5.8169Y-2.7165
X5.8169Y-3.0118
X5.8169Y-3.189
X5.8169Y-3.4941
T2
X2.126Y-3.7795
X2.2638Y-3.7795
X4.0453Y-1.7362
X4.0453Y-1.8362
X4.0453Y-1.9362
X4.0453Y-2.0362
X4.0453Y-2.1362
X4.0453Y-2.2362
X4.0453Y-2.3362
X4.0453Y-2.4362
X4.0453Y-2.5362
X4.0453Y-2.6362
X4.0453Y-2.7362
X4.0453Y-2.8362
X4.0453Y-2.9362
X4.0453Y-3.0362
X4.3453Y-1.7362
X4.3453Y-1.8362
X4.3453Y-1.9362
X4.3453Y-2.0362
X4.3453Y-2.1362
X4.3453Y-2.2362
X4.3453Y-2.3362
X4.3453Y-2.4362
X4.3453Y-2.5362
X4.3453Y-2.6362
X4.3453Y-2.7362
X4.3453Y-2.8362
X4.3453Y-2.9362
X4.3453Y-3.0362
T3
X2.6528Y-1.8327
X2.6528Y-1.9327
X2.6528Y-2.0327
X2.6528Y-2.1327
X2.6528Y-2.2327
X2.6528Y-2.3327
X2.6528Y-2.4327
X2.6528Y-2.5327
X2.6528Y-2.6327
X2.6528Y-2.7327
X2.6528Y-2.8327
X2.6528Y-2.9327
X3.2528Y-1.8327
X3.2528Y-1.9327
X3.2528Y-2.0327
X3.2528Y-2.1327
X3.2528Y-2.2327
X3.2528Y-2.3327
X3.2528Y-2.4327
X3.2528Y-2.5327
X3.2528Y-2.6327
X3.2528Y-2.7327
X3.2528Y-2.8327
X3.2528Y-2.9327
T4
X2.1358Y-1.5748
X2.2343Y-1.2303
X2.9724Y-0.9941
X3.622Y-2.8937
X3.7205Y-2.4705
T5
X0.9055Y-0.8661
X0.9055Y-4.0157
X5.9449Y-0.8661
X5.9449Y-4.0157
M30
