%TF.GenerationSoftware,KiCad,Pcbnew,8.0.1-8.0.1-1~ubuntu22.04.1*%
%TF.CreationDate,2024-05-04T15:14:31+02:00*%
%TF.ProjectId,elec,656c6563-2e6b-4696-9361-645f70636258,v1*%
%TF.SameCoordinates,Original*%
%TF.FileFunction,Copper,L2,Bot*%
%TF.FilePolarity,Positive*%
%FSLAX46Y46*%
G04 Gerber Fmt 4.6, Leading zero omitted, Abs format (unit mm)*
G04 Created by KiCad (PCBNEW 8.0.1-8.0.1-1~ubuntu22.04.1) date 2024-05-04 15:14:31*
%MOMM*%
%LPD*%
G01*
G04 APERTURE LIST*
%TA.AperFunction,ComponentPad*%
%ADD10R,1.600000X1.600000*%
%TD*%
%TA.AperFunction,ComponentPad*%
%ADD11O,1.600000X1.600000*%
%TD*%
%TA.AperFunction,ComponentPad*%
%ADD12C,2.600000*%
%TD*%
%TA.AperFunction,ConnectorPad*%
%ADD13C,3.800000*%
%TD*%
%TA.AperFunction,ComponentPad*%
%ADD14C,3.000000*%
%TD*%
%TA.AperFunction,ComponentPad*%
%ADD15O,1.200000X2.000000*%
%TD*%
%TA.AperFunction,ComponentPad*%
%ADD16C,1.600000*%
%TD*%
%TA.AperFunction,SMDPad,CuDef*%
%ADD17R,1.500000X1.000000*%
%TD*%
%TA.AperFunction,ViaPad*%
%ADD18C,0.600000*%
%TD*%
%TA.AperFunction,Conductor*%
%ADD19C,0.500000*%
%TD*%
%TA.AperFunction,Conductor*%
%ADD20C,0.200000*%
%TD*%
G04 APERTURE END LIST*
D10*
%TO.P,U1,1,GPB0*%
%TO.N,/LA6*%
X102750000Y-44100000D03*
D11*
%TO.P,U1,2,GPB1*%
%TO.N,/BTN6*%
X102750000Y-46640000D03*
%TO.P,U1,3,GPB2*%
%TO.N,unconnected-(U1-GPB2-Pad3)*%
X102750000Y-49180000D03*
%TO.P,U1,4,GPB3*%
%TO.N,unconnected-(U1-GPB3-Pad4)*%
X102750000Y-51720000D03*
%TO.P,U1,5,GPB4*%
%TO.N,unconnected-(U1-GPB4-Pad5)*%
X102750000Y-54260000D03*
%TO.P,U1,6,GPB5*%
%TO.N,unconnected-(U1-GPB5-Pad6)*%
X102750000Y-56800000D03*
%TO.P,U1,7,GPB6*%
%TO.N,unconnected-(U1-GPB6-Pad7)*%
X102750000Y-59340000D03*
%TO.P,U1,8,GPB7*%
%TO.N,unconnected-(U1-GPB7-Pad8)*%
X102750000Y-61880000D03*
%TO.P,U1,9,VDD*%
%TO.N,+5V*%
X102750000Y-64420000D03*
%TO.P,U1,10,VSS*%
%TO.N,GND*%
X102750000Y-66960000D03*
%TO.P,U1,11,NC*%
%TO.N,unconnected-(U1-NC-Pad11)*%
X102750000Y-69500000D03*
%TO.P,U1,12,SCK*%
%TO.N,Net-(JP12-A)*%
X102750000Y-72040000D03*
%TO.P,U1,13,SDA*%
%TO.N,Net-(JP14-B)*%
X102750000Y-74580000D03*
%TO.P,U1,14,NC*%
%TO.N,unconnected-(U1-NC-Pad14)*%
X102750000Y-77120000D03*
%TO.P,U1,15,A0*%
%TO.N,Net-(JP9-B)*%
X110370000Y-77120000D03*
%TO.P,U1,16,A1*%
%TO.N,Net-(JP8-B)*%
X110370000Y-74580000D03*
%TO.P,U1,17,A2*%
%TO.N,Net-(JP7-B)*%
X110370000Y-72040000D03*
%TO.P,U1,18,~{RESET}*%
%TO.N,Net-(JP10-B)*%
X110370000Y-69500000D03*
%TO.P,U1,19,INTB*%
%TO.N,Net-(U1-INTB)*%
X110370000Y-66960000D03*
%TO.P,U1,20,INTA*%
%TO.N,Net-(U1-INTA)*%
X110370000Y-64420000D03*
%TO.P,U1,21,GPA0*%
%TO.N,/LA10*%
X110370000Y-61880000D03*
%TO.P,U1,22,GPA1*%
%TO.N,/BTN10*%
X110370000Y-59340000D03*
%TO.P,U1,23,GPA2*%
%TO.N,/LA9*%
X110370000Y-56800000D03*
%TO.P,U1,24,GPA3*%
%TO.N,/BTN9*%
X110370000Y-54260000D03*
%TO.P,U1,25,GPA4*%
%TO.N,/LA8*%
X110370000Y-51720000D03*
%TO.P,U1,26,GPA5*%
%TO.N,/BTN8*%
X110370000Y-49180000D03*
%TO.P,U1,27,GPA6*%
%TO.N,/LA7*%
X110370000Y-46640000D03*
%TO.P,U1,28,GPA7*%
%TO.N,/BTN7*%
X110370000Y-44100000D03*
%TD*%
D12*
%TO.P,REF\u002A\u002A,1*%
%TO.N,GND*%
X23000000Y-102000000D03*
D13*
X23000000Y-102000000D03*
%TD*%
D14*
%TO.P,TP3,1,1*%
%TO.N,+24V*%
X75500000Y-25250000D03*
%TD*%
%TO.P,TP1,1,1*%
%TO.N,/LA1*%
X56750000Y-31250000D03*
%TD*%
%TO.P,TP5,1,1*%
%TO.N,/SCL*%
X94500000Y-62750000D03*
%TD*%
D12*
%TO.P,REF\u002A\u002A,1*%
%TO.N,GND*%
X23000000Y-22000000D03*
D13*
X23000000Y-22000000D03*
%TD*%
D12*
%TO.P,REF\u002A\u002A,1*%
%TO.N,GND*%
X151000000Y-22000000D03*
D13*
X151000000Y-22000000D03*
%TD*%
D15*
%TO.P,J1,1,Pin_1*%
%TO.N,GND*%
X54000000Y-96000000D03*
%TO.P,J1,2,Pin_2*%
%TO.N,+24V*%
X57500000Y-96000000D03*
%TD*%
D12*
%TO.P,REF\u002A\u002A,1*%
%TO.N,GND*%
X151000000Y-102000000D03*
D13*
X151000000Y-102000000D03*
%TD*%
D14*
%TO.P,TP2,1,1*%
%TO.N,/BTN1*%
X54250000Y-40000000D03*
%TD*%
D10*
%TO.P,MCU1,1,TX0*%
%TO.N,unconnected-(MCU1-TX0-Pad1)*%
X82620000Y-74490000D03*
D16*
%TO.P,MCU1,2,RX1*%
%TO.N,unconnected-(MCU1-RX1-Pad2)*%
X82620000Y-71950000D03*
%TO.P,MCU1,3,GND*%
%TO.N,GND*%
X82620000Y-69410000D03*
%TO.P,MCU1,4,GND*%
X82620000Y-66870000D03*
%TO.P,MCU1,5,2*%
%TO.N,/SDA*%
X82620000Y-64330000D03*
%TO.P,MCU1,6,3*%
%TO.N,/SCL*%
X82620000Y-61790000D03*
%TO.P,MCU1,7,4*%
%TO.N,/LA10*%
X82620000Y-59250000D03*
%TO.P,MCU1,8,5*%
%TO.N,/BTN10*%
X82620000Y-56710000D03*
%TO.P,MCU1,9,6*%
%TO.N,/BTN7*%
X82620000Y-54170000D03*
%TO.P,MCU1,10,7*%
%TO.N,/BTN6*%
X82620000Y-51630000D03*
%TO.P,MCU1,11,9*%
%TO.N,/BTN5*%
X82620000Y-49090000D03*
%TO.P,MCU1,12,8*%
%TO.N,/LA5*%
X82620000Y-46550000D03*
%TO.P,MCU1,13,10*%
%TO.N,/LA1*%
X67380000Y-46550000D03*
%TO.P,MCU1,14,16*%
%TO.N,/BTN1*%
X67380000Y-49090000D03*
%TO.P,MCU1,15,14*%
%TO.N,/LA2*%
X67380000Y-51630000D03*
%TO.P,MCU1,16,15*%
%TO.N,/BTN2*%
X67380000Y-54170000D03*
%TO.P,MCU1,17,A0*%
%TO.N,/LA3*%
X67380000Y-56710000D03*
%TO.P,MCU1,18,A1*%
%TO.N,/BTN3*%
X67380000Y-59250000D03*
%TO.P,MCU1,19,A2*%
%TO.N,/LA4*%
X67380000Y-61790000D03*
%TO.P,MCU1,20,A3*%
%TO.N,/BTN4*%
X67380000Y-64330000D03*
%TO.P,MCU1,21,VCC*%
%TO.N,+5V*%
X67380000Y-66870000D03*
%TO.P,MCU1,22,RST*%
%TO.N,Net-(MCU1-RST)*%
X67380000Y-69410000D03*
%TO.P,MCU1,23,GND*%
%TO.N,GND*%
X67380000Y-71950000D03*
%TO.P,MCU1,24,RAW*%
%TO.N,unconnected-(MCU1-RAW-Pad24)*%
X67380000Y-74490000D03*
%TD*%
D14*
%TO.P,TP4,1,1*%
%TO.N,/SDA*%
X92000000Y-73500000D03*
%TD*%
D17*
%TO.P,JP6,1,A*%
%TO.N,/BTN9*%
X125500000Y-52500000D03*
%TO.P,JP6,2,B*%
%TO.N,/BTN8*%
X125500000Y-51200000D03*
%TD*%
%TO.P,JP5,1,A*%
%TO.N,/BTN9*%
X129000000Y-62700000D03*
%TO.P,JP5,2,B*%
%TO.N,/BTN10*%
X129000000Y-64000000D03*
%TD*%
%TO.P,JP1,1,A*%
%TO.N,/LA9*%
X114000000Y-58700000D03*
%TO.P,JP1,2,B*%
%TO.N,/LA10*%
X114000000Y-60000000D03*
%TD*%
%TO.P,JP2,1,A*%
%TO.N,/LA9*%
X119500000Y-54800000D03*
%TO.P,JP2,2,B*%
%TO.N,/LA8*%
X119500000Y-53500000D03*
%TD*%
%TO.P,JP3,1,A*%
%TO.N,/LA7*%
X114000000Y-48355000D03*
%TO.P,JP3,2,B*%
%TO.N,/LA8*%
X114000000Y-49655000D03*
%TD*%
%TO.P,JP4,1,A*%
%TO.N,/LA6*%
X130750000Y-44450000D03*
%TO.P,JP4,2,B*%
%TO.N,/LA7*%
X130750000Y-45750000D03*
%TD*%
D18*
%TO.N,GND*%
X134150000Y-52387500D03*
X37562500Y-57900000D03*
X29750000Y-86500000D03*
X115750000Y-63000000D03*
X75500000Y-42000000D03*
X64000000Y-32250000D03*
X147750000Y-64500000D03*
X116000000Y-53000000D03*
X37750000Y-33500000D03*
X26000000Y-81000000D03*
X135500000Y-99500000D03*
X50500000Y-79000000D03*
X143250000Y-93250000D03*
X147750000Y-44500000D03*
X135450000Y-60900000D03*
X147750000Y-88750000D03*
X26000000Y-32500000D03*
X57750000Y-71250000D03*
X136250000Y-39000000D03*
X93000000Y-95250000D03*
X37500000Y-45750000D03*
X144000000Y-83400000D03*
X30500000Y-41250000D03*
X29750000Y-74250000D03*
X38250000Y-35750000D03*
X26000000Y-69000000D03*
X122750000Y-73000000D03*
X26000000Y-76500000D03*
X144100000Y-59100000D03*
X143000000Y-54500000D03*
X47250000Y-26250000D03*
X57750000Y-76750000D03*
X47250000Y-32250000D03*
X135500000Y-48750000D03*
X147750000Y-56750000D03*
X94000000Y-25750000D03*
X91000000Y-98750000D03*
X26000000Y-52250000D03*
X39500000Y-31750000D03*
X33000000Y-26250000D03*
X143500000Y-79750000D03*
X108250000Y-98750000D03*
X129000000Y-70000000D03*
X136250000Y-51000000D03*
X134400000Y-76887500D03*
X29800000Y-49950000D03*
X144050000Y-71250000D03*
X125000000Y-60000000D03*
X144100000Y-34700000D03*
X39500000Y-56575000D03*
X37625000Y-70000000D03*
X135500000Y-73000000D03*
X39500000Y-80750000D03*
X60500000Y-67000000D03*
X60250000Y-60500000D03*
X64000000Y-26250000D03*
X135750000Y-37000000D03*
X147750000Y-32500000D03*
X26000000Y-64500000D03*
X38250000Y-48000000D03*
X143500000Y-67750000D03*
X147750000Y-81000000D03*
X29750000Y-38000000D03*
X31000000Y-54000000D03*
X26000000Y-40000000D03*
X108000000Y-85500000D03*
X38312500Y-60150000D03*
X26000000Y-88750000D03*
X124250000Y-87000000D03*
X136250000Y-87500000D03*
X102000000Y-86500000D03*
X138750000Y-26250000D03*
X134250000Y-89000000D03*
X101250000Y-98000000D03*
X135500000Y-85250000D03*
X136250000Y-75500000D03*
X44250000Y-55250000D03*
X147750000Y-40250000D03*
X108000000Y-91000000D03*
X37500000Y-82250000D03*
X39750000Y-68662500D03*
X38250000Y-84500000D03*
X29750000Y-62250000D03*
X136200000Y-63150000D03*
X117250000Y-48000000D03*
X42750000Y-66500000D03*
X130750000Y-48750000D03*
X38375000Y-72250000D03*
X26000000Y-44600000D03*
X84000000Y-32500000D03*
X98500000Y-98750000D03*
X142250000Y-42500000D03*
X147750000Y-52250000D03*
X88000000Y-97500000D03*
X134150000Y-64887500D03*
X147750000Y-69000000D03*
X147750000Y-76500000D03*
X39750000Y-44250000D03*
X144000000Y-46900000D03*
X76250000Y-97000000D03*
X108000000Y-80000000D03*
X49250000Y-44000000D03*
X60500000Y-48250000D03*
X36250000Y-95750000D03*
X129000000Y-55750000D03*
X26000000Y-56750000D03*
X134250000Y-40250000D03*
%TO.N,+5V*%
X70250000Y-79750000D03*
X76250000Y-85750000D03*
%TO.N,/BTN7*%
X102250000Y-34750000D03*
X97750000Y-34750000D03*
%TO.N,/BTN8*%
X125500000Y-49200000D03*
%TO.N,/BTN9*%
X131250000Y-62750000D03*
X125500000Y-54250000D03*
%TO.N,/BTN10*%
X126500000Y-64000000D03*
X97750000Y-37000000D03*
X102250000Y-37000000D03*
%TO.N,/LA6*%
X130750000Y-43500000D03*
%TO.N,/LA7*%
X114000000Y-46645000D03*
X130750000Y-46640000D03*
%TO.N,/LA10*%
X102250000Y-39250000D03*
X114000000Y-61830000D03*
X97500000Y-39250000D03*
%TO.N,/LA8*%
X119500000Y-51720000D03*
X114000000Y-51725000D03*
%TO.N,/LA9*%
X119500000Y-56800000D03*
X114000000Y-56750000D03*
%TO.N,/SCL*%
X95500000Y-73750000D03*
X95500000Y-76250000D03*
%TD*%
D19*
%TO.N,+5V*%
X70250000Y-79750000D02*
X76250000Y-85750000D01*
D20*
%TO.N,/BTN7*%
X102250000Y-34750000D02*
X97750000Y-34750000D01*
%TO.N,/BTN8*%
X125500000Y-51200000D02*
X125500000Y-49200000D01*
%TO.N,/BTN9*%
X131200000Y-62700000D02*
X131250000Y-62750000D01*
X129000000Y-62700000D02*
X131200000Y-62700000D01*
X125500000Y-54250000D02*
X125500000Y-52500000D01*
%TO.N,/BTN10*%
X129000000Y-64000000D02*
X126500000Y-64000000D01*
X98000000Y-37000000D02*
X102250000Y-37000000D01*
X97750000Y-37000000D02*
X98000000Y-37000000D01*
%TO.N,/LA6*%
X130750000Y-43500000D02*
X130750000Y-44450000D01*
%TO.N,/LA7*%
X114000000Y-48355000D02*
X114000000Y-46645000D01*
X130750000Y-46640000D02*
X130750000Y-45750000D01*
%TO.N,/LA10*%
X102250000Y-39250000D02*
X97500000Y-39250000D01*
X114000000Y-60000000D02*
X114000000Y-61830000D01*
%TO.N,/LA8*%
X114000000Y-49655000D02*
X114000000Y-51725000D01*
X119500000Y-53500000D02*
X119500000Y-51720000D01*
%TO.N,/LA9*%
X119500000Y-56800000D02*
X119450000Y-56800000D01*
X119500000Y-54800000D02*
X119500000Y-56800000D01*
X114000000Y-58700000D02*
X114000000Y-56750000D01*
%TO.N,/SCL*%
X95500000Y-73750000D02*
X95500000Y-76250000D01*
%TD*%
%TA.AperFunction,Conductor*%
%TO.N,GND*%
G36*
X151164637Y-16002954D02*
G01*
X151621765Y-16033425D01*
X151632757Y-16034158D01*
X151642603Y-16035210D01*
X152106745Y-16103665D01*
X152116474Y-16105500D01*
X152573669Y-16210766D01*
X152583190Y-16213362D01*
X153030080Y-16354630D01*
X153030541Y-16354776D01*
X153039856Y-16358135D01*
X153474482Y-16534783D01*
X153483476Y-16538864D01*
X153902649Y-16749639D01*
X153911293Y-16754428D01*
X154041969Y-16833790D01*
X154312284Y-16997958D01*
X154320535Y-17003431D01*
X154700819Y-17278180D01*
X154708607Y-17284294D01*
X155065767Y-17588515D01*
X155073042Y-17595232D01*
X155404767Y-17926957D01*
X155411484Y-17934232D01*
X155715705Y-18291392D01*
X155721819Y-18299180D01*
X155996568Y-18679464D01*
X156002041Y-18687715D01*
X156245566Y-19088697D01*
X156250364Y-19097358D01*
X156461130Y-19516512D01*
X156465221Y-19525529D01*
X156641864Y-19960144D01*
X156645223Y-19969458D01*
X156786632Y-20416793D01*
X156789237Y-20426346D01*
X156894499Y-20883525D01*
X156896334Y-20893254D01*
X156964789Y-21357396D01*
X156965841Y-21367242D01*
X156997044Y-21835341D01*
X156997308Y-21845239D01*
X156991062Y-22314352D01*
X156990535Y-22324239D01*
X156946882Y-22791351D01*
X156945568Y-22801165D01*
X156864784Y-23263311D01*
X156862691Y-23272988D01*
X156745292Y-23727215D01*
X156742433Y-23736695D01*
X156589173Y-24180088D01*
X156585568Y-24189310D01*
X156397408Y-24619089D01*
X156393078Y-24627993D01*
X156171236Y-25041376D01*
X156166209Y-25049907D01*
X155912091Y-25444272D01*
X155906400Y-25452374D01*
X155621621Y-25825214D01*
X155615302Y-25832836D01*
X155301698Y-26181751D01*
X155294790Y-26188845D01*
X154954336Y-26511637D01*
X154946885Y-26518157D01*
X154581762Y-26812756D01*
X154573814Y-26818661D01*
X154186351Y-27083189D01*
X154177957Y-27088441D01*
X153770631Y-27321207D01*
X153761845Y-27325773D01*
X153337237Y-27525302D01*
X153328115Y-27529152D01*
X152888929Y-27694172D01*
X152879529Y-27697281D01*
X152545519Y-27793164D01*
X152428604Y-27826726D01*
X152418989Y-27829076D01*
X151959158Y-27922133D01*
X151949383Y-27923708D01*
X151483596Y-27979781D01*
X151473726Y-27980571D01*
X151002478Y-27999401D01*
X150997527Y-27999500D01*
X150934108Y-27999500D01*
X150806812Y-28033608D01*
X150692686Y-28099500D01*
X150692683Y-28099502D01*
X150599502Y-28192683D01*
X150599500Y-28192686D01*
X150533608Y-28306812D01*
X150503043Y-28420884D01*
X150499500Y-28434108D01*
X150499500Y-95434108D01*
X150499500Y-95565892D01*
X150508639Y-95600000D01*
X150533608Y-95693187D01*
X150566554Y-95750250D01*
X150599500Y-95807314D01*
X150692686Y-95900500D01*
X150806814Y-95966392D01*
X150934108Y-96000500D01*
X150997527Y-96000500D01*
X151002477Y-96000598D01*
X151473730Y-96019428D01*
X151483591Y-96020217D01*
X151949406Y-96076294D01*
X151959135Y-96077862D01*
X152419010Y-96170928D01*
X152428580Y-96173266D01*
X152879541Y-96302722D01*
X152888925Y-96305825D01*
X153139562Y-96400000D01*
X153328115Y-96470847D01*
X153337236Y-96474696D01*
X153761850Y-96674228D01*
X153770626Y-96678789D01*
X154022015Y-96822445D01*
X154177957Y-96911558D01*
X154186350Y-96916809D01*
X154479470Y-97116928D01*
X154573814Y-97181338D01*
X154581758Y-97187240D01*
X154936424Y-97473402D01*
X154946885Y-97481842D01*
X154954330Y-97488357D01*
X154967138Y-97500500D01*
X155294790Y-97811154D01*
X155301682Y-97818231D01*
X155615302Y-98167163D01*
X155621621Y-98174785D01*
X155906400Y-98547625D01*
X155912091Y-98555727D01*
X156166209Y-98950092D01*
X156171236Y-98958623D01*
X156393078Y-99372006D01*
X156397408Y-99380910D01*
X156585568Y-99810689D01*
X156589173Y-99819911D01*
X156742433Y-100263304D01*
X156745292Y-100272784D01*
X156862691Y-100727011D01*
X156864784Y-100736688D01*
X156945568Y-101198834D01*
X156946882Y-101208648D01*
X156990535Y-101675760D01*
X156991062Y-101685647D01*
X156997308Y-102154760D01*
X156997044Y-102164658D01*
X156965841Y-102632757D01*
X156964789Y-102642603D01*
X156896334Y-103106745D01*
X156894499Y-103116474D01*
X156789237Y-103573653D01*
X156786632Y-103583206D01*
X156645223Y-104030541D01*
X156641864Y-104039855D01*
X156465221Y-104474470D01*
X156461130Y-104483487D01*
X156250364Y-104902641D01*
X156245566Y-104911302D01*
X156002041Y-105312284D01*
X155996568Y-105320535D01*
X155721819Y-105700819D01*
X155715705Y-105708607D01*
X155411484Y-106065767D01*
X155404767Y-106073042D01*
X155073042Y-106404767D01*
X155065767Y-106411484D01*
X154708607Y-106715705D01*
X154700819Y-106721819D01*
X154320535Y-106996568D01*
X154312284Y-107002041D01*
X153911302Y-107245566D01*
X153902641Y-107250364D01*
X153483487Y-107461130D01*
X153474470Y-107465221D01*
X153039855Y-107641864D01*
X153030541Y-107645223D01*
X152583206Y-107786632D01*
X152573653Y-107789237D01*
X152116474Y-107894499D01*
X152106745Y-107896334D01*
X151642603Y-107964789D01*
X151632757Y-107965841D01*
X151164658Y-107997044D01*
X151154760Y-107997308D01*
X150685647Y-107991062D01*
X150675760Y-107990535D01*
X150208648Y-107946882D01*
X150198834Y-107945568D01*
X149736688Y-107864784D01*
X149727011Y-107862691D01*
X149272784Y-107745292D01*
X149263304Y-107742433D01*
X148956913Y-107636528D01*
X148819906Y-107589171D01*
X148810694Y-107585570D01*
X148653801Y-107516881D01*
X148380910Y-107397408D01*
X148372006Y-107393078D01*
X147958623Y-107171236D01*
X147950092Y-107166209D01*
X147555727Y-106912091D01*
X147547625Y-106906400D01*
X147174785Y-106621621D01*
X147167169Y-106615307D01*
X146818231Y-106301682D01*
X146811154Y-106294790D01*
X146488357Y-105954330D01*
X146481842Y-105946885D01*
X146304506Y-105727097D01*
X146187240Y-105581758D01*
X146181338Y-105573814D01*
X146005681Y-105316524D01*
X145916809Y-105186350D01*
X145911558Y-105177957D01*
X145678792Y-104770631D01*
X145674226Y-104761845D01*
X145474697Y-104337237D01*
X145470847Y-104328115D01*
X145465445Y-104313737D01*
X145305825Y-103888925D01*
X145302722Y-103879541D01*
X145173266Y-103428580D01*
X145170928Y-103419010D01*
X145077862Y-102959135D01*
X145076294Y-102949406D01*
X145020217Y-102483591D01*
X145019428Y-102473726D01*
X145017371Y-102422253D01*
X145000599Y-102002477D01*
X145000550Y-102000005D01*
X148595255Y-102000005D01*
X148614215Y-102301383D01*
X148614216Y-102301390D01*
X148670805Y-102598040D01*
X148764125Y-102885247D01*
X148764127Y-102885252D01*
X148892704Y-103158491D01*
X148892707Y-103158497D01*
X149054516Y-103413469D01*
X149135311Y-103511133D01*
X150063708Y-102582736D01*
X150160967Y-102716602D01*
X150283398Y-102839033D01*
X150417262Y-102936290D01*
X149486564Y-103866987D01*
X149486565Y-103866989D01*
X149711461Y-104030385D01*
X149711479Y-104030397D01*
X149976109Y-104175878D01*
X149976117Y-104175882D01*
X150256889Y-104287047D01*
X150256892Y-104287048D01*
X150549399Y-104362150D01*
X150848995Y-104399999D01*
X150849007Y-104400000D01*
X151150993Y-104400000D01*
X151151004Y-104399999D01*
X151450600Y-104362150D01*
X151743107Y-104287048D01*
X151743110Y-104287047D01*
X152023882Y-104175882D01*
X152023890Y-104175878D01*
X152288520Y-104030397D01*
X152288530Y-104030390D01*
X152513433Y-103866987D01*
X152513434Y-103866987D01*
X151582737Y-102936290D01*
X151716602Y-102839033D01*
X151839033Y-102716602D01*
X151936290Y-102582737D01*
X152864687Y-103511134D01*
X152945486Y-103413464D01*
X153107292Y-103158497D01*
X153107295Y-103158491D01*
X153235872Y-102885252D01*
X153235874Y-102885247D01*
X153329194Y-102598040D01*
X153385783Y-102301390D01*
X153385784Y-102301383D01*
X153404745Y-102000005D01*
X153404745Y-101999994D01*
X153385784Y-101698616D01*
X153385783Y-101698609D01*
X153329194Y-101401959D01*
X153235874Y-101114752D01*
X153235872Y-101114747D01*
X153107295Y-100841508D01*
X153107292Y-100841502D01*
X152945483Y-100586530D01*
X152864686Y-100488864D01*
X151936289Y-101417261D01*
X151839033Y-101283398D01*
X151716602Y-101160967D01*
X151582736Y-101063709D01*
X152513434Y-100133011D01*
X152513433Y-100133009D01*
X152288538Y-99969614D01*
X152288520Y-99969602D01*
X152023890Y-99824121D01*
X152023882Y-99824117D01*
X151743110Y-99712952D01*
X151743107Y-99712951D01*
X151450600Y-99637849D01*
X151151004Y-99600000D01*
X150848995Y-99600000D01*
X150549399Y-99637849D01*
X150256892Y-99712951D01*
X150256889Y-99712952D01*
X149976117Y-99824117D01*
X149976109Y-99824121D01*
X149711476Y-99969604D01*
X149711471Y-99969607D01*
X149486565Y-100133010D01*
X149486564Y-100133011D01*
X150417262Y-101063709D01*
X150283398Y-101160967D01*
X150160967Y-101283398D01*
X150063709Y-101417262D01*
X149135311Y-100488864D01*
X149054520Y-100586525D01*
X149054518Y-100586528D01*
X148892707Y-100841502D01*
X148892704Y-100841508D01*
X148764127Y-101114747D01*
X148764125Y-101114752D01*
X148670805Y-101401959D01*
X148614216Y-101698609D01*
X148614215Y-101698616D01*
X148595255Y-101999994D01*
X148595255Y-102000005D01*
X145000550Y-102000005D01*
X145000500Y-101997526D01*
X145000500Y-101934110D01*
X145000500Y-101934108D01*
X144966392Y-101806814D01*
X144900500Y-101692686D01*
X144807314Y-101599500D01*
X144750250Y-101566554D01*
X144693187Y-101533608D01*
X144629539Y-101516554D01*
X144565892Y-101499500D01*
X29565892Y-101499500D01*
X29434108Y-101499500D01*
X29306812Y-101533608D01*
X29192686Y-101599500D01*
X29192683Y-101599502D01*
X29099502Y-101692683D01*
X29099500Y-101692686D01*
X29033608Y-101806812D01*
X28999500Y-101934108D01*
X28999500Y-101997526D01*
X28999401Y-102002477D01*
X28980571Y-102473726D01*
X28979781Y-102483596D01*
X28923708Y-102949383D01*
X28922133Y-102959158D01*
X28829076Y-103418989D01*
X28826726Y-103428608D01*
X28697281Y-103879529D01*
X28694172Y-103888929D01*
X28529152Y-104328115D01*
X28525302Y-104337237D01*
X28325773Y-104761845D01*
X28321207Y-104770631D01*
X28088441Y-105177957D01*
X28083189Y-105186351D01*
X27818661Y-105573814D01*
X27812756Y-105581762D01*
X27518157Y-105946885D01*
X27511637Y-105954336D01*
X27188845Y-106294790D01*
X27181751Y-106301698D01*
X26832836Y-106615302D01*
X26825214Y-106621621D01*
X26452374Y-106906400D01*
X26444272Y-106912091D01*
X26049907Y-107166209D01*
X26041376Y-107171236D01*
X25627993Y-107393078D01*
X25619089Y-107397408D01*
X25189310Y-107585568D01*
X25180088Y-107589173D01*
X24736695Y-107742433D01*
X24727215Y-107745292D01*
X24272988Y-107862691D01*
X24263311Y-107864784D01*
X23801165Y-107945568D01*
X23791351Y-107946882D01*
X23324239Y-107990535D01*
X23314352Y-107991062D01*
X22845239Y-107997308D01*
X22835341Y-107997044D01*
X22367242Y-107965841D01*
X22357396Y-107964789D01*
X21893254Y-107896334D01*
X21883525Y-107894499D01*
X21426346Y-107789237D01*
X21416793Y-107786632D01*
X20969458Y-107645223D01*
X20960144Y-107641864D01*
X20525529Y-107465221D01*
X20516512Y-107461130D01*
X20097358Y-107250364D01*
X20088697Y-107245566D01*
X19687715Y-107002041D01*
X19679464Y-106996568D01*
X19299180Y-106721819D01*
X19291392Y-106715705D01*
X18934232Y-106411484D01*
X18926957Y-106404767D01*
X18595232Y-106073042D01*
X18588515Y-106065767D01*
X18284294Y-105708607D01*
X18278180Y-105700819D01*
X18003431Y-105320535D01*
X17997958Y-105312284D01*
X17754433Y-104911302D01*
X17749635Y-104902641D01*
X17678838Y-104761845D01*
X17538864Y-104483476D01*
X17534783Y-104474482D01*
X17358135Y-104039855D01*
X17354776Y-104030541D01*
X17354630Y-104030080D01*
X17213362Y-103583190D01*
X17210766Y-103573669D01*
X17105500Y-103116474D01*
X17103665Y-103106745D01*
X17035210Y-102642603D01*
X17034158Y-102632757D01*
X17015547Y-102353553D01*
X17002954Y-102164637D01*
X17002691Y-102154782D01*
X17004752Y-102000005D01*
X20595255Y-102000005D01*
X20614215Y-102301383D01*
X20614216Y-102301390D01*
X20670805Y-102598040D01*
X20764125Y-102885247D01*
X20764127Y-102885252D01*
X20892704Y-103158491D01*
X20892707Y-103158497D01*
X21054516Y-103413469D01*
X21135311Y-103511133D01*
X22063708Y-102582736D01*
X22160967Y-102716602D01*
X22283398Y-102839033D01*
X22417262Y-102936290D01*
X21486564Y-103866987D01*
X21486565Y-103866989D01*
X21711461Y-104030385D01*
X21711479Y-104030397D01*
X21976109Y-104175878D01*
X21976117Y-104175882D01*
X22256889Y-104287047D01*
X22256892Y-104287048D01*
X22549399Y-104362150D01*
X22848995Y-104399999D01*
X22849007Y-104400000D01*
X23150993Y-104400000D01*
X23151004Y-104399999D01*
X23450600Y-104362150D01*
X23743107Y-104287048D01*
X23743110Y-104287047D01*
X24023882Y-104175882D01*
X24023890Y-104175878D01*
X24288520Y-104030397D01*
X24288530Y-104030390D01*
X24513433Y-103866987D01*
X24513434Y-103866987D01*
X23582737Y-102936290D01*
X23716602Y-102839033D01*
X23839033Y-102716602D01*
X23936290Y-102582737D01*
X24864687Y-103511134D01*
X24945486Y-103413464D01*
X25107292Y-103158497D01*
X25107295Y-103158491D01*
X25235872Y-102885252D01*
X25235874Y-102885247D01*
X25329194Y-102598040D01*
X25385783Y-102301390D01*
X25385784Y-102301383D01*
X25404745Y-102000005D01*
X25404745Y-101999994D01*
X25385784Y-101698616D01*
X25385783Y-101698609D01*
X25329194Y-101401959D01*
X25235874Y-101114752D01*
X25235872Y-101114747D01*
X25107295Y-100841508D01*
X25107292Y-100841502D01*
X24945483Y-100586530D01*
X24864686Y-100488864D01*
X23936289Y-101417261D01*
X23839033Y-101283398D01*
X23716602Y-101160967D01*
X23582736Y-101063709D01*
X24513434Y-100133011D01*
X24513433Y-100133009D01*
X24288538Y-99969614D01*
X24288520Y-99969602D01*
X24023890Y-99824121D01*
X24023882Y-99824117D01*
X23743110Y-99712952D01*
X23743107Y-99712951D01*
X23450600Y-99637849D01*
X23151004Y-99600000D01*
X22848995Y-99600000D01*
X22549399Y-99637849D01*
X22256892Y-99712951D01*
X22256889Y-99712952D01*
X21976117Y-99824117D01*
X21976109Y-99824121D01*
X21711476Y-99969604D01*
X21711471Y-99969607D01*
X21486565Y-100133010D01*
X21486564Y-100133011D01*
X22417262Y-101063709D01*
X22283398Y-101160967D01*
X22160967Y-101283398D01*
X22063709Y-101417262D01*
X21135311Y-100488864D01*
X21054520Y-100586525D01*
X21054518Y-100586528D01*
X20892707Y-100841502D01*
X20892704Y-100841508D01*
X20764127Y-101114747D01*
X20764125Y-101114752D01*
X20670805Y-101401959D01*
X20614216Y-101698609D01*
X20614215Y-101698616D01*
X20595255Y-101999994D01*
X20595255Y-102000005D01*
X17004752Y-102000005D01*
X17008937Y-101685645D01*
X17009464Y-101675760D01*
X17053119Y-101208628D01*
X17054428Y-101198854D01*
X17135216Y-100736680D01*
X17137308Y-100727011D01*
X17173617Y-100586530D01*
X17254712Y-100272767D01*
X17257560Y-100263321D01*
X17410836Y-99819884D01*
X17414420Y-99810715D01*
X17602596Y-99380898D01*
X17606914Y-99372018D01*
X17828774Y-98958602D01*
X17833778Y-98950111D01*
X18087918Y-98555712D01*
X18093588Y-98547639D01*
X18378383Y-98174777D01*
X18384679Y-98167184D01*
X18698329Y-97818218D01*
X18705192Y-97811170D01*
X19045681Y-97488345D01*
X19053096Y-97481857D01*
X19418252Y-97187231D01*
X19426168Y-97181350D01*
X19813660Y-96916802D01*
X19822030Y-96911565D01*
X20229383Y-96678783D01*
X20238139Y-96674233D01*
X20637493Y-96486571D01*
X52900000Y-96486571D01*
X52927085Y-96657582D01*
X52942235Y-96704211D01*
X53600000Y-96046446D01*
X53600000Y-96052661D01*
X53627259Y-96154394D01*
X53679920Y-96245606D01*
X53754394Y-96320080D01*
X53845606Y-96372741D01*
X53947339Y-96400000D01*
X53953553Y-96400000D01*
X53198959Y-97154594D01*
X53283397Y-97239032D01*
X53423475Y-97340804D01*
X53577742Y-97419408D01*
X53742415Y-97472914D01*
X53913429Y-97500000D01*
X54086571Y-97500000D01*
X54257584Y-97472914D01*
X54422257Y-97419408D01*
X54576524Y-97340804D01*
X54716602Y-97239032D01*
X54801041Y-97154594D01*
X54046447Y-96400000D01*
X54052661Y-96400000D01*
X54154394Y-96372741D01*
X54245606Y-96320080D01*
X54320080Y-96245606D01*
X54372741Y-96154394D01*
X54400000Y-96052661D01*
X54400000Y-96046447D01*
X55057764Y-96704211D01*
X55072913Y-96657588D01*
X55072913Y-96657585D01*
X55099994Y-96486610D01*
X56399500Y-96486610D01*
X56426579Y-96657585D01*
X56426598Y-96657701D01*
X56480127Y-96822445D01*
X56558768Y-96976788D01*
X56660586Y-97116928D01*
X56783072Y-97239414D01*
X56923212Y-97341232D01*
X57077555Y-97419873D01*
X57242299Y-97473402D01*
X57413389Y-97500500D01*
X57413390Y-97500500D01*
X57586610Y-97500500D01*
X57586611Y-97500500D01*
X57757701Y-97473402D01*
X57922445Y-97419873D01*
X58076788Y-97341232D01*
X58216928Y-97239414D01*
X58339414Y-97116928D01*
X58441232Y-96976788D01*
X58519873Y-96822445D01*
X58573402Y-96657701D01*
X58600500Y-96486611D01*
X58600500Y-95513389D01*
X58573402Y-95342299D01*
X58519873Y-95177555D01*
X58441232Y-95023212D01*
X58339414Y-94883072D01*
X58216928Y-94760586D01*
X58076788Y-94658768D01*
X57922445Y-94580127D01*
X57757701Y-94526598D01*
X57757699Y-94526597D01*
X57757698Y-94526597D01*
X57626271Y-94505781D01*
X57586611Y-94499500D01*
X57413389Y-94499500D01*
X57373728Y-94505781D01*
X57242302Y-94526597D01*
X57077552Y-94580128D01*
X56923211Y-94658768D01*
X56843256Y-94716859D01*
X56783072Y-94760586D01*
X56783070Y-94760588D01*
X56783069Y-94760588D01*
X56660588Y-94883069D01*
X56660588Y-94883070D01*
X56660586Y-94883072D01*
X56616859Y-94943256D01*
X56558768Y-95023211D01*
X56480128Y-95177552D01*
X56426597Y-95342302D01*
X56399500Y-95513389D01*
X56399500Y-96486610D01*
X55099994Y-96486610D01*
X55100000Y-96486571D01*
X55100000Y-95513428D01*
X55072913Y-95342414D01*
X55057763Y-95295788D01*
X54400000Y-95953551D01*
X54400000Y-95947339D01*
X54372741Y-95845606D01*
X54320080Y-95754394D01*
X54245606Y-95679920D01*
X54154394Y-95627259D01*
X54052661Y-95600000D01*
X54046447Y-95600000D01*
X54801041Y-94845406D01*
X54716602Y-94760967D01*
X54576524Y-94659195D01*
X54422257Y-94580591D01*
X54257584Y-94527085D01*
X54086571Y-94500000D01*
X53913429Y-94500000D01*
X53742415Y-94527085D01*
X53577742Y-94580591D01*
X53423475Y-94659195D01*
X53283397Y-94760967D01*
X53198959Y-94845406D01*
X53953553Y-95600000D01*
X53947339Y-95600000D01*
X53845606Y-95627259D01*
X53754394Y-95679920D01*
X53679920Y-95754394D01*
X53627259Y-95845606D01*
X53600000Y-95947339D01*
X53600000Y-95953552D01*
X52942235Y-95295787D01*
X52927087Y-95342411D01*
X52927084Y-95342423D01*
X52900000Y-95513428D01*
X52900000Y-96486571D01*
X20637493Y-96486571D01*
X20662772Y-96474692D01*
X20671874Y-96470851D01*
X21111082Y-96305822D01*
X21120450Y-96302724D01*
X21571424Y-96173264D01*
X21580983Y-96170929D01*
X22040868Y-96077861D01*
X22050589Y-96076295D01*
X22516410Y-96020217D01*
X22526267Y-96019428D01*
X22997522Y-96000598D01*
X23002473Y-96000500D01*
X23065890Y-96000500D01*
X23065892Y-96000500D01*
X23193186Y-95966392D01*
X23307314Y-95900500D01*
X23400500Y-95807314D01*
X23466392Y-95693186D01*
X23500500Y-95565892D01*
X23500500Y-95434108D01*
X23500500Y-79750003D01*
X69444435Y-79750003D01*
X69464630Y-79929249D01*
X69464631Y-79929254D01*
X69524211Y-80099523D01*
X69620184Y-80252262D01*
X69747738Y-80379816D01*
X69900478Y-80475789D01*
X69906754Y-80478811D01*
X69905867Y-80480651D01*
X69941940Y-80503307D01*
X75496692Y-86058059D01*
X75519358Y-86094125D01*
X75521188Y-86093244D01*
X75524209Y-86099518D01*
X75524211Y-86099522D01*
X75620184Y-86252262D01*
X75747738Y-86379816D01*
X75900478Y-86475789D01*
X76070745Y-86535368D01*
X76070750Y-86535369D01*
X76249996Y-86555565D01*
X76250000Y-86555565D01*
X76250004Y-86555565D01*
X76429249Y-86535369D01*
X76429252Y-86535368D01*
X76429255Y-86535368D01*
X76599522Y-86475789D01*
X76752262Y-86379816D01*
X76879816Y-86252262D01*
X76975789Y-86099522D01*
X77035368Y-85929255D01*
X77055565Y-85750000D01*
X77035368Y-85570745D01*
X76975789Y-85400478D01*
X76879816Y-85247738D01*
X76752262Y-85120184D01*
X76599522Y-85024211D01*
X76599518Y-85024209D01*
X76593244Y-85021188D01*
X76594125Y-85019358D01*
X76558059Y-84996692D01*
X71003307Y-79441940D01*
X70980651Y-79405867D01*
X70978811Y-79406754D01*
X70975789Y-79400478D01*
X70879815Y-79247737D01*
X70752262Y-79120184D01*
X70599523Y-79024211D01*
X70429254Y-78964631D01*
X70429249Y-78964630D01*
X70250004Y-78944435D01*
X70249996Y-78944435D01*
X70070750Y-78964630D01*
X70070745Y-78964631D01*
X69900476Y-79024211D01*
X69747737Y-79120184D01*
X69620184Y-79247737D01*
X69524211Y-79400476D01*
X69464631Y-79570745D01*
X69464630Y-79570750D01*
X69444435Y-79749996D01*
X69444435Y-79750003D01*
X23500500Y-79750003D01*
X23500500Y-77120001D01*
X101444532Y-77120001D01*
X101464364Y-77346686D01*
X101464366Y-77346697D01*
X101523258Y-77566488D01*
X101523261Y-77566497D01*
X101619431Y-77772732D01*
X101619432Y-77772734D01*
X101749954Y-77959141D01*
X101910858Y-78120045D01*
X101910861Y-78120047D01*
X102097266Y-78250568D01*
X102303504Y-78346739D01*
X102523308Y-78405635D01*
X102685230Y-78419801D01*
X102749998Y-78425468D01*
X102750000Y-78425468D01*
X102750002Y-78425468D01*
X102806673Y-78420509D01*
X102976692Y-78405635D01*
X103196496Y-78346739D01*
X103402734Y-78250568D01*
X103589139Y-78120047D01*
X103750047Y-77959139D01*
X103880568Y-77772734D01*
X103976739Y-77566496D01*
X104035635Y-77346692D01*
X104055468Y-77120001D01*
X109064532Y-77120001D01*
X109084364Y-77346686D01*
X109084366Y-77346697D01*
X109143258Y-77566488D01*
X109143261Y-77566497D01*
X109239431Y-77772732D01*
X109239432Y-77772734D01*
X109369954Y-77959141D01*
X109530858Y-78120045D01*
X109530861Y-78120047D01*
X109717266Y-78250568D01*
X109923504Y-78346739D01*
X110143308Y-78405635D01*
X110305230Y-78419801D01*
X110369998Y-78425468D01*
X110370000Y-78425468D01*
X110370002Y-78425468D01*
X110426673Y-78420509D01*
X110596692Y-78405635D01*
X110816496Y-78346739D01*
X111022734Y-78250568D01*
X111209139Y-78120047D01*
X111370047Y-77959139D01*
X111500568Y-77772734D01*
X111596739Y-77566496D01*
X111655635Y-77346692D01*
X111675468Y-77120000D01*
X111655635Y-76893308D01*
X111596739Y-76673504D01*
X111500568Y-76467266D01*
X111370047Y-76280861D01*
X111370045Y-76280858D01*
X111209141Y-76119954D01*
X111022734Y-75989432D01*
X111022728Y-75989429D01*
X110964725Y-75962382D01*
X110912285Y-75916210D01*
X110893133Y-75849017D01*
X110913348Y-75782135D01*
X110964725Y-75737618D01*
X111022734Y-75710568D01*
X111209139Y-75580047D01*
X111370047Y-75419139D01*
X111500568Y-75232734D01*
X111596739Y-75026496D01*
X111655635Y-74806692D01*
X111675090Y-74584317D01*
X111675468Y-74580001D01*
X111675468Y-74579998D01*
X111655635Y-74353313D01*
X111655635Y-74353308D01*
X111596739Y-74133504D01*
X111500568Y-73927266D01*
X111370047Y-73740861D01*
X111370045Y-73740858D01*
X111209141Y-73579954D01*
X111022734Y-73449432D01*
X111022728Y-73449429D01*
X110964725Y-73422382D01*
X110912285Y-73376210D01*
X110893133Y-73309017D01*
X110913348Y-73242135D01*
X110964725Y-73197618D01*
X110968390Y-73195909D01*
X111022734Y-73170568D01*
X111209139Y-73040047D01*
X111370047Y-72879139D01*
X111500568Y-72692734D01*
X111596739Y-72486496D01*
X111655635Y-72266692D01*
X111675468Y-72040000D01*
X111655635Y-71813308D01*
X111596739Y-71593504D01*
X111500568Y-71387266D01*
X111370047Y-71200861D01*
X111370045Y-71200858D01*
X111209141Y-71039954D01*
X111022734Y-70909432D01*
X111022728Y-70909429D01*
X110964725Y-70882382D01*
X110912285Y-70836210D01*
X110893133Y-70769017D01*
X110913348Y-70702135D01*
X110964725Y-70657618D01*
X111022734Y-70630568D01*
X111209139Y-70500047D01*
X111370047Y-70339139D01*
X111500568Y-70152734D01*
X111596739Y-69946496D01*
X111655635Y-69726692D01*
X111675468Y-69500000D01*
X111655635Y-69273308D01*
X111596739Y-69053504D01*
X111500568Y-68847266D01*
X111370047Y-68660861D01*
X111370045Y-68660858D01*
X111209141Y-68499954D01*
X111022734Y-68369432D01*
X111022728Y-68369429D01*
X110964725Y-68342382D01*
X110912285Y-68296210D01*
X110893133Y-68229017D01*
X110913348Y-68162135D01*
X110964725Y-68117618D01*
X110965319Y-68117341D01*
X111022734Y-68090568D01*
X111209139Y-67960047D01*
X111370047Y-67799139D01*
X111500568Y-67612734D01*
X111596739Y-67406496D01*
X111655635Y-67186692D01*
X111675468Y-66960000D01*
X111655635Y-66733308D01*
X111596739Y-66513504D01*
X111500568Y-66307266D01*
X111370047Y-66120861D01*
X111370045Y-66120858D01*
X111209141Y-65959954D01*
X111022734Y-65829432D01*
X111022728Y-65829429D01*
X110964725Y-65802382D01*
X110912285Y-65756210D01*
X110893133Y-65689017D01*
X110913348Y-65622135D01*
X110964725Y-65577618D01*
X111022734Y-65550568D01*
X111209139Y-65420047D01*
X111370047Y-65259139D01*
X111500568Y-65072734D01*
X111596739Y-64866496D01*
X111655635Y-64646692D01*
X111675468Y-64420000D01*
X111655635Y-64193308D01*
X111603840Y-64000003D01*
X125694435Y-64000003D01*
X125714630Y-64179249D01*
X125714631Y-64179254D01*
X125774211Y-64349523D01*
X125818494Y-64419998D01*
X125870184Y-64502262D01*
X125997738Y-64629816D01*
X126150478Y-64725789D01*
X126295390Y-64776496D01*
X126320745Y-64785368D01*
X126320750Y-64785369D01*
X126499996Y-64805565D01*
X126500000Y-64805565D01*
X126500004Y-64805565D01*
X126679249Y-64785369D01*
X126679252Y-64785368D01*
X126679255Y-64785368D01*
X126849522Y-64725789D01*
X127002262Y-64629816D01*
X127002267Y-64629810D01*
X127005097Y-64627555D01*
X127007275Y-64626665D01*
X127008158Y-64626111D01*
X127008255Y-64626265D01*
X127069783Y-64601145D01*
X127082412Y-64600500D01*
X127667209Y-64600500D01*
X127734248Y-64620185D01*
X127780003Y-64672989D01*
X127783391Y-64681167D01*
X127806202Y-64742328D01*
X127806206Y-64742335D01*
X127892452Y-64857544D01*
X127892455Y-64857547D01*
X128007664Y-64943793D01*
X128007671Y-64943797D01*
X128142517Y-64994091D01*
X128142516Y-64994091D01*
X128149444Y-64994835D01*
X128202127Y-65000500D01*
X129797872Y-65000499D01*
X129857483Y-64994091D01*
X129992331Y-64943796D01*
X130107546Y-64857546D01*
X130193796Y-64742331D01*
X130244091Y-64607483D01*
X130250500Y-64547873D01*
X130250499Y-63452128D01*
X130248954Y-63437752D01*
X130261361Y-63368993D01*
X130308973Y-63317857D01*
X130372244Y-63300500D01*
X130617060Y-63300500D01*
X130684099Y-63320185D01*
X130704741Y-63336819D01*
X130747738Y-63379816D01*
X130900478Y-63475789D01*
X130963202Y-63497737D01*
X131070745Y-63535368D01*
X131070750Y-63535369D01*
X131249996Y-63555565D01*
X131250000Y-63555565D01*
X131250004Y-63555565D01*
X131429249Y-63535369D01*
X131429252Y-63535368D01*
X131429255Y-63535368D01*
X131599522Y-63475789D01*
X131752262Y-63379816D01*
X131879816Y-63252262D01*
X131975789Y-63099522D01*
X132035368Y-62929255D01*
X132036347Y-62920567D01*
X132055565Y-62750003D01*
X132055565Y-62749996D01*
X132035369Y-62570750D01*
X132035368Y-62570745D01*
X131975788Y-62400476D01*
X131879815Y-62247737D01*
X131752262Y-62120184D01*
X131599523Y-62024211D01*
X131429254Y-61964631D01*
X131429249Y-61964630D01*
X131250004Y-61944435D01*
X131249996Y-61944435D01*
X131070750Y-61964630D01*
X131070737Y-61964633D01*
X130900481Y-62024209D01*
X130900477Y-62024210D01*
X130810904Y-62080494D01*
X130744932Y-62099500D01*
X130332791Y-62099500D01*
X130265752Y-62079815D01*
X130219997Y-62027011D01*
X130216609Y-62018833D01*
X130193797Y-61957671D01*
X130193793Y-61957664D01*
X130107547Y-61842455D01*
X130107544Y-61842452D01*
X129992335Y-61756206D01*
X129992328Y-61756202D01*
X129857482Y-61705908D01*
X129857483Y-61705908D01*
X129797883Y-61699501D01*
X129797881Y-61699500D01*
X129797873Y-61699500D01*
X129797864Y-61699500D01*
X128202129Y-61699500D01*
X128202123Y-61699501D01*
X128142516Y-61705908D01*
X128007671Y-61756202D01*
X128007664Y-61756206D01*
X127892455Y-61842452D01*
X127892452Y-61842455D01*
X127806206Y-61957664D01*
X127806202Y-61957671D01*
X127755908Y-62092517D01*
X127749501Y-62152116D01*
X127749500Y-62152135D01*
X127749500Y-63247870D01*
X127749501Y-63247879D01*
X127751046Y-63262248D01*
X127738639Y-63331007D01*
X127691027Y-63382143D01*
X127627756Y-63399500D01*
X127082412Y-63399500D01*
X127015373Y-63379815D01*
X127005097Y-63372445D01*
X127002263Y-63370185D01*
X127002262Y-63370184D01*
X126918984Y-63317857D01*
X126849523Y-63274211D01*
X126679254Y-63214631D01*
X126679249Y-63214630D01*
X126500004Y-63194435D01*
X126499996Y-63194435D01*
X126320750Y-63214630D01*
X126320745Y-63214631D01*
X126150476Y-63274211D01*
X125997737Y-63370184D01*
X125870184Y-63497737D01*
X125774211Y-63650476D01*
X125714631Y-63820745D01*
X125714630Y-63820750D01*
X125694435Y-63999996D01*
X125694435Y-64000003D01*
X111603840Y-64000003D01*
X111603839Y-64000000D01*
X111596741Y-63973511D01*
X111596738Y-63973502D01*
X111554770Y-63883502D01*
X111500568Y-63767266D01*
X111371661Y-63583166D01*
X111370045Y-63580858D01*
X111209141Y-63419954D01*
X111022734Y-63289432D01*
X111022728Y-63289429D01*
X110964725Y-63262382D01*
X110912285Y-63216210D01*
X110893133Y-63149017D01*
X110913348Y-63082135D01*
X110964725Y-63037618D01*
X110969411Y-63035433D01*
X111022734Y-63010568D01*
X111209139Y-62880047D01*
X111370047Y-62719139D01*
X111500568Y-62532734D01*
X111596739Y-62326496D01*
X111655635Y-62106692D01*
X111675468Y-61880000D01*
X111655635Y-61653308D01*
X111596739Y-61433504D01*
X111500568Y-61227266D01*
X111370047Y-61040861D01*
X111370045Y-61040858D01*
X111209141Y-60879954D01*
X111022734Y-60749432D01*
X111022728Y-60749429D01*
X110964725Y-60722382D01*
X110912285Y-60676210D01*
X110893133Y-60609017D01*
X110911615Y-60547870D01*
X112749500Y-60547870D01*
X112749501Y-60547876D01*
X112755908Y-60607483D01*
X112806202Y-60742328D01*
X112806206Y-60742335D01*
X112892452Y-60857544D01*
X112892455Y-60857547D01*
X113007664Y-60943793D01*
X113007671Y-60943797D01*
X113026603Y-60950858D01*
X113142517Y-60994091D01*
X113202127Y-61000500D01*
X113275500Y-61000499D01*
X113342538Y-61020183D01*
X113388294Y-61072986D01*
X113399500Y-61124499D01*
X113399500Y-61247587D01*
X113379815Y-61314626D01*
X113372450Y-61324896D01*
X113370186Y-61327734D01*
X113274211Y-61480476D01*
X113214631Y-61650745D01*
X113214630Y-61650750D01*
X113194435Y-61829996D01*
X113194435Y-61830003D01*
X113214630Y-62009249D01*
X113214631Y-62009254D01*
X113274211Y-62179523D01*
X113317073Y-62247737D01*
X113370184Y-62332262D01*
X113497738Y-62459816D01*
X113650478Y-62555789D01*
X113820745Y-62615368D01*
X113820750Y-62615369D01*
X113999996Y-62635565D01*
X114000000Y-62635565D01*
X114000004Y-62635565D01*
X114179249Y-62615369D01*
X114179252Y-62615368D01*
X114179255Y-62615368D01*
X114349522Y-62555789D01*
X114502262Y-62459816D01*
X114629816Y-62332262D01*
X114725789Y-62179522D01*
X114785368Y-62009255D01*
X114791180Y-61957671D01*
X114805565Y-61830003D01*
X114805565Y-61829996D01*
X114785369Y-61650750D01*
X114785368Y-61650745D01*
X114725788Y-61480476D01*
X114692645Y-61427730D01*
X114629816Y-61327738D01*
X114629814Y-61327736D01*
X114629813Y-61327734D01*
X114627550Y-61324896D01*
X114626659Y-61322715D01*
X114626111Y-61321842D01*
X114626264Y-61321745D01*
X114601144Y-61260209D01*
X114600500Y-61247587D01*
X114600500Y-61124499D01*
X114620185Y-61057460D01*
X114672989Y-61011705D01*
X114724500Y-61000499D01*
X114797871Y-61000499D01*
X114797872Y-61000499D01*
X114857483Y-60994091D01*
X114992331Y-60943796D01*
X115107546Y-60857546D01*
X115193796Y-60742331D01*
X115244091Y-60607483D01*
X115250500Y-60547873D01*
X115250499Y-59452128D01*
X115244091Y-59392517D01*
X115244090Y-59392515D01*
X115244090Y-59392512D01*
X115242308Y-59384969D01*
X115243773Y-59384622D01*
X115239409Y-59323651D01*
X115243819Y-59308633D01*
X115244089Y-59307488D01*
X115244091Y-59307483D01*
X115250500Y-59247873D01*
X115250499Y-58152128D01*
X115244091Y-58092517D01*
X115219557Y-58026739D01*
X115193797Y-57957671D01*
X115193793Y-57957664D01*
X115107547Y-57842455D01*
X115107544Y-57842452D01*
X114992335Y-57756206D01*
X114992328Y-57756202D01*
X114857482Y-57705908D01*
X114857483Y-57705908D01*
X114797883Y-57699501D01*
X114797881Y-57699500D01*
X114797873Y-57699500D01*
X114797865Y-57699500D01*
X114724500Y-57699500D01*
X114657461Y-57679815D01*
X114611706Y-57627011D01*
X114600500Y-57575500D01*
X114600500Y-57332412D01*
X114620185Y-57265373D01*
X114627555Y-57255097D01*
X114629810Y-57252267D01*
X114629816Y-57252262D01*
X114725789Y-57099522D01*
X114785368Y-56929255D01*
X114799931Y-56800003D01*
X114805565Y-56750003D01*
X114805565Y-56749996D01*
X114785369Y-56570750D01*
X114785368Y-56570745D01*
X114725788Y-56400476D01*
X114661233Y-56297738D01*
X114629816Y-56247738D01*
X114502262Y-56120184D01*
X114349523Y-56024211D01*
X114179254Y-55964631D01*
X114179249Y-55964630D01*
X114000004Y-55944435D01*
X113999996Y-55944435D01*
X113820750Y-55964630D01*
X113820745Y-55964631D01*
X113650476Y-56024211D01*
X113497737Y-56120184D01*
X113370184Y-56247737D01*
X113274211Y-56400476D01*
X113214631Y-56570745D01*
X113214630Y-56570750D01*
X113194435Y-56749996D01*
X113194435Y-56750003D01*
X113214630Y-56929249D01*
X113214631Y-56929254D01*
X113274211Y-57099523D01*
X113370185Y-57252263D01*
X113372445Y-57255097D01*
X113373334Y-57257275D01*
X113373889Y-57258158D01*
X113373734Y-57258255D01*
X113398855Y-57319783D01*
X113399500Y-57332412D01*
X113399500Y-57575500D01*
X113379815Y-57642539D01*
X113327011Y-57688294D01*
X113275502Y-57699500D01*
X113202130Y-57699500D01*
X113202123Y-57699501D01*
X113142516Y-57705908D01*
X113007671Y-57756202D01*
X113007664Y-57756206D01*
X112892455Y-57842452D01*
X112892452Y-57842455D01*
X112806206Y-57957664D01*
X112806202Y-57957671D01*
X112755908Y-58092517D01*
X112753015Y-58119431D01*
X112749501Y-58152123D01*
X112749500Y-58152135D01*
X112749500Y-59247870D01*
X112749501Y-59247876D01*
X112755908Y-59307479D01*
X112757692Y-59315026D01*
X112756229Y-59315371D01*
X112760585Y-59376371D01*
X112756173Y-59391396D01*
X112755908Y-59392517D01*
X112749501Y-59452116D01*
X112749501Y-59452123D01*
X112749500Y-59452135D01*
X112749500Y-60547870D01*
X110911615Y-60547870D01*
X110913348Y-60542135D01*
X110964725Y-60497618D01*
X111022734Y-60470568D01*
X111209139Y-60340047D01*
X111370047Y-60179139D01*
X111500568Y-59992734D01*
X111596739Y-59786496D01*
X111655635Y-59566692D01*
X111675468Y-59340000D01*
X111655635Y-59113308D01*
X111596739Y-58893504D01*
X111500568Y-58687266D01*
X111370047Y-58500861D01*
X111370045Y-58500858D01*
X111209141Y-58339954D01*
X111022734Y-58209432D01*
X111022728Y-58209429D01*
X110964725Y-58182382D01*
X110912285Y-58136210D01*
X110893133Y-58069017D01*
X110913348Y-58002135D01*
X110964725Y-57957618D01*
X111022734Y-57930568D01*
X111209139Y-57800047D01*
X111370047Y-57639139D01*
X111500568Y-57452734D01*
X111596739Y-57246496D01*
X111655635Y-57026692D01*
X111675468Y-56800000D01*
X111655635Y-56573308D01*
X111596739Y-56353504D01*
X111500568Y-56147266D01*
X111402839Y-56007693D01*
X111370045Y-55960858D01*
X111209141Y-55799954D01*
X111022734Y-55669432D01*
X111022728Y-55669429D01*
X110964725Y-55642382D01*
X110912285Y-55596210D01*
X110893133Y-55529017D01*
X110913348Y-55462135D01*
X110964725Y-55417618D01*
X111022734Y-55390568D01*
X111083714Y-55347870D01*
X118249500Y-55347870D01*
X118249501Y-55347876D01*
X118255908Y-55407483D01*
X118306202Y-55542328D01*
X118306206Y-55542335D01*
X118392452Y-55657544D01*
X118392455Y-55657547D01*
X118507664Y-55743793D01*
X118507671Y-55743797D01*
X118552618Y-55760561D01*
X118642517Y-55794091D01*
X118702127Y-55800500D01*
X118775500Y-55800499D01*
X118842538Y-55820183D01*
X118888294Y-55872986D01*
X118899500Y-55924499D01*
X118899500Y-56217587D01*
X118879815Y-56284626D01*
X118872450Y-56294896D01*
X118870186Y-56297734D01*
X118774211Y-56450476D01*
X118714631Y-56620745D01*
X118714630Y-56620750D01*
X118694435Y-56799996D01*
X118694435Y-56800003D01*
X118714630Y-56979249D01*
X118714631Y-56979254D01*
X118774211Y-57149523D01*
X118847005Y-57265373D01*
X118870184Y-57302262D01*
X118997738Y-57429816D01*
X119150478Y-57525789D01*
X119292544Y-57575500D01*
X119320745Y-57585368D01*
X119320750Y-57585369D01*
X119499996Y-57605565D01*
X119500000Y-57605565D01*
X119500004Y-57605565D01*
X119679249Y-57585369D01*
X119679252Y-57585368D01*
X119679255Y-57585368D01*
X119849522Y-57525789D01*
X120002262Y-57429816D01*
X120129816Y-57302262D01*
X120225789Y-57149522D01*
X120285368Y-56979255D01*
X120290164Y-56936692D01*
X120305565Y-56800003D01*
X120305565Y-56799996D01*
X120285369Y-56620750D01*
X120285368Y-56620745D01*
X120237278Y-56483313D01*
X120225789Y-56450478D01*
X120129816Y-56297738D01*
X120129814Y-56297736D01*
X120129813Y-56297734D01*
X120127550Y-56294896D01*
X120126659Y-56292715D01*
X120126111Y-56291842D01*
X120126264Y-56291745D01*
X120101144Y-56230209D01*
X120100500Y-56217587D01*
X120100500Y-55924499D01*
X120120185Y-55857460D01*
X120172989Y-55811705D01*
X120224500Y-55800499D01*
X120297871Y-55800499D01*
X120297872Y-55800499D01*
X120357483Y-55794091D01*
X120492331Y-55743796D01*
X120607546Y-55657546D01*
X120693796Y-55542331D01*
X120744091Y-55407483D01*
X120750500Y-55347873D01*
X120750499Y-54252128D01*
X120744091Y-54192517D01*
X120744090Y-54192515D01*
X120744090Y-54192512D01*
X120742308Y-54184969D01*
X120743773Y-54184622D01*
X120739409Y-54123651D01*
X120743819Y-54108633D01*
X120744089Y-54107488D01*
X120744091Y-54107483D01*
X120750500Y-54047873D01*
X120750499Y-53047870D01*
X124249500Y-53047870D01*
X124249501Y-53047876D01*
X124255908Y-53107483D01*
X124306202Y-53242328D01*
X124306206Y-53242335D01*
X124392452Y-53357544D01*
X124392455Y-53357547D01*
X124507664Y-53443793D01*
X124507671Y-53443797D01*
X124552618Y-53460561D01*
X124642517Y-53494091D01*
X124702127Y-53500500D01*
X124775500Y-53500499D01*
X124842538Y-53520183D01*
X124888294Y-53572986D01*
X124899500Y-53624499D01*
X124899500Y-53667587D01*
X124879815Y-53734626D01*
X124872450Y-53744896D01*
X124870186Y-53747734D01*
X124774211Y-53900476D01*
X124714631Y-54070745D01*
X124714630Y-54070750D01*
X124694435Y-54249996D01*
X124694435Y-54250003D01*
X124714630Y-54429249D01*
X124714631Y-54429254D01*
X124774211Y-54599523D01*
X124784871Y-54616488D01*
X124870184Y-54752262D01*
X124997738Y-54879816D01*
X125150478Y-54975789D01*
X125245787Y-55009139D01*
X125320745Y-55035368D01*
X125320750Y-55035369D01*
X125499996Y-55055565D01*
X125500000Y-55055565D01*
X125500004Y-55055565D01*
X125679249Y-55035369D01*
X125679252Y-55035368D01*
X125679255Y-55035368D01*
X125849522Y-54975789D01*
X126002262Y-54879816D01*
X126129816Y-54752262D01*
X126225789Y-54599522D01*
X126285368Y-54429255D01*
X126285369Y-54429249D01*
X126305565Y-54250003D01*
X126305565Y-54249996D01*
X126285369Y-54070750D01*
X126285368Y-54070745D01*
X126272266Y-54033302D01*
X126225789Y-53900478D01*
X126129816Y-53747738D01*
X126129814Y-53747736D01*
X126129813Y-53747734D01*
X126127550Y-53744896D01*
X126126659Y-53742715D01*
X126126111Y-53741842D01*
X126126264Y-53741745D01*
X126101144Y-53680209D01*
X126100500Y-53667587D01*
X126100500Y-53624499D01*
X126120185Y-53557460D01*
X126172989Y-53511705D01*
X126224500Y-53500499D01*
X126297871Y-53500499D01*
X126297872Y-53500499D01*
X126357483Y-53494091D01*
X126492331Y-53443796D01*
X126607546Y-53357546D01*
X126693796Y-53242331D01*
X126744091Y-53107483D01*
X126750500Y-53047873D01*
X126750499Y-51952128D01*
X126744091Y-51892517D01*
X126744090Y-51892515D01*
X126744090Y-51892512D01*
X126742308Y-51884969D01*
X126743773Y-51884622D01*
X126739409Y-51823651D01*
X126743819Y-51808633D01*
X126744089Y-51807488D01*
X126744091Y-51807483D01*
X126750500Y-51747873D01*
X126750499Y-50652128D01*
X126744091Y-50592517D01*
X126742940Y-50589432D01*
X126693797Y-50457671D01*
X126693793Y-50457664D01*
X126607547Y-50342455D01*
X126607544Y-50342452D01*
X126492335Y-50256206D01*
X126492328Y-50256202D01*
X126357482Y-50205908D01*
X126357483Y-50205908D01*
X126297883Y-50199501D01*
X126297881Y-50199500D01*
X126297873Y-50199500D01*
X126297865Y-50199500D01*
X126224500Y-50199500D01*
X126157461Y-50179815D01*
X126111706Y-50127011D01*
X126100500Y-50075500D01*
X126100500Y-49782412D01*
X126120185Y-49715373D01*
X126127555Y-49705097D01*
X126129810Y-49702267D01*
X126129816Y-49702262D01*
X126225789Y-49549522D01*
X126285368Y-49379255D01*
X126305565Y-49200000D01*
X126303311Y-49179998D01*
X126285369Y-49020750D01*
X126285368Y-49020745D01*
X126264980Y-48962479D01*
X126225789Y-48850478D01*
X126129816Y-48697738D01*
X126002262Y-48570184D01*
X125849523Y-48474211D01*
X125679254Y-48414631D01*
X125679249Y-48414630D01*
X125500004Y-48394435D01*
X125499996Y-48394435D01*
X125320750Y-48414630D01*
X125320745Y-48414631D01*
X125150476Y-48474211D01*
X124997737Y-48570184D01*
X124870184Y-48697737D01*
X124774211Y-48850476D01*
X124714631Y-49020745D01*
X124714630Y-49020750D01*
X124694435Y-49199996D01*
X124694435Y-49200003D01*
X124714630Y-49379249D01*
X124714631Y-49379254D01*
X124774211Y-49549523D01*
X124870185Y-49702263D01*
X124872445Y-49705097D01*
X124873334Y-49707275D01*
X124873889Y-49708158D01*
X124873734Y-49708255D01*
X124898855Y-49769783D01*
X124899500Y-49782412D01*
X124899500Y-50075500D01*
X124879815Y-50142539D01*
X124827011Y-50188294D01*
X124775502Y-50199500D01*
X124702130Y-50199500D01*
X124702123Y-50199501D01*
X124642516Y-50205908D01*
X124507671Y-50256202D01*
X124507664Y-50256206D01*
X124392455Y-50342452D01*
X124392452Y-50342455D01*
X124306206Y-50457664D01*
X124306202Y-50457671D01*
X124255908Y-50592517D01*
X124249826Y-50649091D01*
X124249501Y-50652123D01*
X124249500Y-50652135D01*
X124249500Y-51747870D01*
X124249501Y-51747876D01*
X124255908Y-51807479D01*
X124257692Y-51815026D01*
X124256229Y-51815371D01*
X124260585Y-51876371D01*
X124256173Y-51891396D01*
X124255908Y-51892517D01*
X124250085Y-51946686D01*
X124249501Y-51952123D01*
X124249500Y-51952135D01*
X124249500Y-53047870D01*
X120750499Y-53047870D01*
X120750499Y-52952128D01*
X120744091Y-52892517D01*
X120704966Y-52787618D01*
X120693797Y-52757671D01*
X120693793Y-52757664D01*
X120607547Y-52642455D01*
X120607544Y-52642452D01*
X120492335Y-52556206D01*
X120492328Y-52556202D01*
X120357482Y-52505908D01*
X120357483Y-52505908D01*
X120297883Y-52499501D01*
X120297881Y-52499500D01*
X120297873Y-52499500D01*
X120297865Y-52499500D01*
X120224500Y-52499500D01*
X120157461Y-52479815D01*
X120111706Y-52427011D01*
X120100500Y-52375500D01*
X120100500Y-52302412D01*
X120120185Y-52235373D01*
X120127555Y-52225097D01*
X120129810Y-52222267D01*
X120129816Y-52222262D01*
X120225789Y-52069522D01*
X120285368Y-51899255D01*
X120285369Y-51899249D01*
X120305565Y-51720003D01*
X120305565Y-51719996D01*
X120285369Y-51540750D01*
X120285368Y-51540745D01*
X120237278Y-51403313D01*
X120225789Y-51370478D01*
X120129816Y-51217738D01*
X120002262Y-51090184D01*
X119965787Y-51067265D01*
X119849523Y-50994211D01*
X119679254Y-50934631D01*
X119679249Y-50934630D01*
X119500004Y-50914435D01*
X119499996Y-50914435D01*
X119320750Y-50934630D01*
X119320745Y-50934631D01*
X119150476Y-50994211D01*
X118997737Y-51090184D01*
X118870184Y-51217737D01*
X118774211Y-51370476D01*
X118714631Y-51540745D01*
X118714630Y-51540750D01*
X118694435Y-51719996D01*
X118694435Y-51720003D01*
X118714630Y-51899249D01*
X118714631Y-51899254D01*
X118774211Y-52069523D01*
X118870185Y-52222263D01*
X118872445Y-52225097D01*
X118873334Y-52227275D01*
X118873889Y-52228158D01*
X118873734Y-52228255D01*
X118898855Y-52289783D01*
X118899500Y-52302412D01*
X118899500Y-52375500D01*
X118879815Y-52442539D01*
X118827011Y-52488294D01*
X118775502Y-52499500D01*
X118702130Y-52499500D01*
X118702123Y-52499501D01*
X118642516Y-52505908D01*
X118507671Y-52556202D01*
X118507664Y-52556206D01*
X118392455Y-52642452D01*
X118392452Y-52642455D01*
X118306206Y-52757664D01*
X118306202Y-52757671D01*
X118255908Y-52892517D01*
X118250453Y-52943261D01*
X118249501Y-52952123D01*
X118249500Y-52952135D01*
X118249500Y-54047870D01*
X118249501Y-54047876D01*
X118255908Y-54107479D01*
X118257692Y-54115026D01*
X118256229Y-54115371D01*
X118260585Y-54176371D01*
X118256173Y-54191396D01*
X118255908Y-54192517D01*
X118249728Y-54250003D01*
X118249501Y-54252123D01*
X118249500Y-54252135D01*
X118249500Y-55347870D01*
X111083714Y-55347870D01*
X111209139Y-55260047D01*
X111370047Y-55099139D01*
X111500568Y-54912734D01*
X111596739Y-54706496D01*
X111655635Y-54486692D01*
X111675468Y-54260000D01*
X111674779Y-54252129D01*
X111663539Y-54123651D01*
X111655635Y-54033308D01*
X111596739Y-53813504D01*
X111500568Y-53607266D01*
X111370047Y-53420861D01*
X111370045Y-53420858D01*
X111209141Y-53259954D01*
X111022734Y-53129432D01*
X111022728Y-53129429D01*
X110995038Y-53116517D01*
X110964724Y-53102381D01*
X110912285Y-53056210D01*
X110893133Y-52989017D01*
X110913348Y-52922135D01*
X110964725Y-52877618D01*
X111022734Y-52850568D01*
X111209139Y-52720047D01*
X111370047Y-52559139D01*
X111500568Y-52372734D01*
X111596739Y-52166496D01*
X111655635Y-51946692D01*
X111675468Y-51720000D01*
X111655635Y-51493308D01*
X111596739Y-51273504D01*
X111500568Y-51067266D01*
X111370047Y-50880861D01*
X111370045Y-50880858D01*
X111209141Y-50719954D01*
X111022734Y-50589432D01*
X111022728Y-50589429D01*
X110964725Y-50562382D01*
X110912285Y-50516210D01*
X110893133Y-50449017D01*
X110913348Y-50382135D01*
X110964725Y-50337618D01*
X111022734Y-50310568D01*
X111176544Y-50202870D01*
X112749500Y-50202870D01*
X112749501Y-50202876D01*
X112755908Y-50262483D01*
X112806202Y-50397328D01*
X112806206Y-50397335D01*
X112892452Y-50512544D01*
X112892455Y-50512547D01*
X113007664Y-50598793D01*
X113007671Y-50598797D01*
X113052618Y-50615561D01*
X113142517Y-50649091D01*
X113202127Y-50655500D01*
X113275500Y-50655499D01*
X113342538Y-50675183D01*
X113388294Y-50727986D01*
X113399500Y-50779499D01*
X113399500Y-51142587D01*
X113379815Y-51209626D01*
X113372450Y-51219896D01*
X113370186Y-51222734D01*
X113274211Y-51375476D01*
X113214631Y-51545745D01*
X113214630Y-51545750D01*
X113194435Y-51724996D01*
X113194435Y-51725003D01*
X113214630Y-51904249D01*
X113214631Y-51904254D01*
X113274211Y-52074523D01*
X113331997Y-52166488D01*
X113370184Y-52227262D01*
X113497738Y-52354816D01*
X113588080Y-52411582D01*
X113612635Y-52427011D01*
X113650478Y-52450789D01*
X113733430Y-52479815D01*
X113820745Y-52510368D01*
X113820750Y-52510369D01*
X113999996Y-52530565D01*
X114000000Y-52530565D01*
X114000004Y-52530565D01*
X114179249Y-52510369D01*
X114179252Y-52510368D01*
X114179255Y-52510368D01*
X114349522Y-52450789D01*
X114502262Y-52354816D01*
X114629816Y-52227262D01*
X114725789Y-52074522D01*
X114785368Y-51904255D01*
X114785369Y-51904249D01*
X114805565Y-51725003D01*
X114805565Y-51724996D01*
X114785369Y-51545750D01*
X114785368Y-51545745D01*
X114767021Y-51493313D01*
X114725789Y-51375478D01*
X114722647Y-51370478D01*
X114629813Y-51222734D01*
X114627550Y-51219896D01*
X114626659Y-51217715D01*
X114626111Y-51216842D01*
X114626264Y-51216745D01*
X114601144Y-51155209D01*
X114600500Y-51142587D01*
X114600500Y-50779499D01*
X114620185Y-50712460D01*
X114672989Y-50666705D01*
X114724500Y-50655499D01*
X114797871Y-50655499D01*
X114797872Y-50655499D01*
X114857483Y-50649091D01*
X114992331Y-50598796D01*
X115107546Y-50512546D01*
X115193796Y-50397331D01*
X115244091Y-50262483D01*
X115250500Y-50202873D01*
X115250499Y-49107128D01*
X115244091Y-49047517D01*
X115244090Y-49047515D01*
X115244090Y-49047512D01*
X115242308Y-49039969D01*
X115243773Y-49039622D01*
X115239409Y-48978651D01*
X115243819Y-48963633D01*
X115244089Y-48962488D01*
X115244091Y-48962483D01*
X115250500Y-48902873D01*
X115250499Y-47807128D01*
X115244091Y-47747517D01*
X115219121Y-47680570D01*
X115193797Y-47612671D01*
X115193793Y-47612664D01*
X115107547Y-47497455D01*
X115107544Y-47497452D01*
X114992335Y-47411206D01*
X114992328Y-47411202D01*
X114857482Y-47360908D01*
X114857483Y-47360908D01*
X114797883Y-47354501D01*
X114797881Y-47354500D01*
X114797873Y-47354500D01*
X114797865Y-47354500D01*
X114724500Y-47354500D01*
X114657461Y-47334815D01*
X114611706Y-47282011D01*
X114600500Y-47230500D01*
X114600500Y-47227412D01*
X114620185Y-47160373D01*
X114627555Y-47150097D01*
X114629810Y-47147267D01*
X114629816Y-47147262D01*
X114725789Y-46994522D01*
X114785368Y-46824255D01*
X114785369Y-46824249D01*
X114805565Y-46645003D01*
X114805565Y-46644996D01*
X114785369Y-46465750D01*
X114785368Y-46465745D01*
X114767021Y-46413313D01*
X114726626Y-46297870D01*
X129499500Y-46297870D01*
X129499501Y-46297876D01*
X129505908Y-46357483D01*
X129556202Y-46492328D01*
X129556206Y-46492335D01*
X129642452Y-46607544D01*
X129642455Y-46607547D01*
X129757664Y-46693793D01*
X129757671Y-46693797D01*
X129890710Y-46743417D01*
X129946644Y-46785288D01*
X129964419Y-46818645D01*
X129964631Y-46819253D01*
X129964632Y-46819255D01*
X129966382Y-46824255D01*
X130024210Y-46989521D01*
X130085139Y-47086488D01*
X130120184Y-47142262D01*
X130247738Y-47269816D01*
X130284209Y-47292732D01*
X130392711Y-47360909D01*
X130400478Y-47365789D01*
X130570745Y-47425368D01*
X130570750Y-47425369D01*
X130749996Y-47445565D01*
X130750000Y-47445565D01*
X130750004Y-47445565D01*
X130929249Y-47425369D01*
X130929252Y-47425368D01*
X130929255Y-47425368D01*
X131099522Y-47365789D01*
X131252262Y-47269816D01*
X131379816Y-47142262D01*
X131475789Y-46989522D01*
X131535368Y-46819255D01*
X131535368Y-46819253D01*
X131535581Y-46818645D01*
X131576303Y-46761869D01*
X131609290Y-46743417D01*
X131742328Y-46693797D01*
X131742327Y-46693797D01*
X131742331Y-46693796D01*
X131857546Y-46607546D01*
X131943796Y-46492331D01*
X131994091Y-46357483D01*
X132000500Y-46297873D01*
X132000499Y-45202128D01*
X131994091Y-45142517D01*
X131994090Y-45142515D01*
X131994090Y-45142512D01*
X131992308Y-45134969D01*
X131993773Y-45134622D01*
X131989409Y-45073651D01*
X131993819Y-45058633D01*
X131994089Y-45057488D01*
X131994091Y-45057483D01*
X132000500Y-44997873D01*
X132000499Y-43902128D01*
X131994091Y-43842517D01*
X131943796Y-43707669D01*
X131943795Y-43707668D01*
X131943793Y-43707664D01*
X131857547Y-43592455D01*
X131857544Y-43592452D01*
X131742335Y-43506206D01*
X131742326Y-43506201D01*
X131619462Y-43460377D01*
X131563528Y-43418507D01*
X131539574Y-43358079D01*
X131535368Y-43320745D01*
X131475789Y-43150478D01*
X131379816Y-42997738D01*
X131252262Y-42870184D01*
X131230010Y-42856202D01*
X131099523Y-42774211D01*
X130929254Y-42714631D01*
X130929249Y-42714630D01*
X130750004Y-42694435D01*
X130749996Y-42694435D01*
X130570750Y-42714630D01*
X130570745Y-42714631D01*
X130400476Y-42774211D01*
X130247737Y-42870184D01*
X130120184Y-42997737D01*
X130024210Y-43150478D01*
X129964630Y-43320750D01*
X129960424Y-43358080D01*
X129933356Y-43422493D01*
X129880538Y-43460376D01*
X129757669Y-43506203D01*
X129757664Y-43506206D01*
X129642455Y-43592452D01*
X129642452Y-43592455D01*
X129556206Y-43707664D01*
X129556202Y-43707671D01*
X129505908Y-43842517D01*
X129499501Y-43902116D01*
X129499501Y-43902123D01*
X129499500Y-43902135D01*
X129499500Y-44997870D01*
X129499501Y-44997876D01*
X129505908Y-45057479D01*
X129507692Y-45065026D01*
X129506229Y-45065371D01*
X129510585Y-45126371D01*
X129506173Y-45141396D01*
X129505908Y-45142517D01*
X129499501Y-45202116D01*
X129499501Y-45202123D01*
X129499500Y-45202135D01*
X129499500Y-46297870D01*
X114726626Y-46297870D01*
X114725789Y-46295478D01*
X114629816Y-46142738D01*
X114502262Y-46015184D01*
X114349523Y-45919211D01*
X114179254Y-45859631D01*
X114179249Y-45859630D01*
X114000004Y-45839435D01*
X113999996Y-45839435D01*
X113820750Y-45859630D01*
X113820745Y-45859631D01*
X113650476Y-45919211D01*
X113497737Y-46015184D01*
X113370184Y-46142737D01*
X113274211Y-46295476D01*
X113214631Y-46465745D01*
X113214630Y-46465750D01*
X113194435Y-46644996D01*
X113194435Y-46645003D01*
X113214630Y-46824249D01*
X113214631Y-46824254D01*
X113274211Y-46994523D01*
X113331997Y-47086488D01*
X113367042Y-47142262D01*
X113370185Y-47147263D01*
X113372445Y-47150097D01*
X113373334Y-47152275D01*
X113373889Y-47153158D01*
X113373734Y-47153255D01*
X113398855Y-47214783D01*
X113399500Y-47227412D01*
X113399500Y-47230500D01*
X113379815Y-47297539D01*
X113327011Y-47343294D01*
X113275502Y-47354500D01*
X113202130Y-47354500D01*
X113202123Y-47354501D01*
X113142516Y-47360908D01*
X113007671Y-47411202D01*
X113007664Y-47411206D01*
X112892455Y-47497452D01*
X112892452Y-47497455D01*
X112806206Y-47612664D01*
X112806202Y-47612671D01*
X112755908Y-47747517D01*
X112753430Y-47770570D01*
X112749501Y-47807123D01*
X112749500Y-47807135D01*
X112749500Y-48902870D01*
X112749501Y-48902876D01*
X112755908Y-48962479D01*
X112757692Y-48970026D01*
X112756229Y-48970371D01*
X112760585Y-49031371D01*
X112756173Y-49046396D01*
X112755908Y-49047517D01*
X112751341Y-49090000D01*
X112749501Y-49107123D01*
X112749500Y-49107135D01*
X112749500Y-50202870D01*
X111176544Y-50202870D01*
X111209139Y-50180047D01*
X111370047Y-50019139D01*
X111500568Y-49832734D01*
X111596739Y-49626496D01*
X111655635Y-49406692D01*
X111675468Y-49180000D01*
X111655635Y-48953308D01*
X111596739Y-48733504D01*
X111500568Y-48527266D01*
X111370047Y-48340861D01*
X111370045Y-48340858D01*
X111209141Y-48179954D01*
X111022734Y-48049432D01*
X111022728Y-48049429D01*
X110964725Y-48022382D01*
X110912285Y-47976210D01*
X110893133Y-47909017D01*
X110913348Y-47842135D01*
X110964725Y-47797618D01*
X111022734Y-47770568D01*
X111209139Y-47640047D01*
X111370047Y-47479139D01*
X111500568Y-47292734D01*
X111596739Y-47086496D01*
X111655635Y-46866692D01*
X111675468Y-46640000D01*
X111672628Y-46607544D01*
X111662549Y-46492335D01*
X111655635Y-46413308D01*
X111596739Y-46193504D01*
X111500568Y-45987266D01*
X111370047Y-45800861D01*
X111370045Y-45800858D01*
X111209141Y-45639954D01*
X111022734Y-45509432D01*
X111022728Y-45509429D01*
X110964725Y-45482382D01*
X110912285Y-45436210D01*
X110893133Y-45369017D01*
X110913348Y-45302135D01*
X110964725Y-45257618D01*
X111022734Y-45230568D01*
X111209139Y-45100047D01*
X111370047Y-44939139D01*
X111500568Y-44752734D01*
X111596739Y-44546496D01*
X111655635Y-44326692D01*
X111675468Y-44100000D01*
X111655635Y-43873308D01*
X111596739Y-43653504D01*
X111500568Y-43447266D01*
X111370047Y-43260861D01*
X111370045Y-43260858D01*
X111209141Y-43099954D01*
X111022734Y-42969432D01*
X111022732Y-42969431D01*
X110816497Y-42873261D01*
X110816488Y-42873258D01*
X110596697Y-42814366D01*
X110596693Y-42814365D01*
X110596692Y-42814365D01*
X110596691Y-42814364D01*
X110596686Y-42814364D01*
X110370002Y-42794532D01*
X110369998Y-42794532D01*
X110143313Y-42814364D01*
X110143302Y-42814366D01*
X109923511Y-42873258D01*
X109923502Y-42873261D01*
X109717267Y-42969431D01*
X109717265Y-42969432D01*
X109530858Y-43099954D01*
X109369954Y-43260858D01*
X109239432Y-43447265D01*
X109239431Y-43447267D01*
X109143261Y-43653502D01*
X109143258Y-43653511D01*
X109084366Y-43873302D01*
X109084364Y-43873313D01*
X109064532Y-44099998D01*
X109064532Y-44100001D01*
X109084364Y-44326686D01*
X109084366Y-44326697D01*
X109143258Y-44546488D01*
X109143261Y-44546497D01*
X109239431Y-44752732D01*
X109239432Y-44752734D01*
X109369954Y-44939141D01*
X109530858Y-45100045D01*
X109530861Y-45100047D01*
X109717266Y-45230568D01*
X109775275Y-45257618D01*
X109827714Y-45303791D01*
X109846866Y-45370984D01*
X109826650Y-45437865D01*
X109775275Y-45482382D01*
X109717267Y-45509431D01*
X109717265Y-45509432D01*
X109530858Y-45639954D01*
X109369954Y-45800858D01*
X109239432Y-45987265D01*
X109239431Y-45987267D01*
X109143261Y-46193502D01*
X109143258Y-46193511D01*
X109084366Y-46413302D01*
X109084364Y-46413313D01*
X109064532Y-46639998D01*
X109064532Y-46640001D01*
X109084364Y-46866686D01*
X109084366Y-46866697D01*
X109143258Y-47086488D01*
X109143261Y-47086497D01*
X109239431Y-47292732D01*
X109239432Y-47292734D01*
X109369954Y-47479141D01*
X109530858Y-47640045D01*
X109530861Y-47640047D01*
X109717266Y-47770568D01*
X109775275Y-47797618D01*
X109827714Y-47843791D01*
X109846866Y-47910984D01*
X109826650Y-47977865D01*
X109775275Y-48022382D01*
X109717267Y-48049431D01*
X109717265Y-48049432D01*
X109530858Y-48179954D01*
X109369954Y-48340858D01*
X109239432Y-48527265D01*
X109239431Y-48527267D01*
X109143261Y-48733502D01*
X109143258Y-48733511D01*
X109084366Y-48953302D01*
X109084364Y-48953313D01*
X109064532Y-49179998D01*
X109064532Y-49180001D01*
X109084364Y-49406686D01*
X109084366Y-49406697D01*
X109143258Y-49626488D01*
X109143261Y-49626497D01*
X109239431Y-49832732D01*
X109239432Y-49832734D01*
X109369954Y-50019141D01*
X109530858Y-50180045D01*
X109530861Y-50180047D01*
X109717266Y-50310568D01*
X109775275Y-50337618D01*
X109827714Y-50383791D01*
X109846866Y-50450984D01*
X109826650Y-50517865D01*
X109775275Y-50562382D01*
X109717267Y-50589431D01*
X109717265Y-50589432D01*
X109530858Y-50719954D01*
X109369954Y-50880858D01*
X109239432Y-51067265D01*
X109239431Y-51067267D01*
X109143261Y-51273502D01*
X109143258Y-51273511D01*
X109084366Y-51493302D01*
X109084364Y-51493313D01*
X109064532Y-51719998D01*
X109064532Y-51720001D01*
X109084364Y-51946686D01*
X109084366Y-51946697D01*
X109143258Y-52166488D01*
X109143261Y-52166497D01*
X109239431Y-52372732D01*
X109239432Y-52372734D01*
X109369954Y-52559141D01*
X109530858Y-52720045D01*
X109530861Y-52720047D01*
X109717266Y-52850568D01*
X109775275Y-52877618D01*
X109827714Y-52923791D01*
X109846866Y-52990984D01*
X109826650Y-53057865D01*
X109775275Y-53102381D01*
X109758272Y-53110310D01*
X109717267Y-53129431D01*
X109717265Y-53129432D01*
X109530858Y-53259954D01*
X109369954Y-53420858D01*
X109239432Y-53607265D01*
X109239431Y-53607267D01*
X109143261Y-53813502D01*
X109143258Y-53813511D01*
X109084366Y-54033302D01*
X109084364Y-54033313D01*
X109064532Y-54259998D01*
X109064532Y-54260001D01*
X109084364Y-54486686D01*
X109084366Y-54486697D01*
X109143258Y-54706488D01*
X109143261Y-54706497D01*
X109239431Y-54912732D01*
X109239432Y-54912734D01*
X109369954Y-55099141D01*
X109530858Y-55260045D01*
X109530861Y-55260047D01*
X109717266Y-55390568D01*
X109775275Y-55417618D01*
X109827714Y-55463791D01*
X109846866Y-55530984D01*
X109826650Y-55597865D01*
X109775275Y-55642382D01*
X109717267Y-55669431D01*
X109717265Y-55669432D01*
X109530858Y-55799954D01*
X109369954Y-55960858D01*
X109239432Y-56147265D01*
X109239431Y-56147267D01*
X109143261Y-56353502D01*
X109143258Y-56353511D01*
X109084366Y-56573302D01*
X109084364Y-56573313D01*
X109064532Y-56799998D01*
X109064532Y-56800001D01*
X109084364Y-57026686D01*
X109084366Y-57026697D01*
X109143258Y-57246488D01*
X109143261Y-57246497D01*
X109239431Y-57452732D01*
X109239432Y-57452734D01*
X109369954Y-57639141D01*
X109530858Y-57800045D01*
X109530861Y-57800047D01*
X109717266Y-57930568D01*
X109775275Y-57957618D01*
X109827714Y-58003791D01*
X109846866Y-58070984D01*
X109826650Y-58137865D01*
X109775275Y-58182382D01*
X109717267Y-58209431D01*
X109717265Y-58209432D01*
X109530858Y-58339954D01*
X109369954Y-58500858D01*
X109239432Y-58687265D01*
X109239431Y-58687267D01*
X109143261Y-58893502D01*
X109143258Y-58893511D01*
X109084366Y-59113302D01*
X109084364Y-59113313D01*
X109064532Y-59339998D01*
X109064532Y-59340001D01*
X109084364Y-59566686D01*
X109084366Y-59566697D01*
X109143258Y-59786488D01*
X109143261Y-59786497D01*
X109239431Y-59992732D01*
X109239432Y-59992734D01*
X109369954Y-60179141D01*
X109530858Y-60340045D01*
X109530861Y-60340047D01*
X109717266Y-60470568D01*
X109775275Y-60497618D01*
X109827714Y-60543791D01*
X109846866Y-60610984D01*
X109826650Y-60677865D01*
X109775275Y-60722382D01*
X109717267Y-60749431D01*
X109717265Y-60749432D01*
X109530858Y-60879954D01*
X109369954Y-61040858D01*
X109239432Y-61227265D01*
X109239431Y-61227267D01*
X109143261Y-61433502D01*
X109143258Y-61433511D01*
X109084366Y-61653302D01*
X109084364Y-61653313D01*
X109064532Y-61879998D01*
X109064532Y-61880001D01*
X109084364Y-62106686D01*
X109084366Y-62106697D01*
X109143258Y-62326488D01*
X109143261Y-62326497D01*
X109239431Y-62532732D01*
X109239432Y-62532734D01*
X109369954Y-62719141D01*
X109530858Y-62880045D01*
X109530861Y-62880047D01*
X109717266Y-63010568D01*
X109770589Y-63035433D01*
X109775275Y-63037618D01*
X109827714Y-63083791D01*
X109846866Y-63150984D01*
X109826650Y-63217865D01*
X109775275Y-63262382D01*
X109717267Y-63289431D01*
X109717265Y-63289432D01*
X109530858Y-63419954D01*
X109369954Y-63580858D01*
X109239432Y-63767265D01*
X109239431Y-63767267D01*
X109143261Y-63973502D01*
X109143258Y-63973511D01*
X109084366Y-64193302D01*
X109084364Y-64193313D01*
X109064532Y-64419998D01*
X109064532Y-64420001D01*
X109084364Y-64646686D01*
X109084366Y-64646697D01*
X109143258Y-64866488D01*
X109143261Y-64866497D01*
X109239431Y-65072732D01*
X109239432Y-65072734D01*
X109369954Y-65259141D01*
X109530858Y-65420045D01*
X109530861Y-65420047D01*
X109717266Y-65550568D01*
X109775275Y-65577618D01*
X109827714Y-65623791D01*
X109846866Y-65690984D01*
X109826650Y-65757865D01*
X109775275Y-65802382D01*
X109717267Y-65829431D01*
X109717265Y-65829432D01*
X109530858Y-65959954D01*
X109369954Y-66120858D01*
X109239432Y-66307265D01*
X109239431Y-66307267D01*
X109143261Y-66513502D01*
X109143258Y-66513511D01*
X109084366Y-66733302D01*
X109084364Y-66733313D01*
X109064532Y-66959998D01*
X109064532Y-66960001D01*
X109084364Y-67186686D01*
X109084366Y-67186697D01*
X109143258Y-67406488D01*
X109143261Y-67406497D01*
X109239431Y-67612732D01*
X109239432Y-67612734D01*
X109369954Y-67799141D01*
X109530858Y-67960045D01*
X109530861Y-67960047D01*
X109717266Y-68090568D01*
X109774681Y-68117341D01*
X109775275Y-68117618D01*
X109827714Y-68163791D01*
X109846866Y-68230984D01*
X109826650Y-68297865D01*
X109775275Y-68342382D01*
X109717267Y-68369431D01*
X109717265Y-68369432D01*
X109530858Y-68499954D01*
X109369954Y-68660858D01*
X109239432Y-68847265D01*
X109239431Y-68847267D01*
X109143261Y-69053502D01*
X109143258Y-69053511D01*
X109084366Y-69273302D01*
X109084364Y-69273313D01*
X109064532Y-69499998D01*
X109064532Y-69500001D01*
X109084364Y-69726686D01*
X109084366Y-69726697D01*
X109143258Y-69946488D01*
X109143261Y-69946497D01*
X109239431Y-70152732D01*
X109239432Y-70152734D01*
X109369954Y-70339141D01*
X109530858Y-70500045D01*
X109530861Y-70500047D01*
X109717266Y-70630568D01*
X109747212Y-70644532D01*
X109775275Y-70657618D01*
X109827714Y-70703791D01*
X109846866Y-70770984D01*
X109826650Y-70837865D01*
X109775275Y-70882382D01*
X109717267Y-70909431D01*
X109717265Y-70909432D01*
X109530858Y-71039954D01*
X109369954Y-71200858D01*
X109239432Y-71387265D01*
X109239431Y-71387267D01*
X109143261Y-71593502D01*
X109143258Y-71593511D01*
X109084366Y-71813302D01*
X109084364Y-71813313D01*
X109064532Y-72039998D01*
X109064532Y-72040001D01*
X109084364Y-72266686D01*
X109084366Y-72266697D01*
X109143258Y-72486488D01*
X109143261Y-72486497D01*
X109239431Y-72692732D01*
X109239432Y-72692734D01*
X109369954Y-72879141D01*
X109530858Y-73040045D01*
X109530861Y-73040047D01*
X109717266Y-73170568D01*
X109771610Y-73195909D01*
X109775275Y-73197618D01*
X109827714Y-73243791D01*
X109846866Y-73310984D01*
X109826650Y-73377865D01*
X109775275Y-73422382D01*
X109717267Y-73449431D01*
X109717265Y-73449432D01*
X109530858Y-73579954D01*
X109369954Y-73740858D01*
X109239432Y-73927265D01*
X109239431Y-73927267D01*
X109143261Y-74133502D01*
X109143258Y-74133511D01*
X109084366Y-74353302D01*
X109084364Y-74353313D01*
X109064532Y-74579998D01*
X109064532Y-74580001D01*
X109084364Y-74806686D01*
X109084366Y-74806697D01*
X109143258Y-75026488D01*
X109143261Y-75026497D01*
X109239431Y-75232732D01*
X109239432Y-75232734D01*
X109369954Y-75419141D01*
X109530858Y-75580045D01*
X109530861Y-75580047D01*
X109717266Y-75710568D01*
X109775275Y-75737618D01*
X109827714Y-75783791D01*
X109846866Y-75850984D01*
X109826650Y-75917865D01*
X109775275Y-75962382D01*
X109717267Y-75989431D01*
X109717265Y-75989432D01*
X109530858Y-76119954D01*
X109369954Y-76280858D01*
X109239432Y-76467265D01*
X109239431Y-76467267D01*
X109143261Y-76673502D01*
X109143258Y-76673511D01*
X109084366Y-76893302D01*
X109084364Y-76893313D01*
X109064532Y-77119998D01*
X109064532Y-77120001D01*
X104055468Y-77120001D01*
X104055468Y-77120000D01*
X104035635Y-76893308D01*
X103976739Y-76673504D01*
X103880568Y-76467266D01*
X103750047Y-76280861D01*
X103750045Y-76280858D01*
X103589141Y-76119954D01*
X103402734Y-75989432D01*
X103402728Y-75989429D01*
X103344725Y-75962382D01*
X103292285Y-75916210D01*
X103273133Y-75849017D01*
X103293348Y-75782135D01*
X103344725Y-75737618D01*
X103402734Y-75710568D01*
X103589139Y-75580047D01*
X103750047Y-75419139D01*
X103880568Y-75232734D01*
X103976739Y-75026496D01*
X104035635Y-74806692D01*
X104055090Y-74584317D01*
X104055468Y-74580001D01*
X104055468Y-74579998D01*
X104035635Y-74353313D01*
X104035635Y-74353308D01*
X103976739Y-74133504D01*
X103880568Y-73927266D01*
X103750047Y-73740861D01*
X103750045Y-73740858D01*
X103589141Y-73579954D01*
X103402734Y-73449432D01*
X103402728Y-73449429D01*
X103344725Y-73422382D01*
X103292285Y-73376210D01*
X103273133Y-73309017D01*
X103293348Y-73242135D01*
X103344725Y-73197618D01*
X103348390Y-73195909D01*
X103402734Y-73170568D01*
X103589139Y-73040047D01*
X103750047Y-72879139D01*
X103880568Y-72692734D01*
X103976739Y-72486496D01*
X104035635Y-72266692D01*
X104055468Y-72040000D01*
X104035635Y-71813308D01*
X103976739Y-71593504D01*
X103880568Y-71387266D01*
X103750047Y-71200861D01*
X103750045Y-71200858D01*
X103589141Y-71039954D01*
X103402734Y-70909432D01*
X103402728Y-70909429D01*
X103344725Y-70882382D01*
X103292285Y-70836210D01*
X103273133Y-70769017D01*
X103293348Y-70702135D01*
X103344725Y-70657618D01*
X103402734Y-70630568D01*
X103589139Y-70500047D01*
X103750047Y-70339139D01*
X103880568Y-70152734D01*
X103976739Y-69946496D01*
X104035635Y-69726692D01*
X104055468Y-69500000D01*
X104035635Y-69273308D01*
X103976739Y-69053504D01*
X103880568Y-68847266D01*
X103750047Y-68660861D01*
X103750045Y-68660858D01*
X103589141Y-68499954D01*
X103402734Y-68369432D01*
X103402732Y-68369431D01*
X103344725Y-68342382D01*
X103344132Y-68342105D01*
X103291694Y-68295934D01*
X103272542Y-68228740D01*
X103292758Y-68161859D01*
X103344134Y-68117341D01*
X103402484Y-68090132D01*
X103588820Y-67959657D01*
X103749657Y-67798820D01*
X103880134Y-67612482D01*
X103976265Y-67406326D01*
X103976269Y-67406317D01*
X104028872Y-67210000D01*
X103065686Y-67210000D01*
X103070080Y-67205606D01*
X103122741Y-67114394D01*
X103150000Y-67012661D01*
X103150000Y-66907339D01*
X103122741Y-66805606D01*
X103070080Y-66714394D01*
X103065686Y-66710000D01*
X104028872Y-66710000D01*
X104028872Y-66709999D01*
X103976269Y-66513682D01*
X103976265Y-66513673D01*
X103880134Y-66307517D01*
X103749657Y-66121179D01*
X103588820Y-65960342D01*
X103402482Y-65829865D01*
X103344133Y-65802657D01*
X103291694Y-65756484D01*
X103272542Y-65689291D01*
X103292758Y-65622410D01*
X103344129Y-65577895D01*
X103402734Y-65550568D01*
X103589139Y-65420047D01*
X103750047Y-65259139D01*
X103880568Y-65072734D01*
X103976739Y-64866496D01*
X104035635Y-64646692D01*
X104055468Y-64420000D01*
X104035635Y-64193308D01*
X103983839Y-64000000D01*
X103976741Y-63973511D01*
X103976738Y-63973502D01*
X103934770Y-63883502D01*
X103880568Y-63767266D01*
X103751661Y-63583166D01*
X103750045Y-63580858D01*
X103589141Y-63419954D01*
X103402734Y-63289432D01*
X103402728Y-63289429D01*
X103344725Y-63262382D01*
X103292285Y-63216210D01*
X103273133Y-63149017D01*
X103293348Y-63082135D01*
X103344725Y-63037618D01*
X103349411Y-63035433D01*
X103402734Y-63010568D01*
X103589139Y-62880047D01*
X103750047Y-62719139D01*
X103880568Y-62532734D01*
X103976739Y-62326496D01*
X104035635Y-62106692D01*
X104055468Y-61880000D01*
X104035635Y-61653308D01*
X103976739Y-61433504D01*
X103880568Y-61227266D01*
X103750047Y-61040861D01*
X103750045Y-61040858D01*
X103589141Y-60879954D01*
X103402734Y-60749432D01*
X103402728Y-60749429D01*
X103344725Y-60722382D01*
X103292285Y-60676210D01*
X103273133Y-60609017D01*
X103293348Y-60542135D01*
X103344725Y-60497618D01*
X103402734Y-60470568D01*
X103589139Y-60340047D01*
X103750047Y-60179139D01*
X103880568Y-59992734D01*
X103976739Y-59786496D01*
X104035635Y-59566692D01*
X104055468Y-59340000D01*
X104035635Y-59113308D01*
X103976739Y-58893504D01*
X103880568Y-58687266D01*
X103750047Y-58500861D01*
X103750045Y-58500858D01*
X103589141Y-58339954D01*
X103402734Y-58209432D01*
X103402728Y-58209429D01*
X103344725Y-58182382D01*
X103292285Y-58136210D01*
X103273133Y-58069017D01*
X103293348Y-58002135D01*
X103344725Y-57957618D01*
X103402734Y-57930568D01*
X103589139Y-57800047D01*
X103750047Y-57639139D01*
X103880568Y-57452734D01*
X103976739Y-57246496D01*
X104035635Y-57026692D01*
X104055468Y-56800000D01*
X104035635Y-56573308D01*
X103976739Y-56353504D01*
X103880568Y-56147266D01*
X103782839Y-56007693D01*
X103750045Y-55960858D01*
X103589141Y-55799954D01*
X103402734Y-55669432D01*
X103402728Y-55669429D01*
X103344725Y-55642382D01*
X103292285Y-55596210D01*
X103273133Y-55529017D01*
X103293348Y-55462135D01*
X103344725Y-55417618D01*
X103402734Y-55390568D01*
X103589139Y-55260047D01*
X103750047Y-55099139D01*
X103880568Y-54912734D01*
X103976739Y-54706496D01*
X104035635Y-54486692D01*
X104055468Y-54260000D01*
X104054779Y-54252129D01*
X104043539Y-54123651D01*
X104035635Y-54033308D01*
X103976739Y-53813504D01*
X103880568Y-53607266D01*
X103750047Y-53420861D01*
X103750045Y-53420858D01*
X103589141Y-53259954D01*
X103402734Y-53129432D01*
X103402728Y-53129429D01*
X103375038Y-53116517D01*
X103344724Y-53102381D01*
X103292285Y-53056210D01*
X103273133Y-52989017D01*
X103293348Y-52922135D01*
X103344725Y-52877618D01*
X103402734Y-52850568D01*
X103589139Y-52720047D01*
X103750047Y-52559139D01*
X103880568Y-52372734D01*
X103976739Y-52166496D01*
X104035635Y-51946692D01*
X104055468Y-51720000D01*
X104035635Y-51493308D01*
X103976739Y-51273504D01*
X103880568Y-51067266D01*
X103750047Y-50880861D01*
X103750045Y-50880858D01*
X103589141Y-50719954D01*
X103402734Y-50589432D01*
X103402728Y-50589429D01*
X103344725Y-50562382D01*
X103292285Y-50516210D01*
X103273133Y-50449017D01*
X103293348Y-50382135D01*
X103344725Y-50337618D01*
X103402734Y-50310568D01*
X103589139Y-50180047D01*
X103750047Y-50019139D01*
X103880568Y-49832734D01*
X103976739Y-49626496D01*
X104035635Y-49406692D01*
X104055468Y-49180000D01*
X104035635Y-48953308D01*
X103976739Y-48733504D01*
X103880568Y-48527266D01*
X103750047Y-48340861D01*
X103750045Y-48340858D01*
X103589141Y-48179954D01*
X103402734Y-48049432D01*
X103402728Y-48049429D01*
X103344725Y-48022382D01*
X103292285Y-47976210D01*
X103273133Y-47909017D01*
X103293348Y-47842135D01*
X103344725Y-47797618D01*
X103402734Y-47770568D01*
X103589139Y-47640047D01*
X103750047Y-47479139D01*
X103880568Y-47292734D01*
X103976739Y-47086496D01*
X104035635Y-46866692D01*
X104055468Y-46640000D01*
X104052628Y-46607544D01*
X104042549Y-46492335D01*
X104035635Y-46413308D01*
X103976739Y-46193504D01*
X103880568Y-45987266D01*
X103750047Y-45800861D01*
X103750045Y-45800858D01*
X103589143Y-45639956D01*
X103564536Y-45622726D01*
X103520912Y-45568149D01*
X103513719Y-45498650D01*
X103545241Y-45436296D01*
X103605471Y-45400882D01*
X103622404Y-45397861D01*
X103657483Y-45394091D01*
X103792331Y-45343796D01*
X103907546Y-45257546D01*
X103993796Y-45142331D01*
X104044091Y-45007483D01*
X104050500Y-44947873D01*
X104050499Y-43252128D01*
X104044091Y-43192517D01*
X104028411Y-43150478D01*
X103993797Y-43057671D01*
X103993793Y-43057664D01*
X103907547Y-42942455D01*
X103907544Y-42942452D01*
X103792335Y-42856206D01*
X103792328Y-42856202D01*
X103657482Y-42805908D01*
X103657483Y-42805908D01*
X103597883Y-42799501D01*
X103597881Y-42799500D01*
X103597873Y-42799500D01*
X103597864Y-42799500D01*
X101902129Y-42799500D01*
X101902123Y-42799501D01*
X101842516Y-42805908D01*
X101707671Y-42856202D01*
X101707664Y-42856206D01*
X101592455Y-42942452D01*
X101592452Y-42942455D01*
X101506206Y-43057664D01*
X101506202Y-43057671D01*
X101455908Y-43192517D01*
X101449501Y-43252116D01*
X101449501Y-43252123D01*
X101449500Y-43252135D01*
X101449500Y-44947870D01*
X101449501Y-44947876D01*
X101455908Y-45007483D01*
X101506202Y-45142328D01*
X101506206Y-45142335D01*
X101592452Y-45257544D01*
X101592455Y-45257547D01*
X101707664Y-45343793D01*
X101707671Y-45343797D01*
X101752618Y-45360561D01*
X101842517Y-45394091D01*
X101877596Y-45397862D01*
X101942144Y-45424599D01*
X101981993Y-45481991D01*
X101984488Y-45551816D01*
X101948836Y-45611905D01*
X101935464Y-45622725D01*
X101910858Y-45639954D01*
X101749954Y-45800858D01*
X101619432Y-45987265D01*
X101619431Y-45987267D01*
X101523261Y-46193502D01*
X101523258Y-46193511D01*
X101464366Y-46413302D01*
X101464364Y-46413313D01*
X101444532Y-46639998D01*
X101444532Y-46640001D01*
X101464364Y-46866686D01*
X101464366Y-46866697D01*
X101523258Y-47086488D01*
X101523261Y-47086497D01*
X101619431Y-47292732D01*
X101619432Y-47292734D01*
X101749954Y-47479141D01*
X101910858Y-47640045D01*
X101910861Y-47640047D01*
X102097266Y-47770568D01*
X102155275Y-47797618D01*
X102207714Y-47843791D01*
X102226866Y-47910984D01*
X102206650Y-47977865D01*
X102155275Y-48022382D01*
X102097267Y-48049431D01*
X102097265Y-48049432D01*
X101910858Y-48179954D01*
X101749954Y-48340858D01*
X101619432Y-48527265D01*
X101619431Y-48527267D01*
X101523261Y-48733502D01*
X101523258Y-48733511D01*
X101464366Y-48953302D01*
X101464364Y-48953313D01*
X101444532Y-49179998D01*
X101444532Y-49180001D01*
X101464364Y-49406686D01*
X101464366Y-49406697D01*
X101523258Y-49626488D01*
X101523261Y-49626497D01*
X101619431Y-49832732D01*
X101619432Y-49832734D01*
X101749954Y-50019141D01*
X101910858Y-50180045D01*
X101910861Y-50180047D01*
X102097266Y-50310568D01*
X102155275Y-50337618D01*
X102207714Y-50383791D01*
X102226866Y-50450984D01*
X102206650Y-50517865D01*
X102155275Y-50562382D01*
X102097267Y-50589431D01*
X102097265Y-50589432D01*
X101910858Y-50719954D01*
X101749954Y-50880858D01*
X101619432Y-51067265D01*
X101619431Y-51067267D01*
X101523261Y-51273502D01*
X101523258Y-51273511D01*
X101464366Y-51493302D01*
X101464364Y-51493313D01*
X101444532Y-51719998D01*
X101444532Y-51720001D01*
X101464364Y-51946686D01*
X101464366Y-51946697D01*
X101523258Y-52166488D01*
X101523261Y-52166497D01*
X101619431Y-52372732D01*
X101619432Y-52372734D01*
X101749954Y-52559141D01*
X101910858Y-52720045D01*
X101910861Y-52720047D01*
X102097266Y-52850568D01*
X102155275Y-52877618D01*
X102207714Y-52923791D01*
X102226866Y-52990984D01*
X102206650Y-53057865D01*
X102155275Y-53102381D01*
X102138272Y-53110310D01*
X102097267Y-53129431D01*
X102097265Y-53129432D01*
X101910858Y-53259954D01*
X101749954Y-53420858D01*
X101619432Y-53607265D01*
X101619431Y-53607267D01*
X101523261Y-53813502D01*
X101523258Y-53813511D01*
X101464366Y-54033302D01*
X101464364Y-54033313D01*
X101444532Y-54259998D01*
X101444532Y-54260001D01*
X101464364Y-54486686D01*
X101464366Y-54486697D01*
X101523258Y-54706488D01*
X101523261Y-54706497D01*
X101619431Y-54912732D01*
X101619432Y-54912734D01*
X101749954Y-55099141D01*
X101910858Y-55260045D01*
X101910861Y-55260047D01*
X102097266Y-55390568D01*
X102155275Y-55417618D01*
X102207714Y-55463791D01*
X102226866Y-55530984D01*
X102206650Y-55597865D01*
X102155275Y-55642382D01*
X102097267Y-55669431D01*
X102097265Y-55669432D01*
X101910858Y-55799954D01*
X101749954Y-55960858D01*
X101619432Y-56147265D01*
X101619431Y-56147267D01*
X101523261Y-56353502D01*
X101523258Y-56353511D01*
X101464366Y-56573302D01*
X101464364Y-56573313D01*
X101444532Y-56799998D01*
X101444532Y-56800001D01*
X101464364Y-57026686D01*
X101464366Y-57026697D01*
X101523258Y-57246488D01*
X101523261Y-57246497D01*
X101619431Y-57452732D01*
X101619432Y-57452734D01*
X101749954Y-57639141D01*
X101910858Y-57800045D01*
X101910861Y-57800047D01*
X102097266Y-57930568D01*
X102155275Y-57957618D01*
X102207714Y-58003791D01*
X102226866Y-58070984D01*
X102206650Y-58137865D01*
X102155275Y-58182382D01*
X102097267Y-58209431D01*
X102097265Y-58209432D01*
X101910858Y-58339954D01*
X101749954Y-58500858D01*
X101619432Y-58687265D01*
X101619431Y-58687267D01*
X101523261Y-58893502D01*
X101523258Y-58893511D01*
X101464366Y-59113302D01*
X101464364Y-59113313D01*
X101444532Y-59339998D01*
X101444532Y-59340001D01*
X101464364Y-59566686D01*
X101464366Y-59566697D01*
X101523258Y-59786488D01*
X101523261Y-59786497D01*
X101619431Y-59992732D01*
X101619432Y-59992734D01*
X101749954Y-60179141D01*
X101910858Y-60340045D01*
X101910861Y-60340047D01*
X102097266Y-60470568D01*
X102155275Y-60497618D01*
X102207714Y-60543791D01*
X102226866Y-60610984D01*
X102206650Y-60677865D01*
X102155275Y-60722382D01*
X102097267Y-60749431D01*
X102097265Y-60749432D01*
X101910858Y-60879954D01*
X101749954Y-61040858D01*
X101619432Y-61227265D01*
X101619431Y-61227267D01*
X101523261Y-61433502D01*
X101523258Y-61433511D01*
X101464366Y-61653302D01*
X101464364Y-61653313D01*
X101444532Y-61879998D01*
X101444532Y-61880001D01*
X101464364Y-62106686D01*
X101464366Y-62106697D01*
X101523258Y-62326488D01*
X101523261Y-62326497D01*
X101619431Y-62532732D01*
X101619432Y-62532734D01*
X101749954Y-62719141D01*
X101910858Y-62880045D01*
X101910861Y-62880047D01*
X102097266Y-63010568D01*
X102150589Y-63035433D01*
X102155275Y-63037618D01*
X102207714Y-63083791D01*
X102226866Y-63150984D01*
X102206650Y-63217865D01*
X102155275Y-63262382D01*
X102097267Y-63289431D01*
X102097265Y-63289432D01*
X101910858Y-63419954D01*
X101749954Y-63580858D01*
X101619432Y-63767265D01*
X101619431Y-63767267D01*
X101523261Y-63973502D01*
X101523258Y-63973511D01*
X101464366Y-64193302D01*
X101464364Y-64193313D01*
X101444532Y-64419998D01*
X101444532Y-64420001D01*
X101464364Y-64646686D01*
X101464366Y-64646697D01*
X101523258Y-64866488D01*
X101523261Y-64866497D01*
X101619431Y-65072732D01*
X101619432Y-65072734D01*
X101749954Y-65259141D01*
X101910858Y-65420045D01*
X101910861Y-65420047D01*
X102097266Y-65550568D01*
X102155865Y-65577893D01*
X102208305Y-65624065D01*
X102227457Y-65691258D01*
X102207242Y-65758139D01*
X102155867Y-65802657D01*
X102097515Y-65829867D01*
X101911179Y-65960342D01*
X101750342Y-66121179D01*
X101619865Y-66307517D01*
X101523734Y-66513673D01*
X101523730Y-66513682D01*
X101471127Y-66709999D01*
X101471128Y-66710000D01*
X102434314Y-66710000D01*
X102429920Y-66714394D01*
X102377259Y-66805606D01*
X102350000Y-66907339D01*
X102350000Y-67012661D01*
X102377259Y-67114394D01*
X102429920Y-67205606D01*
X102434314Y-67210000D01*
X101471128Y-67210000D01*
X101523730Y-67406317D01*
X101523734Y-67406326D01*
X101619865Y-67612482D01*
X101750342Y-67798820D01*
X101911179Y-67959657D01*
X102097518Y-68090134D01*
X102097520Y-68090135D01*
X102155865Y-68117342D01*
X102208305Y-68163514D01*
X102227457Y-68230707D01*
X102207242Y-68297589D01*
X102155867Y-68342105D01*
X102097268Y-68369431D01*
X102097264Y-68369433D01*
X101910858Y-68499954D01*
X101749954Y-68660858D01*
X101619432Y-68847265D01*
X101619431Y-68847267D01*
X101523261Y-69053502D01*
X101523258Y-69053511D01*
X101464366Y-69273302D01*
X101464364Y-69273313D01*
X101444532Y-69499998D01*
X101444532Y-69500001D01*
X101464364Y-69726686D01*
X101464366Y-69726697D01*
X101523258Y-69946488D01*
X101523261Y-69946497D01*
X101619431Y-70152732D01*
X101619432Y-70152734D01*
X101749954Y-70339141D01*
X101910858Y-70500045D01*
X101910861Y-70500047D01*
X102097266Y-70630568D01*
X102127212Y-70644532D01*
X102155275Y-70657618D01*
X102207714Y-70703791D01*
X102226866Y-70770984D01*
X102206650Y-70837865D01*
X102155275Y-70882382D01*
X102097267Y-70909431D01*
X102097265Y-70909432D01*
X101910858Y-71039954D01*
X101749954Y-71200858D01*
X101619432Y-71387265D01*
X101619431Y-71387267D01*
X101523261Y-71593502D01*
X101523258Y-71593511D01*
X101464366Y-71813302D01*
X101464364Y-71813313D01*
X101444532Y-72039998D01*
X101444532Y-72040001D01*
X101464364Y-72266686D01*
X101464366Y-72266697D01*
X101523258Y-72486488D01*
X101523261Y-72486497D01*
X101619431Y-72692732D01*
X101619432Y-72692734D01*
X101749954Y-72879141D01*
X101910858Y-73040045D01*
X101910861Y-73040047D01*
X102097266Y-73170568D01*
X102151610Y-73195909D01*
X102155275Y-73197618D01*
X102207714Y-73243791D01*
X102226866Y-73310984D01*
X102206650Y-73377865D01*
X102155275Y-73422382D01*
X102097267Y-73449431D01*
X102097265Y-73449432D01*
X101910858Y-73579954D01*
X101749954Y-73740858D01*
X101619432Y-73927265D01*
X101619431Y-73927267D01*
X101523261Y-74133502D01*
X101523258Y-74133511D01*
X101464366Y-74353302D01*
X101464364Y-74353313D01*
X101444532Y-74579998D01*
X101444532Y-74580001D01*
X101464364Y-74806686D01*
X101464366Y-74806697D01*
X101523258Y-75026488D01*
X101523261Y-75026497D01*
X101619431Y-75232732D01*
X101619432Y-75232734D01*
X101749954Y-75419141D01*
X101910858Y-75580045D01*
X101910861Y-75580047D01*
X102097266Y-75710568D01*
X102155275Y-75737618D01*
X102207714Y-75783791D01*
X102226866Y-75850984D01*
X102206650Y-75917865D01*
X102155275Y-75962382D01*
X102097267Y-75989431D01*
X102097265Y-75989432D01*
X101910858Y-76119954D01*
X101749954Y-76280858D01*
X101619432Y-76467265D01*
X101619431Y-76467267D01*
X101523261Y-76673502D01*
X101523258Y-76673511D01*
X101464366Y-76893302D01*
X101464364Y-76893313D01*
X101444532Y-77119998D01*
X101444532Y-77120001D01*
X23500500Y-77120001D01*
X23500500Y-76250003D01*
X94694435Y-76250003D01*
X94714630Y-76429249D01*
X94714631Y-76429254D01*
X94774211Y-76599523D01*
X94820697Y-76673504D01*
X94870184Y-76752262D01*
X94997738Y-76879816D01*
X95150478Y-76975789D01*
X95320745Y-77035368D01*
X95320750Y-77035369D01*
X95499996Y-77055565D01*
X95500000Y-77055565D01*
X95500004Y-77055565D01*
X95679249Y-77035369D01*
X95679252Y-77035368D01*
X95679255Y-77035368D01*
X95849522Y-76975789D01*
X96002262Y-76879816D01*
X96129816Y-76752262D01*
X96225789Y-76599522D01*
X96285368Y-76429255D01*
X96302088Y-76280861D01*
X96305565Y-76250003D01*
X96305565Y-76249996D01*
X96285369Y-76070750D01*
X96285368Y-76070745D01*
X96225788Y-75900476D01*
X96156685Y-75790500D01*
X96129816Y-75747738D01*
X96129814Y-75747736D01*
X96129813Y-75747734D01*
X96127550Y-75744896D01*
X96126659Y-75742715D01*
X96126111Y-75741842D01*
X96126264Y-75741745D01*
X96101144Y-75680209D01*
X96100500Y-75667587D01*
X96100500Y-74332412D01*
X96120185Y-74265373D01*
X96127555Y-74255097D01*
X96129810Y-74252267D01*
X96129816Y-74252262D01*
X96225789Y-74099522D01*
X96285368Y-73929255D01*
X96285592Y-73927266D01*
X96305565Y-73750003D01*
X96305565Y-73749996D01*
X96285369Y-73570750D01*
X96285368Y-73570745D01*
X96225789Y-73400478D01*
X96210540Y-73376210D01*
X96154856Y-73287589D01*
X96129816Y-73247738D01*
X96002262Y-73120184D01*
X95938526Y-73080136D01*
X95849523Y-73024211D01*
X95679254Y-72964631D01*
X95679249Y-72964630D01*
X95500004Y-72944435D01*
X95499996Y-72944435D01*
X95320750Y-72964630D01*
X95320745Y-72964631D01*
X95150476Y-73024211D01*
X94997737Y-73120184D01*
X94870184Y-73247737D01*
X94774211Y-73400476D01*
X94714631Y-73570745D01*
X94714630Y-73570750D01*
X94694435Y-73749996D01*
X94694435Y-73750003D01*
X94714630Y-73929249D01*
X94714631Y-73929254D01*
X94774211Y-74099523D01*
X94870185Y-74252263D01*
X94872445Y-74255097D01*
X94873334Y-74257275D01*
X94873889Y-74258158D01*
X94873734Y-74258255D01*
X94898855Y-74319783D01*
X94899500Y-74332412D01*
X94899500Y-75667587D01*
X94879815Y-75734626D01*
X94872450Y-75744896D01*
X94870186Y-75747734D01*
X94774211Y-75900476D01*
X94714631Y-76070745D01*
X94714630Y-76070750D01*
X94694435Y-76249996D01*
X94694435Y-76250003D01*
X23500500Y-76250003D01*
X23500500Y-74490001D01*
X66074532Y-74490001D01*
X66094364Y-74716686D01*
X66094366Y-74716697D01*
X66153258Y-74936488D01*
X66153261Y-74936497D01*
X66249431Y-75142732D01*
X66249432Y-75142734D01*
X66379954Y-75329141D01*
X66540858Y-75490045D01*
X66540861Y-75490047D01*
X66727266Y-75620568D01*
X66933504Y-75716739D01*
X67153308Y-75775635D01*
X67315230Y-75789801D01*
X67379998Y-75795468D01*
X67380000Y-75795468D01*
X67380002Y-75795468D01*
X67436807Y-75790498D01*
X67606692Y-75775635D01*
X67826496Y-75716739D01*
X68032734Y-75620568D01*
X68219139Y-75490047D01*
X68380047Y-75329139D01*
X68510568Y-75142734D01*
X68606739Y-74936496D01*
X68665635Y-74716692D01*
X68685468Y-74490000D01*
X68665635Y-74263308D01*
X68606739Y-74043504D01*
X68510568Y-73837266D01*
X68380047Y-73650861D01*
X68380045Y-73650858D01*
X68219141Y-73489954D01*
X68059059Y-73377865D01*
X68032734Y-73359432D01*
X67974132Y-73332105D01*
X67921694Y-73285933D01*
X67902543Y-73218739D01*
X67922759Y-73151858D01*
X67974135Y-73107341D01*
X68032482Y-73080133D01*
X68105471Y-73029024D01*
X67550234Y-72473787D01*
X67592292Y-72462518D01*
X67717708Y-72390110D01*
X67820110Y-72287708D01*
X67892518Y-72162292D01*
X67903787Y-72120234D01*
X68459024Y-72675471D01*
X68510136Y-72602478D01*
X68606264Y-72396331D01*
X68606269Y-72396317D01*
X68665139Y-72176610D01*
X68665141Y-72176599D01*
X68684966Y-71950002D01*
X68684966Y-71950001D01*
X81314532Y-71950001D01*
X81334364Y-72176686D01*
X81334366Y-72176697D01*
X81393258Y-72396488D01*
X81393261Y-72396497D01*
X81489431Y-72602732D01*
X81489432Y-72602734D01*
X81619954Y-72789141D01*
X81780858Y-72950045D01*
X81805462Y-72967273D01*
X81849087Y-73021849D01*
X81856281Y-73091348D01*
X81824758Y-73153703D01*
X81764529Y-73189117D01*
X81747593Y-73192138D01*
X81712516Y-73195908D01*
X81577671Y-73246202D01*
X81577664Y-73246206D01*
X81462455Y-73332452D01*
X81462452Y-73332455D01*
X81376206Y-73447664D01*
X81376202Y-73447671D01*
X81325908Y-73582517D01*
X81319501Y-73642116D01*
X81319501Y-73642123D01*
X81319500Y-73642135D01*
X81319500Y-75337870D01*
X81319501Y-75337876D01*
X81325908Y-75397483D01*
X81376202Y-75532328D01*
X81376206Y-75532335D01*
X81462452Y-75647544D01*
X81462455Y-75647547D01*
X81577664Y-75733793D01*
X81577671Y-75733797D01*
X81712517Y-75784091D01*
X81712516Y-75784091D01*
X81719444Y-75784835D01*
X81772127Y-75790500D01*
X83467872Y-75790499D01*
X83527483Y-75784091D01*
X83662331Y-75733796D01*
X83777546Y-75647546D01*
X83863796Y-75532331D01*
X83914091Y-75397483D01*
X83920500Y-75337873D01*
X83920499Y-73642128D01*
X83914091Y-73582517D01*
X83909702Y-73570750D01*
X83883315Y-73500001D01*
X89994390Y-73500001D01*
X90014804Y-73785433D01*
X90075628Y-74065037D01*
X90075630Y-74065043D01*
X90075631Y-74065046D01*
X90170643Y-74319783D01*
X90175635Y-74333166D01*
X90312770Y-74584309D01*
X90312775Y-74584317D01*
X90484254Y-74813387D01*
X90484270Y-74813405D01*
X90686594Y-75015729D01*
X90686612Y-75015745D01*
X90915682Y-75187224D01*
X90915690Y-75187229D01*
X91166833Y-75324364D01*
X91166832Y-75324364D01*
X91166836Y-75324365D01*
X91166839Y-75324367D01*
X91434954Y-75424369D01*
X91434960Y-75424370D01*
X91434962Y-75424371D01*
X91714566Y-75485195D01*
X91714568Y-75485195D01*
X91714572Y-75485196D01*
X91968220Y-75503337D01*
X91999999Y-75505610D01*
X92000000Y-75505610D01*
X92000001Y-75505610D01*
X92028595Y-75503564D01*
X92285428Y-75485196D01*
X92565046Y-75424369D01*
X92833161Y-75324367D01*
X93084315Y-75187226D01*
X93313395Y-75015739D01*
X93515739Y-74813395D01*
X93687226Y-74584315D01*
X93824367Y-74333161D01*
X93924369Y-74065046D01*
X93929056Y-74043502D01*
X93985195Y-73785433D01*
X93985195Y-73785432D01*
X93985196Y-73785428D01*
X94005610Y-73500000D01*
X94004891Y-73489953D01*
X93996756Y-73376210D01*
X93985196Y-73214572D01*
X93978661Y-73184532D01*
X93924371Y-72934962D01*
X93924370Y-72934960D01*
X93924369Y-72934954D01*
X93824367Y-72666839D01*
X93725892Y-72486497D01*
X93687229Y-72415690D01*
X93687224Y-72415682D01*
X93515745Y-72186612D01*
X93515729Y-72186594D01*
X93313405Y-71984270D01*
X93313387Y-71984254D01*
X93084317Y-71812775D01*
X93084309Y-71812770D01*
X92833166Y-71675635D01*
X92833167Y-71675635D01*
X92725915Y-71635632D01*
X92565046Y-71575631D01*
X92565043Y-71575630D01*
X92565037Y-71575628D01*
X92285433Y-71514804D01*
X92000001Y-71494390D01*
X91999999Y-71494390D01*
X91714566Y-71514804D01*
X91434962Y-71575628D01*
X91166833Y-71675635D01*
X90915690Y-71812770D01*
X90915682Y-71812775D01*
X90686612Y-71984254D01*
X90686594Y-71984270D01*
X90484270Y-72186594D01*
X90484254Y-72186612D01*
X90312775Y-72415682D01*
X90312770Y-72415690D01*
X90175635Y-72666833D01*
X90075628Y-72934962D01*
X90014804Y-73214566D01*
X89994390Y-73499998D01*
X89994390Y-73500001D01*
X83883315Y-73500001D01*
X83863797Y-73447671D01*
X83863793Y-73447664D01*
X83777547Y-73332455D01*
X83777544Y-73332452D01*
X83662335Y-73246206D01*
X83662328Y-73246202D01*
X83527482Y-73195908D01*
X83527483Y-73195908D01*
X83492404Y-73192137D01*
X83427853Y-73165399D01*
X83388005Y-73108006D01*
X83385512Y-73038181D01*
X83421165Y-72978092D01*
X83434539Y-72967272D01*
X83459140Y-72950046D01*
X83620045Y-72789141D01*
X83620047Y-72789139D01*
X83750568Y-72602734D01*
X83846739Y-72396496D01*
X83905635Y-72176692D01*
X83925468Y-71950000D01*
X83905635Y-71723308D01*
X83846739Y-71503504D01*
X83750568Y-71297266D01*
X83620047Y-71110861D01*
X83620045Y-71110858D01*
X83459141Y-70949954D01*
X83299059Y-70837865D01*
X83272734Y-70819432D01*
X83214132Y-70792105D01*
X83161694Y-70745933D01*
X83142543Y-70678739D01*
X83162759Y-70611858D01*
X83214135Y-70567341D01*
X83272482Y-70540133D01*
X83345471Y-70489024D01*
X82790234Y-69933787D01*
X82832292Y-69922518D01*
X82957708Y-69850110D01*
X83060110Y-69747708D01*
X83132518Y-69622292D01*
X83143787Y-69580234D01*
X83699024Y-70135471D01*
X83750136Y-70062478D01*
X83846264Y-69856331D01*
X83846269Y-69856317D01*
X83905139Y-69636610D01*
X83905141Y-69636599D01*
X83924966Y-69410002D01*
X83924966Y-69409997D01*
X83905141Y-69183400D01*
X83905139Y-69183389D01*
X83846269Y-68963682D01*
X83846264Y-68963668D01*
X83750136Y-68757521D01*
X83750132Y-68757513D01*
X83699025Y-68684526D01*
X83143787Y-69239764D01*
X83132518Y-69197708D01*
X83060110Y-69072292D01*
X82957708Y-68969890D01*
X82832292Y-68897482D01*
X82790234Y-68886212D01*
X83345472Y-68330974D01*
X83272478Y-68279863D01*
X83213544Y-68252382D01*
X83161104Y-68206210D01*
X83141952Y-68139017D01*
X83162167Y-68072136D01*
X83213544Y-68027618D01*
X83272478Y-68000136D01*
X83345471Y-67949024D01*
X82790234Y-67393787D01*
X82832292Y-67382518D01*
X82957708Y-67310110D01*
X83060110Y-67207708D01*
X83132518Y-67082292D01*
X83143787Y-67040234D01*
X83699024Y-67595471D01*
X83750136Y-67522478D01*
X83846264Y-67316331D01*
X83846269Y-67316317D01*
X83905139Y-67096610D01*
X83905141Y-67096599D01*
X83924966Y-66870002D01*
X83924966Y-66869997D01*
X83905141Y-66643400D01*
X83905139Y-66643389D01*
X83846269Y-66423682D01*
X83846264Y-66423668D01*
X83750136Y-66217521D01*
X83750132Y-66217513D01*
X83699025Y-66144526D01*
X83143787Y-66699764D01*
X83132518Y-66657708D01*
X83060110Y-66532292D01*
X82957708Y-66429890D01*
X82832292Y-66357482D01*
X82790234Y-66346212D01*
X83345472Y-65790974D01*
X83272480Y-65739864D01*
X83214134Y-65712657D01*
X83161695Y-65666484D01*
X83142543Y-65599291D01*
X83162759Y-65532410D01*
X83214134Y-65487893D01*
X83272734Y-65460568D01*
X83459139Y-65330047D01*
X83620047Y-65169139D01*
X83750568Y-64982734D01*
X83846739Y-64776496D01*
X83905635Y-64556692D01*
X83925468Y-64330000D01*
X83905635Y-64103308D01*
X83846739Y-63883504D01*
X83750568Y-63677266D01*
X83620047Y-63490861D01*
X83620045Y-63490858D01*
X83459141Y-63329954D01*
X83272734Y-63199432D01*
X83272728Y-63199429D01*
X83214725Y-63172382D01*
X83162285Y-63126210D01*
X83143133Y-63059017D01*
X83163348Y-62992135D01*
X83214725Y-62947618D01*
X83272734Y-62920568D01*
X83459139Y-62790047D01*
X83499185Y-62750001D01*
X92494390Y-62750001D01*
X92514804Y-63035433D01*
X92575628Y-63315037D01*
X92575630Y-63315043D01*
X92575631Y-63315046D01*
X92665340Y-63555565D01*
X92675635Y-63583166D01*
X92812770Y-63834309D01*
X92812775Y-63834317D01*
X92984254Y-64063387D01*
X92984270Y-64063405D01*
X93186594Y-64265729D01*
X93186612Y-64265745D01*
X93415682Y-64437224D01*
X93415690Y-64437229D01*
X93666833Y-64574364D01*
X93666832Y-64574364D01*
X93666836Y-64574365D01*
X93666839Y-64574367D01*
X93934954Y-64674369D01*
X93934960Y-64674370D01*
X93934962Y-64674371D01*
X94214566Y-64735195D01*
X94214568Y-64735195D01*
X94214572Y-64735196D01*
X94468220Y-64753337D01*
X94499999Y-64755610D01*
X94500000Y-64755610D01*
X94500001Y-64755610D01*
X94528595Y-64753564D01*
X94785428Y-64735196D01*
X94828672Y-64725789D01*
X95065037Y-64674371D01*
X95065037Y-64674370D01*
X95065046Y-64674369D01*
X95333161Y-64574367D01*
X95584315Y-64437226D01*
X95813395Y-64265739D01*
X96015739Y-64063395D01*
X96187226Y-63834315D01*
X96324367Y-63583161D01*
X96424369Y-63315046D01*
X96435825Y-63262382D01*
X96485195Y-63035433D01*
X96485195Y-63035432D01*
X96485196Y-63035428D01*
X96505610Y-62750000D01*
X96485196Y-62464572D01*
X96484161Y-62459816D01*
X96424371Y-62184962D01*
X96424370Y-62184960D01*
X96424369Y-62184954D01*
X96324367Y-61916839D01*
X96304251Y-61880000D01*
X96187229Y-61665690D01*
X96187224Y-61665682D01*
X96015745Y-61436612D01*
X96015729Y-61436594D01*
X95813405Y-61234270D01*
X95813387Y-61234254D01*
X95584317Y-61062775D01*
X95584309Y-61062770D01*
X95333166Y-60925635D01*
X95333167Y-60925635D01*
X95210691Y-60879954D01*
X95065046Y-60825631D01*
X95065043Y-60825630D01*
X95065037Y-60825628D01*
X94785433Y-60764804D01*
X94500001Y-60744390D01*
X94499999Y-60744390D01*
X94214566Y-60764804D01*
X93934962Y-60825628D01*
X93666833Y-60925635D01*
X93415690Y-61062770D01*
X93415682Y-61062775D01*
X93186612Y-61234254D01*
X93186594Y-61234270D01*
X92984270Y-61436594D01*
X92984254Y-61436612D01*
X92812775Y-61665682D01*
X92812770Y-61665690D01*
X92675635Y-61916833D01*
X92575628Y-62184962D01*
X92514804Y-62464566D01*
X92494390Y-62749998D01*
X92494390Y-62750001D01*
X83499185Y-62750001D01*
X83620047Y-62629139D01*
X83750568Y-62442734D01*
X83846739Y-62236496D01*
X83905635Y-62016692D01*
X83925468Y-61790000D01*
X83905635Y-61563308D01*
X83846739Y-61343504D01*
X83750568Y-61137266D01*
X83620047Y-60950861D01*
X83620045Y-60950858D01*
X83459141Y-60789954D01*
X83272734Y-60659432D01*
X83272728Y-60659429D01*
X83214725Y-60632382D01*
X83162285Y-60586210D01*
X83143133Y-60519017D01*
X83163348Y-60452135D01*
X83214725Y-60407618D01*
X83272734Y-60380568D01*
X83459139Y-60250047D01*
X83620047Y-60089139D01*
X83750568Y-59902734D01*
X83846739Y-59696496D01*
X83905635Y-59476692D01*
X83925468Y-59250000D01*
X83905635Y-59023308D01*
X83846739Y-58803504D01*
X83750568Y-58597266D01*
X83620047Y-58410861D01*
X83620045Y-58410858D01*
X83459141Y-58249954D01*
X83272734Y-58119432D01*
X83272728Y-58119429D01*
X83215015Y-58092517D01*
X83214724Y-58092381D01*
X83162285Y-58046210D01*
X83143133Y-57979017D01*
X83163348Y-57912135D01*
X83214725Y-57867618D01*
X83272734Y-57840568D01*
X83459139Y-57710047D01*
X83620047Y-57549139D01*
X83750568Y-57362734D01*
X83846739Y-57156496D01*
X83905635Y-56936692D01*
X83925468Y-56710000D01*
X83905635Y-56483308D01*
X83846739Y-56263504D01*
X83750568Y-56057266D01*
X83620047Y-55870861D01*
X83620045Y-55870858D01*
X83459141Y-55709954D01*
X83272734Y-55579432D01*
X83272728Y-55579429D01*
X83214725Y-55552382D01*
X83162285Y-55506210D01*
X83143133Y-55439017D01*
X83163348Y-55372135D01*
X83214725Y-55327618D01*
X83272734Y-55300568D01*
X83459139Y-55170047D01*
X83620047Y-55009139D01*
X83750568Y-54822734D01*
X83846739Y-54616496D01*
X83905635Y-54396692D01*
X83925468Y-54170000D01*
X83905635Y-53943308D01*
X83860916Y-53776415D01*
X83846741Y-53723511D01*
X83846738Y-53723502D01*
X83792536Y-53607266D01*
X83750568Y-53517266D01*
X83638732Y-53357546D01*
X83620045Y-53330858D01*
X83459141Y-53169954D01*
X83272734Y-53039432D01*
X83272728Y-53039429D01*
X83214725Y-53012382D01*
X83162285Y-52966210D01*
X83143133Y-52899017D01*
X83163348Y-52832135D01*
X83214725Y-52787618D01*
X83272734Y-52760568D01*
X83459139Y-52630047D01*
X83620047Y-52469139D01*
X83750568Y-52282734D01*
X83846739Y-52076496D01*
X83905635Y-51856692D01*
X83925468Y-51630000D01*
X83905635Y-51403308D01*
X83846739Y-51183504D01*
X83750568Y-50977266D01*
X83620047Y-50790861D01*
X83620045Y-50790858D01*
X83459141Y-50629954D01*
X83272734Y-50499432D01*
X83272728Y-50499429D01*
X83214725Y-50472382D01*
X83162285Y-50426210D01*
X83143133Y-50359017D01*
X83163348Y-50292135D01*
X83214725Y-50247618D01*
X83272734Y-50220568D01*
X83459139Y-50090047D01*
X83620047Y-49929139D01*
X83750568Y-49742734D01*
X83846739Y-49536496D01*
X83905635Y-49316692D01*
X83923969Y-49107129D01*
X83925468Y-49090001D01*
X83925468Y-49089998D01*
X83915002Y-48970371D01*
X83905635Y-48863308D01*
X83846739Y-48643504D01*
X83750568Y-48437266D01*
X83620047Y-48250861D01*
X83620045Y-48250858D01*
X83459141Y-48089954D01*
X83272734Y-47959432D01*
X83272728Y-47959429D01*
X83214725Y-47932382D01*
X83162285Y-47886210D01*
X83143133Y-47819017D01*
X83163348Y-47752135D01*
X83214725Y-47707618D01*
X83272734Y-47680568D01*
X83459139Y-47550047D01*
X83620047Y-47389139D01*
X83750568Y-47202734D01*
X83846739Y-46996496D01*
X83905635Y-46776692D01*
X83925468Y-46550000D01*
X83905635Y-46323308D01*
X83846739Y-46103504D01*
X83750568Y-45897266D01*
X83620047Y-45710861D01*
X83620045Y-45710858D01*
X83459141Y-45549954D01*
X83272734Y-45419432D01*
X83272732Y-45419431D01*
X83066497Y-45323261D01*
X83066488Y-45323258D01*
X82846697Y-45264366D01*
X82846693Y-45264365D01*
X82846692Y-45264365D01*
X82846691Y-45264364D01*
X82846686Y-45264364D01*
X82620002Y-45244532D01*
X82619998Y-45244532D01*
X82393313Y-45264364D01*
X82393302Y-45264366D01*
X82173511Y-45323258D01*
X82173502Y-45323261D01*
X81967267Y-45419431D01*
X81967265Y-45419432D01*
X81780858Y-45549954D01*
X81619954Y-45710858D01*
X81489432Y-45897265D01*
X81489431Y-45897267D01*
X81393261Y-46103502D01*
X81393258Y-46103511D01*
X81334366Y-46323302D01*
X81334364Y-46323313D01*
X81314532Y-46549998D01*
X81314532Y-46550001D01*
X81334364Y-46776686D01*
X81334366Y-46776697D01*
X81393258Y-46996488D01*
X81393261Y-46996497D01*
X81489431Y-47202732D01*
X81489432Y-47202734D01*
X81619954Y-47389141D01*
X81780858Y-47550045D01*
X81780861Y-47550047D01*
X81967266Y-47680568D01*
X82025275Y-47707618D01*
X82077714Y-47753791D01*
X82096866Y-47820984D01*
X82076650Y-47887865D01*
X82025275Y-47932382D01*
X81967267Y-47959431D01*
X81967265Y-47959432D01*
X81780858Y-48089954D01*
X81619954Y-48250858D01*
X81489432Y-48437265D01*
X81489431Y-48437267D01*
X81393261Y-48643502D01*
X81393258Y-48643511D01*
X81334366Y-48863302D01*
X81334364Y-48863313D01*
X81314532Y-49089998D01*
X81314532Y-49090001D01*
X81334364Y-49316686D01*
X81334366Y-49316697D01*
X81393258Y-49536488D01*
X81393261Y-49536497D01*
X81489431Y-49742732D01*
X81489432Y-49742734D01*
X81619954Y-49929141D01*
X81780858Y-50090045D01*
X81780861Y-50090047D01*
X81967266Y-50220568D01*
X82025275Y-50247618D01*
X82077714Y-50293791D01*
X82096866Y-50360984D01*
X82076650Y-50427865D01*
X82025275Y-50472382D01*
X81967267Y-50499431D01*
X81967265Y-50499432D01*
X81780858Y-50629954D01*
X81619954Y-50790858D01*
X81489432Y-50977265D01*
X81489431Y-50977267D01*
X81393261Y-51183502D01*
X81393258Y-51183511D01*
X81334366Y-51403302D01*
X81334364Y-51403313D01*
X81314532Y-51629998D01*
X81314532Y-51630001D01*
X81334364Y-51856686D01*
X81334366Y-51856697D01*
X81393258Y-52076488D01*
X81393261Y-52076497D01*
X81489431Y-52282732D01*
X81489432Y-52282734D01*
X81619954Y-52469141D01*
X81780858Y-52630045D01*
X81780861Y-52630047D01*
X81967266Y-52760568D01*
X82025275Y-52787618D01*
X82077714Y-52833791D01*
X82096866Y-52900984D01*
X82076650Y-52967865D01*
X82025275Y-53012382D01*
X81967267Y-53039431D01*
X81967265Y-53039432D01*
X81780858Y-53169954D01*
X81619954Y-53330858D01*
X81489432Y-53517265D01*
X81489431Y-53517267D01*
X81393261Y-53723502D01*
X81393258Y-53723511D01*
X81334366Y-53943302D01*
X81334364Y-53943313D01*
X81314532Y-54169998D01*
X81314532Y-54170001D01*
X81334364Y-54396686D01*
X81334366Y-54396697D01*
X81393258Y-54616488D01*
X81393261Y-54616497D01*
X81489431Y-54822732D01*
X81489432Y-54822734D01*
X81619954Y-55009141D01*
X81780858Y-55170045D01*
X81780861Y-55170047D01*
X81967266Y-55300568D01*
X82025275Y-55327618D01*
X82077714Y-55373791D01*
X82096866Y-55440984D01*
X82076650Y-55507865D01*
X82025275Y-55552382D01*
X81967267Y-55579431D01*
X81967265Y-55579432D01*
X81780858Y-55709954D01*
X81619954Y-55870858D01*
X81489432Y-56057265D01*
X81489431Y-56057267D01*
X81393261Y-56263502D01*
X81393258Y-56263511D01*
X81334366Y-56483302D01*
X81334364Y-56483313D01*
X81314532Y-56709998D01*
X81314532Y-56710001D01*
X81334364Y-56936686D01*
X81334366Y-56936697D01*
X81393258Y-57156488D01*
X81393261Y-57156497D01*
X81489431Y-57362732D01*
X81489432Y-57362734D01*
X81619954Y-57549141D01*
X81780858Y-57710045D01*
X81780861Y-57710047D01*
X81967266Y-57840568D01*
X82025275Y-57867618D01*
X82077714Y-57913791D01*
X82096866Y-57980984D01*
X82076650Y-58047865D01*
X82025275Y-58092381D01*
X82024985Y-58092517D01*
X81967267Y-58119431D01*
X81967265Y-58119432D01*
X81780858Y-58249954D01*
X81619954Y-58410858D01*
X81489432Y-58597265D01*
X81489431Y-58597267D01*
X81393261Y-58803502D01*
X81393258Y-58803511D01*
X81334366Y-59023302D01*
X81334364Y-59023313D01*
X81314532Y-59249998D01*
X81314532Y-59250001D01*
X81334364Y-59476686D01*
X81334366Y-59476697D01*
X81393258Y-59696488D01*
X81393261Y-59696497D01*
X81489431Y-59902732D01*
X81489432Y-59902734D01*
X81619954Y-60089141D01*
X81780858Y-60250045D01*
X81780861Y-60250047D01*
X81967266Y-60380568D01*
X82025275Y-60407618D01*
X82077714Y-60453791D01*
X82096866Y-60520984D01*
X82076650Y-60587865D01*
X82025275Y-60632382D01*
X81967267Y-60659431D01*
X81967265Y-60659432D01*
X81780858Y-60789954D01*
X81619954Y-60950858D01*
X81489432Y-61137265D01*
X81489431Y-61137267D01*
X81393261Y-61343502D01*
X81393258Y-61343511D01*
X81334366Y-61563302D01*
X81334364Y-61563313D01*
X81314532Y-61789998D01*
X81314532Y-61790001D01*
X81334364Y-62016686D01*
X81334366Y-62016697D01*
X81393258Y-62236488D01*
X81393261Y-62236497D01*
X81489431Y-62442732D01*
X81489432Y-62442734D01*
X81619954Y-62629141D01*
X81780858Y-62790045D01*
X81780861Y-62790047D01*
X81967266Y-62920568D01*
X82025275Y-62947618D01*
X82077714Y-62993791D01*
X82096866Y-63060984D01*
X82076650Y-63127865D01*
X82025275Y-63172382D01*
X81967267Y-63199431D01*
X81967265Y-63199432D01*
X81780858Y-63329954D01*
X81619954Y-63490858D01*
X81489432Y-63677265D01*
X81489431Y-63677267D01*
X81393261Y-63883502D01*
X81393258Y-63883511D01*
X81334366Y-64103302D01*
X81334364Y-64103313D01*
X81314532Y-64329998D01*
X81314532Y-64330001D01*
X81334364Y-64556686D01*
X81334366Y-64556697D01*
X81393258Y-64776488D01*
X81393261Y-64776497D01*
X81489431Y-64982732D01*
X81489432Y-64982734D01*
X81619954Y-65169141D01*
X81780858Y-65330045D01*
X81780861Y-65330047D01*
X81967266Y-65460568D01*
X82025865Y-65487893D01*
X82078305Y-65534065D01*
X82097457Y-65601258D01*
X82077242Y-65668139D01*
X82025867Y-65712657D01*
X81967513Y-65739868D01*
X81967512Y-65739868D01*
X81894526Y-65790973D01*
X81894526Y-65790974D01*
X82449765Y-66346212D01*
X82407708Y-66357482D01*
X82282292Y-66429890D01*
X82179890Y-66532292D01*
X82107482Y-66657708D01*
X82096212Y-66699764D01*
X81540974Y-66144526D01*
X81540973Y-66144526D01*
X81489868Y-66217512D01*
X81489866Y-66217516D01*
X81393734Y-66423673D01*
X81393730Y-66423682D01*
X81334860Y-66643389D01*
X81334858Y-66643400D01*
X81315034Y-66869997D01*
X81315034Y-66870002D01*
X81334858Y-67096599D01*
X81334860Y-67096610D01*
X81393730Y-67316317D01*
X81393735Y-67316331D01*
X81489863Y-67522478D01*
X81540974Y-67595472D01*
X82096212Y-67040234D01*
X82107482Y-67082292D01*
X82179890Y-67207708D01*
X82282292Y-67310110D01*
X82407708Y-67382518D01*
X82449765Y-67393787D01*
X81894526Y-67949025D01*
X81967513Y-68000132D01*
X81967517Y-68000134D01*
X82026456Y-68027618D01*
X82078895Y-68073790D01*
X82098047Y-68140984D01*
X82077831Y-68207865D01*
X82026457Y-68252382D01*
X81967512Y-68279868D01*
X81894526Y-68330973D01*
X81894526Y-68330974D01*
X82449765Y-68886212D01*
X82407708Y-68897482D01*
X82282292Y-68969890D01*
X82179890Y-69072292D01*
X82107482Y-69197708D01*
X82096212Y-69239764D01*
X81540974Y-68684526D01*
X81540973Y-68684526D01*
X81489868Y-68757512D01*
X81489866Y-68757516D01*
X81393734Y-68963673D01*
X81393730Y-68963682D01*
X81334860Y-69183389D01*
X81334858Y-69183400D01*
X81315034Y-69409997D01*
X81315034Y-69410002D01*
X81334858Y-69636599D01*
X81334860Y-69636610D01*
X81393730Y-69856317D01*
X81393735Y-69856331D01*
X81489863Y-70062478D01*
X81540974Y-70135472D01*
X82096212Y-69580234D01*
X82107482Y-69622292D01*
X82179890Y-69747708D01*
X82282292Y-69850110D01*
X82407708Y-69922518D01*
X82449765Y-69933787D01*
X81894526Y-70489025D01*
X81967513Y-70540132D01*
X81967521Y-70540136D01*
X82025864Y-70567342D01*
X82078304Y-70613514D01*
X82097456Y-70680707D01*
X82077241Y-70747589D01*
X82025866Y-70792105D01*
X81967272Y-70819428D01*
X81967265Y-70819432D01*
X81780858Y-70949954D01*
X81619954Y-71110858D01*
X81489432Y-71297265D01*
X81489431Y-71297267D01*
X81393261Y-71503502D01*
X81393258Y-71503511D01*
X81334366Y-71723302D01*
X81334364Y-71723313D01*
X81314532Y-71949998D01*
X81314532Y-71950001D01*
X68684966Y-71950001D01*
X68684966Y-71949997D01*
X68665141Y-71723400D01*
X68665139Y-71723389D01*
X68606269Y-71503682D01*
X68606264Y-71503668D01*
X68510136Y-71297521D01*
X68510132Y-71297513D01*
X68459025Y-71224526D01*
X67903787Y-71779764D01*
X67892518Y-71737708D01*
X67820110Y-71612292D01*
X67717708Y-71509890D01*
X67592292Y-71437482D01*
X67550234Y-71426212D01*
X68105472Y-70870974D01*
X68032480Y-70819864D01*
X67974134Y-70792657D01*
X67921695Y-70746484D01*
X67902543Y-70679291D01*
X67922759Y-70612410D01*
X67974134Y-70567893D01*
X68032734Y-70540568D01*
X68219139Y-70410047D01*
X68380047Y-70249139D01*
X68510568Y-70062734D01*
X68606739Y-69856496D01*
X68665635Y-69636692D01*
X68685468Y-69410000D01*
X68665635Y-69183308D01*
X68606739Y-68963504D01*
X68510568Y-68757266D01*
X68380047Y-68570861D01*
X68380045Y-68570858D01*
X68219141Y-68409954D01*
X68032734Y-68279432D01*
X68032728Y-68279429D01*
X67974725Y-68252382D01*
X67922285Y-68206210D01*
X67903133Y-68139017D01*
X67923348Y-68072135D01*
X67974725Y-68027618D01*
X68032734Y-68000568D01*
X68219139Y-67870047D01*
X68380047Y-67709139D01*
X68510568Y-67522734D01*
X68606739Y-67316496D01*
X68665635Y-67096692D01*
X68685468Y-66870000D01*
X68665635Y-66643308D01*
X68606739Y-66423504D01*
X68510568Y-66217266D01*
X68380047Y-66030861D01*
X68380045Y-66030858D01*
X68219141Y-65869954D01*
X68032734Y-65739432D01*
X68032728Y-65739429D01*
X67974725Y-65712382D01*
X67922285Y-65666210D01*
X67903133Y-65599017D01*
X67923348Y-65532135D01*
X67974725Y-65487618D01*
X68032734Y-65460568D01*
X68219139Y-65330047D01*
X68380047Y-65169139D01*
X68510568Y-64982734D01*
X68606739Y-64776496D01*
X68665635Y-64556692D01*
X68685468Y-64330000D01*
X68665635Y-64103308D01*
X68606739Y-63883504D01*
X68510568Y-63677266D01*
X68380047Y-63490861D01*
X68380045Y-63490858D01*
X68219141Y-63329954D01*
X68032734Y-63199432D01*
X68032728Y-63199429D01*
X67974725Y-63172382D01*
X67922285Y-63126210D01*
X67903133Y-63059017D01*
X67923348Y-62992135D01*
X67974725Y-62947618D01*
X68032734Y-62920568D01*
X68219139Y-62790047D01*
X68380047Y-62629139D01*
X68510568Y-62442734D01*
X68606739Y-62236496D01*
X68665635Y-62016692D01*
X68685468Y-61790000D01*
X68665635Y-61563308D01*
X68606739Y-61343504D01*
X68510568Y-61137266D01*
X68380047Y-60950861D01*
X68380045Y-60950858D01*
X68219141Y-60789954D01*
X68032734Y-60659432D01*
X68032728Y-60659429D01*
X67974725Y-60632382D01*
X67922285Y-60586210D01*
X67903133Y-60519017D01*
X67923348Y-60452135D01*
X67974725Y-60407618D01*
X68032734Y-60380568D01*
X68219139Y-60250047D01*
X68380047Y-60089139D01*
X68510568Y-59902734D01*
X68606739Y-59696496D01*
X68665635Y-59476692D01*
X68685468Y-59250000D01*
X68665635Y-59023308D01*
X68606739Y-58803504D01*
X68510568Y-58597266D01*
X68380047Y-58410861D01*
X68380045Y-58410858D01*
X68219141Y-58249954D01*
X68032734Y-58119432D01*
X68032728Y-58119429D01*
X67975015Y-58092517D01*
X67974724Y-58092381D01*
X67922285Y-58046210D01*
X67903133Y-57979017D01*
X67923348Y-57912135D01*
X67974725Y-57867618D01*
X68032734Y-57840568D01*
X68219139Y-57710047D01*
X68380047Y-57549139D01*
X68510568Y-57362734D01*
X68606739Y-57156496D01*
X68665635Y-56936692D01*
X68685468Y-56710000D01*
X68665635Y-56483308D01*
X68606739Y-56263504D01*
X68510568Y-56057266D01*
X68380047Y-55870861D01*
X68380045Y-55870858D01*
X68219141Y-55709954D01*
X68032734Y-55579432D01*
X68032728Y-55579429D01*
X67974725Y-55552382D01*
X67922285Y-55506210D01*
X67903133Y-55439017D01*
X67923348Y-55372135D01*
X67974725Y-55327618D01*
X68032734Y-55300568D01*
X68219139Y-55170047D01*
X68380047Y-55009139D01*
X68510568Y-54822734D01*
X68606739Y-54616496D01*
X68665635Y-54396692D01*
X68685468Y-54170000D01*
X68665635Y-53943308D01*
X68620916Y-53776415D01*
X68606741Y-53723511D01*
X68606738Y-53723502D01*
X68552536Y-53607266D01*
X68510568Y-53517266D01*
X68398732Y-53357546D01*
X68380045Y-53330858D01*
X68219141Y-53169954D01*
X68032734Y-53039432D01*
X68032728Y-53039429D01*
X67974725Y-53012382D01*
X67922285Y-52966210D01*
X67903133Y-52899017D01*
X67923348Y-52832135D01*
X67974725Y-52787618D01*
X68032734Y-52760568D01*
X68219139Y-52630047D01*
X68380047Y-52469139D01*
X68510568Y-52282734D01*
X68606739Y-52076496D01*
X68665635Y-51856692D01*
X68685468Y-51630000D01*
X68665635Y-51403308D01*
X68606739Y-51183504D01*
X68510568Y-50977266D01*
X68380047Y-50790861D01*
X68380045Y-50790858D01*
X68219141Y-50629954D01*
X68032734Y-50499432D01*
X68032728Y-50499429D01*
X67974725Y-50472382D01*
X67922285Y-50426210D01*
X67903133Y-50359017D01*
X67923348Y-50292135D01*
X67974725Y-50247618D01*
X68032734Y-50220568D01*
X68219139Y-50090047D01*
X68380047Y-49929139D01*
X68510568Y-49742734D01*
X68606739Y-49536496D01*
X68665635Y-49316692D01*
X68683969Y-49107129D01*
X68685468Y-49090001D01*
X68685468Y-49089998D01*
X68675002Y-48970371D01*
X68665635Y-48863308D01*
X68606739Y-48643504D01*
X68510568Y-48437266D01*
X68380047Y-48250861D01*
X68380045Y-48250858D01*
X68219141Y-48089954D01*
X68032734Y-47959432D01*
X68032728Y-47959429D01*
X67974725Y-47932382D01*
X67922285Y-47886210D01*
X67903133Y-47819017D01*
X67923348Y-47752135D01*
X67974725Y-47707618D01*
X68032734Y-47680568D01*
X68219139Y-47550047D01*
X68380047Y-47389139D01*
X68510568Y-47202734D01*
X68606739Y-46996496D01*
X68665635Y-46776692D01*
X68685468Y-46550000D01*
X68665635Y-46323308D01*
X68606739Y-46103504D01*
X68510568Y-45897266D01*
X68380047Y-45710861D01*
X68380045Y-45710858D01*
X68219141Y-45549954D01*
X68032734Y-45419432D01*
X68032732Y-45419431D01*
X67826497Y-45323261D01*
X67826488Y-45323258D01*
X67606697Y-45264366D01*
X67606693Y-45264365D01*
X67606692Y-45264365D01*
X67606691Y-45264364D01*
X67606686Y-45264364D01*
X67380002Y-45244532D01*
X67379998Y-45244532D01*
X67153313Y-45264364D01*
X67153302Y-45264366D01*
X66933511Y-45323258D01*
X66933502Y-45323261D01*
X66727267Y-45419431D01*
X66727265Y-45419432D01*
X66540858Y-45549954D01*
X66379954Y-45710858D01*
X66249432Y-45897265D01*
X66249431Y-45897267D01*
X66153261Y-46103502D01*
X66153258Y-46103511D01*
X66094366Y-46323302D01*
X66094364Y-46323313D01*
X66074532Y-46549998D01*
X66074532Y-46550001D01*
X66094364Y-46776686D01*
X66094366Y-46776697D01*
X66153258Y-46996488D01*
X66153261Y-46996497D01*
X66249431Y-47202732D01*
X66249432Y-47202734D01*
X66379954Y-47389141D01*
X66540858Y-47550045D01*
X66540861Y-47550047D01*
X66727266Y-47680568D01*
X66785275Y-47707618D01*
X66837714Y-47753791D01*
X66856866Y-47820984D01*
X66836650Y-47887865D01*
X66785275Y-47932382D01*
X66727267Y-47959431D01*
X66727265Y-47959432D01*
X66540858Y-48089954D01*
X66379954Y-48250858D01*
X66249432Y-48437265D01*
X66249431Y-48437267D01*
X66153261Y-48643502D01*
X66153258Y-48643511D01*
X66094366Y-48863302D01*
X66094364Y-48863313D01*
X66074532Y-49089998D01*
X66074532Y-49090001D01*
X66094364Y-49316686D01*
X66094366Y-49316697D01*
X66153258Y-49536488D01*
X66153261Y-49536497D01*
X66249431Y-49742732D01*
X66249432Y-49742734D01*
X66379954Y-49929141D01*
X66540858Y-50090045D01*
X66540861Y-50090047D01*
X66727266Y-50220568D01*
X66785275Y-50247618D01*
X66837714Y-50293791D01*
X66856866Y-50360984D01*
X66836650Y-50427865D01*
X66785275Y-50472382D01*
X66727267Y-50499431D01*
X66727265Y-50499432D01*
X66540858Y-50629954D01*
X66379954Y-50790858D01*
X66249432Y-50977265D01*
X66249431Y-50977267D01*
X66153261Y-51183502D01*
X66153258Y-51183511D01*
X66094366Y-51403302D01*
X66094364Y-51403313D01*
X66074532Y-51629998D01*
X66074532Y-51630001D01*
X66094364Y-51856686D01*
X66094366Y-51856697D01*
X66153258Y-52076488D01*
X66153261Y-52076497D01*
X66249431Y-52282732D01*
X66249432Y-52282734D01*
X66379954Y-52469141D01*
X66540858Y-52630045D01*
X66540861Y-52630047D01*
X66727266Y-52760568D01*
X66785275Y-52787618D01*
X66837714Y-52833791D01*
X66856866Y-52900984D01*
X66836650Y-52967865D01*
X66785275Y-53012382D01*
X66727267Y-53039431D01*
X66727265Y-53039432D01*
X66540858Y-53169954D01*
X66379954Y-53330858D01*
X66249432Y-53517265D01*
X66249431Y-53517267D01*
X66153261Y-53723502D01*
X66153258Y-53723511D01*
X66094366Y-53943302D01*
X66094364Y-53943313D01*
X66074532Y-54169998D01*
X66074532Y-54170001D01*
X66094364Y-54396686D01*
X66094366Y-54396697D01*
X66153258Y-54616488D01*
X66153261Y-54616497D01*
X66249431Y-54822732D01*
X66249432Y-54822734D01*
X66379954Y-55009141D01*
X66540858Y-55170045D01*
X66540861Y-55170047D01*
X66727266Y-55300568D01*
X66785275Y-55327618D01*
X66837714Y-55373791D01*
X66856866Y-55440984D01*
X66836650Y-55507865D01*
X66785275Y-55552382D01*
X66727267Y-55579431D01*
X66727265Y-55579432D01*
X66540858Y-55709954D01*
X66379954Y-55870858D01*
X66249432Y-56057265D01*
X66249431Y-56057267D01*
X66153261Y-56263502D01*
X66153258Y-56263511D01*
X66094366Y-56483302D01*
X66094364Y-56483313D01*
X66074532Y-56709998D01*
X66074532Y-56710001D01*
X66094364Y-56936686D01*
X66094366Y-56936697D01*
X66153258Y-57156488D01*
X66153261Y-57156497D01*
X66249431Y-57362732D01*
X66249432Y-57362734D01*
X66379954Y-57549141D01*
X66540858Y-57710045D01*
X66540861Y-57710047D01*
X66727266Y-57840568D01*
X66785275Y-57867618D01*
X66837714Y-57913791D01*
X66856866Y-57980984D01*
X66836650Y-58047865D01*
X66785275Y-58092381D01*
X66784985Y-58092517D01*
X66727267Y-58119431D01*
X66727265Y-58119432D01*
X66540858Y-58249954D01*
X66379954Y-58410858D01*
X66249432Y-58597265D01*
X66249431Y-58597267D01*
X66153261Y-58803502D01*
X66153258Y-58803511D01*
X66094366Y-59023302D01*
X66094364Y-59023313D01*
X66074532Y-59249998D01*
X66074532Y-59250001D01*
X66094364Y-59476686D01*
X66094366Y-59476697D01*
X66153258Y-59696488D01*
X66153261Y-59696497D01*
X66249431Y-59902732D01*
X66249432Y-59902734D01*
X66379954Y-60089141D01*
X66540858Y-60250045D01*
X66540861Y-60250047D01*
X66727266Y-60380568D01*
X66785275Y-60407618D01*
X66837714Y-60453791D01*
X66856866Y-60520984D01*
X66836650Y-60587865D01*
X66785275Y-60632382D01*
X66727267Y-60659431D01*
X66727265Y-60659432D01*
X66540858Y-60789954D01*
X66379954Y-60950858D01*
X66249432Y-61137265D01*
X66249431Y-61137267D01*
X66153261Y-61343502D01*
X66153258Y-61343511D01*
X66094366Y-61563302D01*
X66094364Y-61563313D01*
X66074532Y-61789998D01*
X66074532Y-61790001D01*
X66094364Y-62016686D01*
X66094366Y-62016697D01*
X66153258Y-62236488D01*
X66153261Y-62236497D01*
X66249431Y-62442732D01*
X66249432Y-62442734D01*
X66379954Y-62629141D01*
X66540858Y-62790045D01*
X66540861Y-62790047D01*
X66727266Y-62920568D01*
X66785275Y-62947618D01*
X66837714Y-62993791D01*
X66856866Y-63060984D01*
X66836650Y-63127865D01*
X66785275Y-63172382D01*
X66727267Y-63199431D01*
X66727265Y-63199432D01*
X66540858Y-63329954D01*
X66379954Y-63490858D01*
X66249432Y-63677265D01*
X66249431Y-63677267D01*
X66153261Y-63883502D01*
X66153258Y-63883511D01*
X66094366Y-64103302D01*
X66094364Y-64103313D01*
X66074532Y-64329998D01*
X66074532Y-64330001D01*
X66094364Y-64556686D01*
X66094366Y-64556697D01*
X66153258Y-64776488D01*
X66153261Y-64776497D01*
X66249431Y-64982732D01*
X66249432Y-64982734D01*
X66379954Y-65169141D01*
X66540858Y-65330045D01*
X66540861Y-65330047D01*
X66727266Y-65460568D01*
X66785275Y-65487618D01*
X66837714Y-65533791D01*
X66856866Y-65600984D01*
X66836650Y-65667865D01*
X66785275Y-65712382D01*
X66727267Y-65739431D01*
X66727265Y-65739432D01*
X66540858Y-65869954D01*
X66379954Y-66030858D01*
X66249432Y-66217265D01*
X66249431Y-66217267D01*
X66153261Y-66423502D01*
X66153258Y-66423511D01*
X66094366Y-66643302D01*
X66094364Y-66643313D01*
X66074532Y-66869998D01*
X66074532Y-66870001D01*
X66094364Y-67096686D01*
X66094366Y-67096697D01*
X66153258Y-67316488D01*
X66153261Y-67316497D01*
X66249431Y-67522732D01*
X66249432Y-67522734D01*
X66379954Y-67709141D01*
X66540858Y-67870045D01*
X66540861Y-67870047D01*
X66727266Y-68000568D01*
X66785275Y-68027618D01*
X66837714Y-68073791D01*
X66856866Y-68140984D01*
X66836650Y-68207865D01*
X66785275Y-68252382D01*
X66727267Y-68279431D01*
X66727265Y-68279432D01*
X66540858Y-68409954D01*
X66379954Y-68570858D01*
X66249432Y-68757265D01*
X66249431Y-68757267D01*
X66153261Y-68963502D01*
X66153258Y-68963511D01*
X66094366Y-69183302D01*
X66094364Y-69183313D01*
X66074532Y-69409998D01*
X66074532Y-69410001D01*
X66094364Y-69636686D01*
X66094366Y-69636697D01*
X66153258Y-69856488D01*
X66153261Y-69856497D01*
X66249431Y-70062732D01*
X66249432Y-70062734D01*
X66379954Y-70249141D01*
X66540858Y-70410045D01*
X66540861Y-70410047D01*
X66727266Y-70540568D01*
X66785865Y-70567893D01*
X66838305Y-70614065D01*
X66857457Y-70681258D01*
X66837242Y-70748139D01*
X66785867Y-70792657D01*
X66727513Y-70819868D01*
X66727512Y-70819868D01*
X66654526Y-70870973D01*
X66654526Y-70870974D01*
X67209765Y-71426212D01*
X67167708Y-71437482D01*
X67042292Y-71509890D01*
X66939890Y-71612292D01*
X66867482Y-71737708D01*
X66856212Y-71779764D01*
X66300974Y-71224526D01*
X66300973Y-71224526D01*
X66249868Y-71297512D01*
X66249866Y-71297516D01*
X66153734Y-71503673D01*
X66153730Y-71503682D01*
X66094860Y-71723389D01*
X66094858Y-71723400D01*
X66075034Y-71949997D01*
X66075034Y-71950002D01*
X66094858Y-72176599D01*
X66094860Y-72176610D01*
X66153730Y-72396317D01*
X66153735Y-72396331D01*
X66249863Y-72602478D01*
X66300974Y-72675472D01*
X66856212Y-72120234D01*
X66867482Y-72162292D01*
X66939890Y-72287708D01*
X67042292Y-72390110D01*
X67167708Y-72462518D01*
X67209765Y-72473787D01*
X66654526Y-73029025D01*
X66727513Y-73080132D01*
X66727521Y-73080136D01*
X66785864Y-73107342D01*
X66838304Y-73153514D01*
X66857456Y-73220707D01*
X66837241Y-73287589D01*
X66785866Y-73332105D01*
X66727272Y-73359428D01*
X66727265Y-73359432D01*
X66540858Y-73489954D01*
X66379954Y-73650858D01*
X66249432Y-73837265D01*
X66249431Y-73837267D01*
X66153261Y-74043502D01*
X66153258Y-74043511D01*
X66094366Y-74263302D01*
X66094364Y-74263313D01*
X66074532Y-74489998D01*
X66074532Y-74490001D01*
X23500500Y-74490001D01*
X23500500Y-40000001D01*
X52244390Y-40000001D01*
X52264804Y-40285433D01*
X52325628Y-40565037D01*
X52425635Y-40833166D01*
X52562770Y-41084309D01*
X52562775Y-41084317D01*
X52734254Y-41313387D01*
X52734270Y-41313405D01*
X52936594Y-41515729D01*
X52936612Y-41515745D01*
X53165682Y-41687224D01*
X53165690Y-41687229D01*
X53416833Y-41824364D01*
X53416832Y-41824364D01*
X53416836Y-41824365D01*
X53416839Y-41824367D01*
X53684954Y-41924369D01*
X53684960Y-41924370D01*
X53684962Y-41924371D01*
X53964566Y-41985195D01*
X53964568Y-41985195D01*
X53964572Y-41985196D01*
X54218220Y-42003337D01*
X54249999Y-42005610D01*
X54250000Y-42005610D01*
X54250001Y-42005610D01*
X54278595Y-42003564D01*
X54535428Y-41985196D01*
X54815046Y-41924369D01*
X55083161Y-41824367D01*
X55334315Y-41687226D01*
X55563395Y-41515739D01*
X55765739Y-41313395D01*
X55937226Y-41084315D01*
X56074367Y-40833161D01*
X56174369Y-40565046D01*
X56235196Y-40285428D01*
X56255610Y-40000000D01*
X56235196Y-39714572D01*
X56210168Y-39599522D01*
X56174371Y-39434962D01*
X56174370Y-39434960D01*
X56174369Y-39434954D01*
X56105386Y-39250003D01*
X96694435Y-39250003D01*
X96714630Y-39429249D01*
X96714631Y-39429254D01*
X96774211Y-39599523D01*
X96846498Y-39714566D01*
X96870184Y-39752262D01*
X96997738Y-39879816D01*
X97150478Y-39975789D01*
X97219672Y-40000001D01*
X97320745Y-40035368D01*
X97320750Y-40035369D01*
X97499996Y-40055565D01*
X97500000Y-40055565D01*
X97500004Y-40055565D01*
X97679249Y-40035369D01*
X97679252Y-40035368D01*
X97679255Y-40035368D01*
X97849522Y-39975789D01*
X98002262Y-39879816D01*
X98002267Y-39879810D01*
X98005097Y-39877555D01*
X98007275Y-39876665D01*
X98008158Y-39876111D01*
X98008255Y-39876265D01*
X98069783Y-39851145D01*
X98082412Y-39850500D01*
X101667588Y-39850500D01*
X101734627Y-39870185D01*
X101744903Y-39877555D01*
X101747736Y-39879814D01*
X101747738Y-39879816D01*
X101900478Y-39975789D01*
X101969672Y-40000001D01*
X102070745Y-40035368D01*
X102070750Y-40035369D01*
X102249996Y-40055565D01*
X102250000Y-40055565D01*
X102250004Y-40055565D01*
X102429249Y-40035369D01*
X102429252Y-40035368D01*
X102429255Y-40035368D01*
X102599522Y-39975789D01*
X102752262Y-39879816D01*
X102879816Y-39752262D01*
X102975789Y-39599522D01*
X103035368Y-39429255D01*
X103055565Y-39250000D01*
X103046195Y-39166839D01*
X103035369Y-39070750D01*
X103035368Y-39070745D01*
X102975788Y-38900476D01*
X102879815Y-38747737D01*
X102752262Y-38620184D01*
X102599523Y-38524211D01*
X102429254Y-38464631D01*
X102429249Y-38464630D01*
X102250004Y-38444435D01*
X102249996Y-38444435D01*
X102070750Y-38464630D01*
X102070745Y-38464631D01*
X101900476Y-38524211D01*
X101747736Y-38620185D01*
X101744903Y-38622445D01*
X101742724Y-38623334D01*
X101741842Y-38623889D01*
X101741744Y-38623734D01*
X101680217Y-38648855D01*
X101667588Y-38649500D01*
X98082412Y-38649500D01*
X98015373Y-38629815D01*
X98005097Y-38622445D01*
X98002263Y-38620185D01*
X98002262Y-38620184D01*
X97945496Y-38584515D01*
X97849523Y-38524211D01*
X97679254Y-38464631D01*
X97679249Y-38464630D01*
X97500004Y-38444435D01*
X97499996Y-38444435D01*
X97320750Y-38464630D01*
X97320745Y-38464631D01*
X97150476Y-38524211D01*
X96997737Y-38620184D01*
X96870184Y-38747737D01*
X96774211Y-38900476D01*
X96714631Y-39070745D01*
X96714630Y-39070750D01*
X96694435Y-39249996D01*
X96694435Y-39250003D01*
X56105386Y-39250003D01*
X56074367Y-39166839D01*
X56021898Y-39070750D01*
X55937229Y-38915690D01*
X55937224Y-38915682D01*
X55765745Y-38686612D01*
X55765729Y-38686594D01*
X55563405Y-38484270D01*
X55563387Y-38484254D01*
X55334317Y-38312775D01*
X55334309Y-38312770D01*
X55083166Y-38175635D01*
X55083167Y-38175635D01*
X54975915Y-38135632D01*
X54815046Y-38075631D01*
X54815043Y-38075630D01*
X54815037Y-38075628D01*
X54535433Y-38014804D01*
X54250001Y-37994390D01*
X54249999Y-37994390D01*
X53964566Y-38014804D01*
X53684962Y-38075628D01*
X53416833Y-38175635D01*
X53165690Y-38312770D01*
X53165682Y-38312775D01*
X52936612Y-38484254D01*
X52936594Y-38484270D01*
X52734270Y-38686594D01*
X52734254Y-38686612D01*
X52562775Y-38915682D01*
X52562770Y-38915690D01*
X52425635Y-39166833D01*
X52325628Y-39434962D01*
X52264804Y-39714566D01*
X52244390Y-39999998D01*
X52244390Y-40000001D01*
X23500500Y-40000001D01*
X23500500Y-37000003D01*
X96944435Y-37000003D01*
X96964630Y-37179249D01*
X96964631Y-37179254D01*
X97024211Y-37349523D01*
X97120184Y-37502262D01*
X97247738Y-37629816D01*
X97400478Y-37725789D01*
X97570745Y-37785368D01*
X97570750Y-37785369D01*
X97749996Y-37805565D01*
X97750000Y-37805565D01*
X97750004Y-37805565D01*
X97929249Y-37785369D01*
X97929252Y-37785368D01*
X97929255Y-37785368D01*
X98099522Y-37725789D01*
X98252262Y-37629816D01*
X98252267Y-37629810D01*
X98255097Y-37627555D01*
X98257275Y-37626665D01*
X98258158Y-37626111D01*
X98258255Y-37626265D01*
X98319783Y-37601145D01*
X98332412Y-37600500D01*
X101667588Y-37600500D01*
X101734627Y-37620185D01*
X101744903Y-37627555D01*
X101747736Y-37629814D01*
X101747738Y-37629816D01*
X101900478Y-37725789D01*
X102070745Y-37785368D01*
X102070750Y-37785369D01*
X102249996Y-37805565D01*
X102250000Y-37805565D01*
X102250004Y-37805565D01*
X102429249Y-37785369D01*
X102429252Y-37785368D01*
X102429255Y-37785368D01*
X102599522Y-37725789D01*
X102752262Y-37629816D01*
X102879816Y-37502262D01*
X102975789Y-37349522D01*
X103035368Y-37179255D01*
X103055565Y-37000000D01*
X103035368Y-36820745D01*
X102975789Y-36650478D01*
X102879816Y-36497738D01*
X102752262Y-36370184D01*
X102599523Y-36274211D01*
X102429254Y-36214631D01*
X102429249Y-36214630D01*
X102250004Y-36194435D01*
X102249996Y-36194435D01*
X102070750Y-36214630D01*
X102070745Y-36214631D01*
X101900476Y-36274211D01*
X101747736Y-36370185D01*
X101744903Y-36372445D01*
X101742724Y-36373334D01*
X101741842Y-36373889D01*
X101741744Y-36373734D01*
X101680217Y-36398855D01*
X101667588Y-36399500D01*
X98332412Y-36399500D01*
X98265373Y-36379815D01*
X98255097Y-36372445D01*
X98252263Y-36370185D01*
X98252262Y-36370184D01*
X98195496Y-36334515D01*
X98099523Y-36274211D01*
X97929254Y-36214631D01*
X97929249Y-36214630D01*
X97750004Y-36194435D01*
X97749996Y-36194435D01*
X97570750Y-36214630D01*
X97570745Y-36214631D01*
X97400476Y-36274211D01*
X97247737Y-36370184D01*
X97120184Y-36497737D01*
X97024211Y-36650476D01*
X96964631Y-36820745D01*
X96964630Y-36820750D01*
X96944435Y-36999996D01*
X96944435Y-37000003D01*
X23500500Y-37000003D01*
X23500500Y-34750003D01*
X96944435Y-34750003D01*
X96964630Y-34929249D01*
X96964631Y-34929254D01*
X97024211Y-35099523D01*
X97120184Y-35252262D01*
X97247738Y-35379816D01*
X97400478Y-35475789D01*
X97570745Y-35535368D01*
X97570750Y-35535369D01*
X97749996Y-35555565D01*
X97750000Y-35555565D01*
X97750004Y-35555565D01*
X97929249Y-35535369D01*
X97929252Y-35535368D01*
X97929255Y-35535368D01*
X98099522Y-35475789D01*
X98252262Y-35379816D01*
X98252267Y-35379810D01*
X98255097Y-35377555D01*
X98257275Y-35376665D01*
X98258158Y-35376111D01*
X98258255Y-35376265D01*
X98319783Y-35351145D01*
X98332412Y-35350500D01*
X101667588Y-35350500D01*
X101734627Y-35370185D01*
X101744903Y-35377555D01*
X101747736Y-35379814D01*
X101747738Y-35379816D01*
X101900478Y-35475789D01*
X102070745Y-35535368D01*
X102070750Y-35535369D01*
X102249996Y-35555565D01*
X102250000Y-35555565D01*
X102250004Y-35555565D01*
X102429249Y-35535369D01*
X102429252Y-35535368D01*
X102429255Y-35535368D01*
X102599522Y-35475789D01*
X102752262Y-35379816D01*
X102879816Y-35252262D01*
X102975789Y-35099522D01*
X103035368Y-34929255D01*
X103055565Y-34750000D01*
X103035368Y-34570745D01*
X102975789Y-34400478D01*
X102879816Y-34247738D01*
X102752262Y-34120184D01*
X102599523Y-34024211D01*
X102429254Y-33964631D01*
X102429249Y-33964630D01*
X102250004Y-33944435D01*
X102249996Y-33944435D01*
X102070750Y-33964630D01*
X102070745Y-33964631D01*
X101900476Y-34024211D01*
X101747736Y-34120185D01*
X101744903Y-34122445D01*
X101742724Y-34123334D01*
X101741842Y-34123889D01*
X101741744Y-34123734D01*
X101680217Y-34148855D01*
X101667588Y-34149500D01*
X98332412Y-34149500D01*
X98265373Y-34129815D01*
X98255097Y-34122445D01*
X98252263Y-34120185D01*
X98252262Y-34120184D01*
X98195496Y-34084515D01*
X98099523Y-34024211D01*
X97929254Y-33964631D01*
X97929249Y-33964630D01*
X97750004Y-33944435D01*
X97749996Y-33944435D01*
X97570750Y-33964630D01*
X97570745Y-33964631D01*
X97400476Y-34024211D01*
X97247737Y-34120184D01*
X97120184Y-34247737D01*
X97024211Y-34400476D01*
X96964631Y-34570745D01*
X96964630Y-34570750D01*
X96944435Y-34749996D01*
X96944435Y-34750003D01*
X23500500Y-34750003D01*
X23500500Y-31250001D01*
X54744390Y-31250001D01*
X54764804Y-31535433D01*
X54825628Y-31815037D01*
X54925635Y-32083166D01*
X55062770Y-32334309D01*
X55062775Y-32334317D01*
X55234254Y-32563387D01*
X55234270Y-32563405D01*
X55436594Y-32765729D01*
X55436612Y-32765745D01*
X55665682Y-32937224D01*
X55665690Y-32937229D01*
X55916833Y-33074364D01*
X55916832Y-33074364D01*
X55916836Y-33074365D01*
X55916839Y-33074367D01*
X56184954Y-33174369D01*
X56184960Y-33174370D01*
X56184962Y-33174371D01*
X56464566Y-33235195D01*
X56464568Y-33235195D01*
X56464572Y-33235196D01*
X56718220Y-33253337D01*
X56749999Y-33255610D01*
X56750000Y-33255610D01*
X56750001Y-33255610D01*
X56778595Y-33253564D01*
X57035428Y-33235196D01*
X57315046Y-33174369D01*
X57583161Y-33074367D01*
X57834315Y-32937226D01*
X58063395Y-32765739D01*
X58265739Y-32563395D01*
X58437226Y-32334315D01*
X58574367Y-32083161D01*
X58674369Y-31815046D01*
X58735196Y-31535428D01*
X58755610Y-31250000D01*
X58735196Y-30964572D01*
X58674369Y-30684954D01*
X58574367Y-30416839D01*
X58437226Y-30165685D01*
X58437224Y-30165682D01*
X58265745Y-29936612D01*
X58265729Y-29936594D01*
X58063405Y-29734270D01*
X58063387Y-29734254D01*
X57834317Y-29562775D01*
X57834309Y-29562770D01*
X57583166Y-29425635D01*
X57583167Y-29425635D01*
X57475915Y-29385632D01*
X57315046Y-29325631D01*
X57315043Y-29325630D01*
X57315037Y-29325628D01*
X57035433Y-29264804D01*
X56750001Y-29244390D01*
X56749999Y-29244390D01*
X56464566Y-29264804D01*
X56184962Y-29325628D01*
X55916833Y-29425635D01*
X55665690Y-29562770D01*
X55665682Y-29562775D01*
X55436612Y-29734254D01*
X55436594Y-29734270D01*
X55234270Y-29936594D01*
X55234254Y-29936612D01*
X55062775Y-30165682D01*
X55062770Y-30165690D01*
X54925635Y-30416833D01*
X54825628Y-30684962D01*
X54764804Y-30964566D01*
X54744390Y-31249998D01*
X54744390Y-31250001D01*
X23500500Y-31250001D01*
X23500500Y-28434108D01*
X23466392Y-28306814D01*
X23400500Y-28192686D01*
X23307314Y-28099500D01*
X23250250Y-28066554D01*
X23193187Y-28033608D01*
X23129539Y-28016554D01*
X23065892Y-27999500D01*
X23065891Y-27999500D01*
X23002473Y-27999500D01*
X22997522Y-27999401D01*
X22526273Y-27980571D01*
X22516403Y-27979781D01*
X22090949Y-27928563D01*
X22050614Y-27923707D01*
X22040843Y-27922133D01*
X21581007Y-27829075D01*
X21571401Y-27826728D01*
X21244311Y-27732832D01*
X21120470Y-27697281D01*
X21111070Y-27694172D01*
X20671884Y-27529152D01*
X20662762Y-27525302D01*
X20238154Y-27325773D01*
X20229368Y-27321207D01*
X19822042Y-27088441D01*
X19813648Y-27083189D01*
X19426185Y-26818661D01*
X19418237Y-26812756D01*
X19053114Y-26518157D01*
X19045663Y-26511637D01*
X18858632Y-26334309D01*
X18705205Y-26188841D01*
X18698318Y-26181768D01*
X18384690Y-25832827D01*
X18378378Y-25825214D01*
X18157040Y-25535433D01*
X18093597Y-25452372D01*
X18087908Y-25444272D01*
X17962725Y-25250001D01*
X73494390Y-25250001D01*
X73514804Y-25535433D01*
X73575628Y-25815037D01*
X73575630Y-25815043D01*
X73575631Y-25815046D01*
X73675633Y-26083161D01*
X73675635Y-26083166D01*
X73812770Y-26334309D01*
X73812775Y-26334317D01*
X73984254Y-26563387D01*
X73984270Y-26563405D01*
X74186594Y-26765729D01*
X74186612Y-26765745D01*
X74415682Y-26937224D01*
X74415690Y-26937229D01*
X74666833Y-27074364D01*
X74666832Y-27074364D01*
X74666836Y-27074365D01*
X74666839Y-27074367D01*
X74934954Y-27174369D01*
X74934960Y-27174370D01*
X74934962Y-27174371D01*
X75214566Y-27235195D01*
X75214568Y-27235195D01*
X75214572Y-27235196D01*
X75468220Y-27253337D01*
X75499999Y-27255610D01*
X75500000Y-27255610D01*
X75500001Y-27255610D01*
X75528595Y-27253564D01*
X75785428Y-27235196D01*
X76065046Y-27174369D01*
X76333161Y-27074367D01*
X76584315Y-26937226D01*
X76813395Y-26765739D01*
X77015739Y-26563395D01*
X77187226Y-26334315D01*
X77324367Y-26083161D01*
X77424369Y-25815046D01*
X77485196Y-25535428D01*
X77505610Y-25250000D01*
X77485196Y-24964572D01*
X77424369Y-24684954D01*
X77324367Y-24416839D01*
X77294504Y-24362150D01*
X77187229Y-24165690D01*
X77187224Y-24165682D01*
X77015745Y-23936612D01*
X77015729Y-23936594D01*
X76813405Y-23734270D01*
X76813387Y-23734254D01*
X76584317Y-23562775D01*
X76584309Y-23562770D01*
X76333166Y-23425635D01*
X76333167Y-23425635D01*
X76225915Y-23385632D01*
X76065046Y-23325631D01*
X76065043Y-23325630D01*
X76065037Y-23325628D01*
X75785433Y-23264804D01*
X75500001Y-23244390D01*
X75499999Y-23244390D01*
X75214566Y-23264804D01*
X74934962Y-23325628D01*
X74666833Y-23425635D01*
X74415690Y-23562770D01*
X74415682Y-23562775D01*
X74186612Y-23734254D01*
X74186594Y-23734270D01*
X73984270Y-23936594D01*
X73984254Y-23936612D01*
X73812775Y-24165682D01*
X73812770Y-24165690D01*
X73675635Y-24416833D01*
X73575628Y-24684962D01*
X73514804Y-24964566D01*
X73494390Y-25249998D01*
X73494390Y-25250001D01*
X17962725Y-25250001D01*
X17833785Y-25049898D01*
X17828768Y-25041385D01*
X17606920Y-24627991D01*
X17602591Y-24619089D01*
X17514042Y-24416833D01*
X17414424Y-24189292D01*
X17410833Y-24180106D01*
X17257563Y-23736685D01*
X17254707Y-23727215D01*
X17176760Y-23425633D01*
X17137307Y-23272985D01*
X17135215Y-23263311D01*
X17131908Y-23244390D01*
X17054428Y-22801148D01*
X17053119Y-22791368D01*
X17009463Y-22324238D01*
X17008937Y-22314352D01*
X17007324Y-22193186D01*
X17004752Y-22000005D01*
X20595255Y-22000005D01*
X20614215Y-22301383D01*
X20614216Y-22301390D01*
X20670805Y-22598040D01*
X20764125Y-22885247D01*
X20764127Y-22885252D01*
X20892704Y-23158491D01*
X20892707Y-23158497D01*
X21054516Y-23413469D01*
X21135311Y-23511133D01*
X22063708Y-22582736D01*
X22160967Y-22716602D01*
X22283398Y-22839033D01*
X22417262Y-22936290D01*
X21486564Y-23866987D01*
X21486565Y-23866989D01*
X21711461Y-24030385D01*
X21711479Y-24030397D01*
X21976109Y-24175878D01*
X21976117Y-24175882D01*
X22256889Y-24287047D01*
X22256892Y-24287048D01*
X22549399Y-24362150D01*
X22848995Y-24399999D01*
X22849007Y-24400000D01*
X23150993Y-24400000D01*
X23151004Y-24399999D01*
X23450600Y-24362150D01*
X23743107Y-24287048D01*
X23743110Y-24287047D01*
X24023882Y-24175882D01*
X24023890Y-24175878D01*
X24288520Y-24030397D01*
X24288530Y-24030390D01*
X24513433Y-23866987D01*
X24513434Y-23866987D01*
X23582737Y-22936290D01*
X23716602Y-22839033D01*
X23839033Y-22716602D01*
X23936290Y-22582737D01*
X24864687Y-23511134D01*
X24945486Y-23413464D01*
X25107292Y-23158497D01*
X25107295Y-23158491D01*
X25235872Y-22885252D01*
X25235874Y-22885247D01*
X25329194Y-22598040D01*
X25385783Y-22301390D01*
X25385784Y-22301383D01*
X25404745Y-22000005D01*
X25404745Y-21999994D01*
X25385784Y-21698616D01*
X25385783Y-21698609D01*
X25329194Y-21401959D01*
X25235874Y-21114752D01*
X25235872Y-21114747D01*
X25107295Y-20841508D01*
X25107292Y-20841502D01*
X24945483Y-20586530D01*
X24864686Y-20488864D01*
X23936289Y-21417261D01*
X23839033Y-21283398D01*
X23716602Y-21160967D01*
X23582736Y-21063709D01*
X24513434Y-20133011D01*
X24513433Y-20133009D01*
X24288538Y-19969614D01*
X24288520Y-19969602D01*
X24023890Y-19824121D01*
X24023882Y-19824117D01*
X23743110Y-19712952D01*
X23743107Y-19712951D01*
X23450600Y-19637849D01*
X23151004Y-19600000D01*
X22848995Y-19600000D01*
X22549399Y-19637849D01*
X22256892Y-19712951D01*
X22256889Y-19712952D01*
X21976117Y-19824117D01*
X21976109Y-19824121D01*
X21711476Y-19969604D01*
X21711471Y-19969607D01*
X21486565Y-20133010D01*
X21486564Y-20133011D01*
X22417262Y-21063709D01*
X22283398Y-21160967D01*
X22160967Y-21283398D01*
X22063709Y-21417262D01*
X21135311Y-20488864D01*
X21054520Y-20586525D01*
X21054518Y-20586528D01*
X20892707Y-20841502D01*
X20892704Y-20841508D01*
X20764127Y-21114747D01*
X20764125Y-21114752D01*
X20670805Y-21401959D01*
X20614216Y-21698609D01*
X20614215Y-21698616D01*
X20595255Y-21999994D01*
X20595255Y-22000005D01*
X17004752Y-22000005D01*
X17002691Y-21845216D01*
X17002954Y-21835363D01*
X17034158Y-21367240D01*
X17035210Y-21357396D01*
X17103665Y-20893254D01*
X17105500Y-20883525D01*
X17115174Y-20841508D01*
X17210767Y-20426324D01*
X17213360Y-20416816D01*
X17354778Y-19969450D01*
X17358135Y-19960144D01*
X17413420Y-19824121D01*
X17534787Y-19525507D01*
X17538859Y-19516533D01*
X17749645Y-19097339D01*
X17754422Y-19088716D01*
X17997964Y-18687704D01*
X18003424Y-18679474D01*
X18278184Y-18299174D01*
X18284294Y-18291392D01*
X18300043Y-18272903D01*
X18588526Y-17934219D01*
X18595219Y-17926970D01*
X18926970Y-17595219D01*
X18934219Y-17588526D01*
X19291397Y-17284289D01*
X19299180Y-17278180D01*
X19679474Y-17003424D01*
X19687704Y-16997964D01*
X20088716Y-16754422D01*
X20097339Y-16749645D01*
X20516533Y-16538859D01*
X20525507Y-16534787D01*
X20960151Y-16358132D01*
X20969450Y-16354778D01*
X21416816Y-16213360D01*
X21426324Y-16210767D01*
X21883530Y-16105498D01*
X21893249Y-16103665D01*
X22357398Y-16035209D01*
X22367240Y-16034158D01*
X22835363Y-16002954D01*
X22845216Y-16002691D01*
X23314353Y-16008937D01*
X23324238Y-16009463D01*
X23791368Y-16053119D01*
X23801148Y-16054428D01*
X24263314Y-16135215D01*
X24272985Y-16137307D01*
X24727225Y-16254710D01*
X24736685Y-16257563D01*
X25180106Y-16410833D01*
X25189292Y-16414424D01*
X25619089Y-16602591D01*
X25627991Y-16606920D01*
X26041385Y-16828768D01*
X26049898Y-16833785D01*
X26308675Y-17000533D01*
X26444272Y-17087908D01*
X26452374Y-17093599D01*
X26825214Y-17378378D01*
X26832827Y-17384690D01*
X27181768Y-17698318D01*
X27188841Y-17705205D01*
X27405986Y-17934232D01*
X27511637Y-18045663D01*
X27518157Y-18053114D01*
X27812756Y-18418237D01*
X27818661Y-18426185D01*
X28083189Y-18813648D01*
X28088441Y-18822042D01*
X28321207Y-19229368D01*
X28325773Y-19238154D01*
X28525302Y-19662762D01*
X28529152Y-19671884D01*
X28694172Y-20111070D01*
X28697281Y-20120470D01*
X28783701Y-20421516D01*
X28826726Y-20571391D01*
X28829075Y-20581007D01*
X28881793Y-20841508D01*
X28922133Y-21040841D01*
X28923708Y-21050616D01*
X28979781Y-21516403D01*
X28980571Y-21526273D01*
X28999401Y-21997522D01*
X28999500Y-22002473D01*
X28999500Y-22065891D01*
X29033608Y-22193187D01*
X29066554Y-22250250D01*
X29099500Y-22307314D01*
X29192686Y-22400500D01*
X29306814Y-22466392D01*
X29434108Y-22500500D01*
X29434110Y-22500500D01*
X144565890Y-22500500D01*
X144565892Y-22500500D01*
X144693186Y-22466392D01*
X144807314Y-22400500D01*
X144900500Y-22307314D01*
X144966392Y-22193186D01*
X145000500Y-22065892D01*
X145000500Y-22002473D01*
X145000549Y-22000005D01*
X148595255Y-22000005D01*
X148614215Y-22301383D01*
X148614216Y-22301390D01*
X148670805Y-22598040D01*
X148764125Y-22885247D01*
X148764127Y-22885252D01*
X148892704Y-23158491D01*
X148892707Y-23158497D01*
X149054516Y-23413469D01*
X149135311Y-23511133D01*
X150063708Y-22582736D01*
X150160967Y-22716602D01*
X150283398Y-22839033D01*
X150417262Y-22936290D01*
X149486564Y-23866987D01*
X149486565Y-23866989D01*
X149711461Y-24030385D01*
X149711479Y-24030397D01*
X149976109Y-24175878D01*
X149976117Y-24175882D01*
X150256889Y-24287047D01*
X150256892Y-24287048D01*
X150549399Y-24362150D01*
X150848995Y-24399999D01*
X150849007Y-24400000D01*
X151150993Y-24400000D01*
X151151004Y-24399999D01*
X151450600Y-24362150D01*
X151743107Y-24287048D01*
X151743110Y-24287047D01*
X152023882Y-24175882D01*
X152023890Y-24175878D01*
X152288520Y-24030397D01*
X152288530Y-24030390D01*
X152513433Y-23866987D01*
X152513434Y-23866987D01*
X151582737Y-22936290D01*
X151716602Y-22839033D01*
X151839033Y-22716602D01*
X151936290Y-22582737D01*
X152864687Y-23511134D01*
X152945486Y-23413464D01*
X153107292Y-23158497D01*
X153107295Y-23158491D01*
X153235872Y-22885252D01*
X153235874Y-22885247D01*
X153329194Y-22598040D01*
X153385783Y-22301390D01*
X153385784Y-22301383D01*
X153404745Y-22000005D01*
X153404745Y-21999994D01*
X153385784Y-21698616D01*
X153385783Y-21698609D01*
X153329194Y-21401959D01*
X153235874Y-21114752D01*
X153235872Y-21114747D01*
X153107295Y-20841508D01*
X153107292Y-20841502D01*
X152945483Y-20586530D01*
X152864686Y-20488864D01*
X151936289Y-21417261D01*
X151839033Y-21283398D01*
X151716602Y-21160967D01*
X151582736Y-21063709D01*
X152513434Y-20133011D01*
X152513433Y-20133009D01*
X152288538Y-19969614D01*
X152288520Y-19969602D01*
X152023890Y-19824121D01*
X152023882Y-19824117D01*
X151743110Y-19712952D01*
X151743107Y-19712951D01*
X151450600Y-19637849D01*
X151151004Y-19600000D01*
X150848995Y-19600000D01*
X150549399Y-19637849D01*
X150256892Y-19712951D01*
X150256889Y-19712952D01*
X149976117Y-19824117D01*
X149976109Y-19824121D01*
X149711476Y-19969604D01*
X149711471Y-19969607D01*
X149486565Y-20133010D01*
X149486564Y-20133011D01*
X150417262Y-21063709D01*
X150283398Y-21160967D01*
X150160967Y-21283398D01*
X150063709Y-21417262D01*
X149135311Y-20488864D01*
X149054520Y-20586525D01*
X149054518Y-20586528D01*
X148892707Y-20841502D01*
X148892704Y-20841508D01*
X148764127Y-21114747D01*
X148764125Y-21114752D01*
X148670805Y-21401959D01*
X148614216Y-21698609D01*
X148614215Y-21698616D01*
X148595255Y-21999994D01*
X148595255Y-22000005D01*
X145000549Y-22000005D01*
X145000599Y-21997522D01*
X145012542Y-21698609D01*
X145019428Y-21526267D01*
X145020218Y-21516403D01*
X145031405Y-21423475D01*
X145076295Y-21050589D01*
X145077861Y-21040868D01*
X145170929Y-20580983D01*
X145173264Y-20571424D01*
X145302724Y-20120450D01*
X145305822Y-20111082D01*
X145470851Y-19671874D01*
X145474692Y-19662772D01*
X145674233Y-19238139D01*
X145678783Y-19229383D01*
X145911565Y-18822030D01*
X145916802Y-18813660D01*
X146181350Y-18426168D01*
X146187231Y-18418252D01*
X146481857Y-18053096D01*
X146488345Y-18045681D01*
X146811170Y-17705192D01*
X146818218Y-17698329D01*
X147167184Y-17384679D01*
X147174777Y-17378383D01*
X147547639Y-17093588D01*
X147555712Y-17087918D01*
X147950111Y-16833778D01*
X147958602Y-16828774D01*
X148372018Y-16606914D01*
X148380898Y-16602596D01*
X148810715Y-16414420D01*
X148819884Y-16410836D01*
X149263321Y-16257560D01*
X149272767Y-16254712D01*
X149727019Y-16137306D01*
X149736680Y-16135216D01*
X150198854Y-16054428D01*
X150208628Y-16053119D01*
X150675762Y-16009463D01*
X150685645Y-16008937D01*
X151154782Y-16002691D01*
X151164637Y-16002954D01*
G37*
%TD.AperFunction*%
%TD*%
M02*
